<svg version="1.1" id="Ebene_2" xmlns="http://www.w3.org/2000/svg" xmlns:xlink="http://www.w3.org/1999/xlink" x="0px" y="0px" viewBox="104.8 266.9 303 81.5" style="enable-background:new 104.8 266.9 303 81.5;" xml:space="preserve">
<path class="st0" d="M176.5,267.7h-62c0,0-9.7,0-9.7,9.7V338c0,0,0,9.7,9.7,9.7h62c0,0,9.7,0,9.7-9.7v-60.6
	C186.1,277.4,186.1,267.7,176.5,267.7z M145.7,278.3c3.6,0,6.5,2.9,6.5,6.5s-2.9,6.5-6.5,6.5s-6.5-2.9-6.5-6.5
	S142.1,278.3,145.7,278.3z M180.7,309.2c0,0.5-0.4,0.9-0.9,0.9h-10.1c-0.5,0-0.9-0.4-0.9-0.9v-10.5l-17.6,1.6l-1.8,39.9
	c0,0.5-0.4,0.9-0.9,0.9h-8.1c-0.5,0-0.9-0.4-0.9-0.9l-1.8-40.6L126,286.3l-7.4,7.8c-0.3,0.3-0.9,0.4-1.2,0l-7.3-6.9
	c-0.3-0.3-0.4-0.9,0-1.2l9-9.5c0.3-0.3,0.9-0.4,1.2,0l7.3,6.9l0,0l12.5,11.9h6.8h3.5h19.1h9.4h0.7c0.5,0,0.9,0.4,0.9,0.9v13H180.7z"></path>
<path class="st0" d="M402.5,332.3c-1.7-1.9-3.7-2.6-7.1-2.6h-3.8v18.2h4.5c3.4,0,5-0.6,6.5-2.5c1.2-1.6,1.9-3.7,1.9-6.5
	C404.4,336,403.8,333.8,402.5,332.3z M396.6,345.4h-2v-13.3h1.9c1.6,0,2.6,0.4,3.4,1.6c0.9,1.3,1.2,3.1,1.2,5.5
	C401.1,343.3,399.8,345.4,396.6,345.4z"></path>
<path class="st0" d="M386.2,330.6c-1-0.6-2-0.9-4.6-0.9h-4.8v18.2h3V341h3.1c3.3,0,5.9-2.2,5.9-5.8
	C388.7,333.2,387.8,331.5,386.2,330.6z M382.1,338.5h-2.4v-6.4h2.4c1.2,0,2,0.3,2.5,0.9c0.5,0.5,0.7,1.3,0.7,2.3
	C385.4,337.5,384.4,338.5,382.1,338.5z"></path>
<path class="st0" d="M372.3,342.8v-13.1h-3v12.2c0,2.4-1.1,3.7-3.3,3.7c-2.2,0-3.2-0.9-3.2-3.7v-12.2h-3v13.1c0,2.9,1.5,5.4,6.3,5.4
	C370,348.2,372.3,346.1,372.3,342.8"></path>
<rect x="347.4" y="328" class="st0" width="2.6" height="20.3"></rect>
<path class="st0" d="M337.7,343.3V329l-2.9-0.4v4.9c0,1.2,0.1,2.2,0.1,2.2c-0.8-0.8-1.7-1.2-2.9-1.2c-3.2,0-5.5,2.8-5.5,7
	c0,4.1,2,6.8,5.4,6.8c1.3,0,2.4-0.4,3.3-1.3c0.1,0.5,0.1,0.7,0.2,1h2.6C337.9,347.2,337.7,345.9,337.7,343.3z M334.9,344.5
	c-0.4,0.7-1.3,1.3-2.3,1.3c-2.2,0-2.8-1.5-2.8-4.4c0-3.2,0.8-4.7,2.7-4.7c1,0,1.8,0.4,2.4,1.1L334.9,344.5L334.9,344.5z"></path>
<path class="st0" d="M323.5,347.9V338c0-2.4-1.4-3.7-3.5-3.7c-1.4,0-2.7,0.6-4.1,1.8c0-0.7-0.2-1.3-0.5-1.9l-2.6,0.7
	c0.4,0.9,0.5,1.8,0.5,3.1v9.8h2.8v-9.6c0.9-0.9,2.1-1.5,2.9-1.5c1.1,0,1.5,0.5,1.5,2.3v8.8h3V347.9z"></path>
<path class="st0" d="M309.3,343.5l0.1-3.8c0-2,0-2.7-0.2-3.3c-0.6-1.4-2-2.2-4-2.2s-3.6,0.5-5.6,1.8l1.3,2.1c0,0,2-1.5,4-1.5
	c1.6,0,1.8,0.8,1.8,2.3v0.7h-0.9c-4.3,0-6.6,1.5-6.6,4.6c0,2.3,1.4,4,4.4,4c1.4,0,2.6-0.4,3.6-1.6c0.3,0.8,1,1.5,1.8,1.8l1.5-1.8
	C309.4,345.9,309.2,345.3,309.3,343.5z M306.4,344.8c-0.6,0.8-1.5,1.4-2.4,1.4c-1.2,0-1.8-0.8-1.8-2c0-1.7,0.9-2.5,3.8-2.5
	c0.2,0,0.5,0,0.5,0L306.4,344.8z"></path>
<path class="st0" d="M297.1,347.9l-0.5-1.8c-0.3,0.2-0.8,0-0.9-0.2c-0.2-0.3-0.3-0.6-0.3-2.4v-11.3c0-1.7,0-2.8-0.2-3.6l-3,0.7
	c0.2,1.1,0.3,2.1,0.3,3.9v11.3c0,1.1,0,3.7,2.9,3.7C296.1,348.2,296.6,348.1,297.1,347.9"></path>
<path class="st0" d="M288.7,347.9v-9.4c0-1.3-0.1-1.9-0.4-2.6c-0.4-0.9-1.7-1.6-3.2-1.6c-1.4,0-2.8,0.5-4.1,1.7c0,0,0.1-0.7,0.1-1.5
	v-2.8c0-1.3-0.1-2.4-0.3-3.1l-2.9,0.6c0.2,0.7,0.3,1.7,0.3,2.9v15.8h2.9v-9.5c0.9-1,2.2-1.6,3.2-1.6c1.1,0,1.7,0.5,1.7,2.1v9
	L288.7,347.9L288.7,347.9z"></path>
<path class="st0" d="M275.7,346.5l-1.4-1.8c-0.9,0.9-1.8,1.3-2.7,1.3c-0.7,0-1.3-0.3-1.8-0.8c-0.6-0.7-0.9-1.8-0.9-3.6
	c0-1.7,0.2-2.9,0.5-3.7c0.4-0.9,1.2-1.3,2.1-1.3c0.8,0,1.4,0.3,2.2,1l1.4-1.9c-1.2-1.1-2.2-1.4-3.7-1.4c-3,0-5.8,2.3-5.8,7.1
	c0,4.3,2,6.8,5.6,6.8C273.2,348.2,274.4,347.7,275.7,346.5"></path>
<path class="st0" d="M263.6,343.7c0-1.5-0.7-3-3.4-3.7l-1.7-0.4c-1.3-0.3-1.8-0.8-1.8-1.6c0-1,0.8-1.7,2-1.7c1.1,0,2,0.3,3.3,1
	l0.9-2c-1.1-0.6-2.6-1.2-4.4-1.2c-2.9,0-4.9,1.7-4.9,4.2c0,1.9,1.2,3.2,3.2,3.6l1.6,0.3c1.5,0.3,2.2,0.8,2.2,1.9s-0.9,1.9-2.2,1.9
	c-1.5,0-3.1-0.7-4.3-1.4l-1,2.1c1.7,0.9,3.5,1.5,5.1,1.5C261.4,348.3,263.6,346.4,263.6,343.7"></path>
<path class="st0" d="M248.9,330.6l-3,0.7c-0.1,1-0.1,2.2-0.1,3.3h-1.5v2h1.5v8.2c0,1.9,0.9,3.4,3.5,3.4c0.9,0,1.7-0.2,2.6-0.6
	l-0.4-1.7c-0.5,0.2-0.8,0.3-1.2,0.3c-1.3,0-1.6-0.5-1.6-2.1v-7.5h2.4l0.8-2h-3.2C248.6,333.3,248.7,331.7,248.9,330.6"></path>
<path class="st0" d="M242.5,346.9c0,0-0.8-0.7-0.8-2.6v-10l-2.8,0.5v9.5c-0.4,0.9-1.6,1.7-2.6,1.7c-1.7,0-1.9-1.2-1.9-2.9v-8.9
	l-2.8,0.5v9c0,1.7,0.2,2.5,0.7,3.1c0.7,0.8,1.8,1.3,3.3,1.3s2.8-0.5,3.8-1.6c0.2,0.8,0.6,1.2,1.2,1.6L242.5,346.9z"></path>
<path class="st0" d="M228.5,342v-0.6c0-3.1-0.6-4.7-1.7-5.8c-1.1-1-2.3-1.4-3.6-1.4c-1.7,0-3,0.5-4.1,1.8c-1.2,1.3-1.7,2.9-1.7,5.2
	c0,4.3,2.4,7,6.1,7c1.8,0,3.4-0.6,4.8-1.8l-1.1-1.8c-1,0.9-2.1,1.3-3.3,1.3c-2.6,0-3.3-1.9-3.3-3.8v-0.2L228.5,342L228.5,342z
	 M223.1,336.5c1.4,0,2.4,1.3,2.4,3.4h-4.9C220.6,337.8,221.5,336.5,223.1,336.5z"></path>
<path class="st0" d="M212.9,332.3c-1.7-1.9-3.7-2.6-7.1-2.6H202v18.2h4.5c3.4,0,5-0.6,6.5-2.5c1.2-1.6,1.9-3.7,1.9-6.5
	C214.9,336,214.2,333.8,212.9,332.3z M207,345.4h-2v-13.3h1.9c1.6,0,2.6,0.4,3.4,1.6c0.9,1.3,1.2,3.1,1.2,5.5
	C211.5,343.3,210.2,345.4,207,345.4z"></path>
<path class="st0" d="M400,305.5c1.5,0,2.3,0.8,2.3,2.3s-0.8,2.3-2.3,2.3c-1.4,0-2.3-0.7-2.3-2.2C397.7,306.3,398.6,305.5,400,305.5
	 M407.8,304.9l-1.3-1.8c-0.7,0.6-1.5,0.9-2.4,0.9c-1.1,0-2.2-0.7-4-0.7c-3.2,0-5.3,1.8-5.3,4.5c0,1.9,1,3.2,3,3.7
	c-1.4,0.4-2.5,1-2.5,2.3s0.8,2,4.4,2c2.5,0,3.7,0.4,3.7,1.8c0,1.2-1.1,2.1-3.2,2.1c-1.9,0-2.9-0.7-2.9-1.9c0-0.4,0.2-0.9,0.2-0.9
	h-2.7c0,0-0.3,0.8-0.3,1.4c0,2.5,2.5,3.6,5.9,3.6c3.5,0,5.9-1.5,5.9-4.4c0-2.7-2.3-3.8-4.4-3.8c-3.1,0-3.3-0.1-3.3-0.6
	c0-0.4,0.8-0.9,1.8-1.3c3.1,0,5-1.8,5-4.1c0-1.4-0.9-2.3-0.9-2.3s0.4,0.2,1,0.2C406.4,305.8,407.1,305.6,407.8,304.9 M391.5,316.9
	V307c0-2.4-1.4-3.7-3.5-3.7c-1.4,0-2.7,0.6-4.1,1.8c0-0.7-0.2-1.3-0.5-1.9l-2.6,0.7c0.4,0.9,0.5,1.8,0.5,3.1v9.8h2.8v-9.6
	c0.9-0.9,2.1-1.5,2.9-1.5c1.1,0,1.5,0.5,1.5,2.3v8.8h3V316.9z M378,316c0,0-0.8-0.7-0.8-2.6v-10l-2.8,0.5v9.5
	c-0.4,0.9-1.6,1.7-2.6,1.7c-1.7,0-1.9-1.2-1.9-2.9v-8.9l-2.8,0.5v9c0,1.7,0.2,2.5,0.7,3.1c0.7,0.8,1.8,1.3,3.3,1.3s2.8-0.5,3.8-1.6
	c0.2,0.8,0.6,1.2,1.2,1.7L378,316z M361.6,299.7l-3,0.7c-0.1,1-0.1,2.2-0.1,3.3H357v2h1.5v8.2c0,1.9,0.9,3.4,3.5,3.4
	c0.9,0,1.7-0.2,2.6-0.6l-0.4-1.7c-0.5,0.2-0.8,0.3-1.2,0.3c-1.3,0-1.6-0.5-1.6-2.1v-7.5h2.4l0.8-2h-3.2
	C361.3,302.4,361.5,300.8,361.6,299.7 M351.6,310.7l-0.1,3.2c-0.6,0.8-1.5,1.4-2.4,1.4c-1.2,0-1.8-0.8-1.8-2c0-1.7,0.9-2.5,3.8-2.5
	C351.3,310.7,351.6,310.7,351.6,310.7 M355.6,315.7c-1-0.7-1.2-1.3-1.2-3.1l0.1-3.8c0-2,0-2.7-0.2-3.3c-0.6-1.4-2-2.2-4-2.2
	s-3.6,0.5-5.6,1.8l1.3,2.1c0,0,2-1.5,4-1.5c1.6,0,1.8,0.8,1.8,2.3v0.7h-0.9c-4.3,0-6.6,1.5-6.6,4.6c0,2.3,1.4,4,4.4,4
	c1.4,0,2.6-0.4,3.6-1.6c0.3,0.8,1,1.5,1.8,1.8L355.6,315.7z M343.4,303.5c-0.3-0.2-0.6-0.2-1-0.2c-1.3,0-2.3,0.7-3.4,2.1
	c0-0.7-0.2-1.5-0.5-2.1l-2.6,0.7c0.3,0.8,0.5,1.9,0.5,3.6v9.4h2.9v-9c0.3-1.1,1.3-2,2.5-2c0.3,0,0.5,0.1,0.8,0.2L343.4,303.5z
	 M330.2,309h-4.9c0-2.2,0.9-3.4,2.5-3.4C329.2,305.5,330.2,306.8,330.2,309 M333.2,311.1v-0.6c0-3.1-0.6-4.7-1.7-5.8
	c-1.1-1-2.3-1.4-3.6-1.4c-1.7,0-3,0.5-4.1,1.8c-1.2,1.3-1.7,2.9-1.7,5.2c0,4.3,2.4,7,6.1,7c1.8,0,3.4-0.6,4.8-1.8l-1.1-1.8
	c-1,0.9-2.1,1.3-3.3,1.3c-2.6,0-3.3-1.9-3.3-3.8V311L333.2,311.1L333.2,311.1z M316.6,310.1c0,3.3-0.8,4.6-2.6,4.6
	c-1.1,0-1.9-0.6-2.5-1.2V307c0.5-0.7,1.3-1.3,2.5-1.3C316.1,305.8,316.6,307.7,316.6,310.1 M319.9,310.1c0-4.1-2-6.7-5.2-6.7
	c-1.3,0-2.2,0.4-3.2,1.3h-0.1c0,0,0.1-0.4,0.1-1.3v-3.1c0-1-0.1-1.7-0.2-2.6l-3,0.7c0.2,0.7,0.3,1.7,0.3,3.2v12.5
	c0,1.8-0.1,2.4-0.3,3h2.6c0.2-0.4,0.2-0.5,0.4-1.2c0.8,1,1.9,1.5,3.2,1.5C317.7,317.2,319.9,314.3,319.9,310.1 M304.7,316.9V307
	c0-2.4-1.4-3.7-3.5-3.7c-1.4,0-2.7,0.6-4.1,1.8c0-0.7-0.2-1.3-0.5-1.9l-2.6,0.7c0.4,0.9,0.5,1.8,0.5,3.1v9.8h2.8v-9.6
	c0.9-0.9,2.1-1.5,2.9-1.5c1.1,0,1.5,0.5,1.5,2.3v8.8h3V316.9z M288.4,309h-4.9c0-2.2,0.9-3.4,2.5-3.4
	C287.5,305.5,288.4,306.8,288.4,309 M291.4,311.1v-0.6c0-3.1-0.6-4.7-1.7-5.8c-1.1-1-2.3-1.4-3.6-1.4c-1.7,0-3,0.5-4.1,1.8
	c-1.2,1.3-1.6,2.9-1.6,5.2c0,4.3,2.4,7,6.1,7c1.8,0,3.4-0.6,4.8-1.8l-1.1-1.8c-1,0.9-2.1,1.3-3.3,1.3c-2.6,0-3.3-1.9-3.3-3.8V311
	L291.4,311.1L291.4,311.1z M275.6,299.7l-3,0.7c-0.1,1-0.1,2.2-0.1,3.3H271v2h1.5v8.2c0,1.9,0.9,3.4,3.5,3.4c0.9,0,1.7-0.2,2.6-0.6
	l-0.4-1.7c-0.5,0.2-0.8,0.3-1.2,0.3c-1.3,0-1.6-0.5-1.6-2.1v-7.5h2.4l0.8-2h-3.2C275.4,302.4,275.5,300.8,275.6,299.7 M268.7,316.9
	V307c0-2.4-1.4-3.7-3.5-3.7c-1.4,0-2.7,0.6-4.1,1.8c0-0.7-0.2-1.3-0.5-1.9l-2.6,0.7c0.4,0.9,0.5,1.8,0.5,3.1v9.8h2.8v-9.6
	c0.9-0.9,2.1-1.5,2.9-1.5c1.1,0,1.5,0.5,1.5,2.3v8.8h3V316.9z M252.3,309h-4.9c0-2.2,0.9-3.4,2.5-3.4
	C251.4,305.5,252.3,306.8,252.3,309 M255.3,311.1v-0.6c0-3.1-0.6-4.7-1.7-5.8c-1.1-1-2.3-1.4-3.6-1.4c-1.7,0-3,0.5-4.1,1.8
	c-1.2,1.3-1.7,2.9-1.7,5.2c0,4.3,2.4,7,6.1,7c1.8,0,3.4-0.6,4.8-1.8l-1.1-1.8c-1,0.9-2.1,1.3-3.3,1.3c-2.6,0-3.3-1.9-3.3-3.8V311
	L255.3,311.1L255.3,311.1z M241.1,316.9v-13.6l-2.9,0.5v13.1H241.1z M239.7,301.7c1.1,0,1.9-0.9,1.9-1.9c0-1.1-0.9-1.9-1.9-1.9
	c-1.1,0-1.9,0.9-1.9,1.9C237.8,300.8,238.6,301.7,239.7,301.7 M232.7,299.7l-3,0.7c-0.1,1-0.1,2.2-0.1,3.3h-1.5v2h1.5v8.2
	c0,1.9,0.9,3.4,3.5,3.4c0.9,0,1.7-0.2,2.6-0.6l-0.4-1.7c-0.5,0.2-0.8,0.3-1.2,0.3c-1.3,0-1.6-0.5-1.6-2.1v-7.5h2.4l0.8-2h-3.2
	C232.4,302.4,232.5,300.8,232.7,299.7 M222.7,310.7l-0.1,3.2c-0.6,0.8-1.5,1.4-2.4,1.4c-1.2,0-1.8-0.8-1.8-2c0-1.7,0.9-2.5,3.8-2.5
	C222.4,310.7,222.7,310.7,222.7,310.7 M226.6,315.7c-1-0.7-1.2-1.3-1.2-3.1l0.1-3.8c0-2,0-2.7-0.2-3.3c-0.6-1.4-2-2.2-4-2.2
	s-3.6,0.5-5.6,1.8l1.3,2.1c0,0,2-1.5,4-1.5c1.6,0,1.8,0.8,1.8,2.3v0.7h-0.9c-4.3,0-6.6,1.5-6.6,4.6c0,2.3,1.4,4,4.4,4
	c1.4,0,2.6-0.4,3.6-1.6c0.3,0.8,1,1.5,1.8,1.8L226.6,315.7z M207.3,301.2c1.2,0,2,0.3,2.5,0.9c0.5,0.5,0.7,1.3,0.7,2.3
	c0,2.2-1,3.2-3.3,3.2H205v-6.4H207.3z M213.9,304.2c0-2-0.9-3.6-2.5-4.6c-1-0.6-2-0.9-4.6-0.9H202v18.2h3V310h3.1
	C211.3,310,213.9,307.8,213.9,304.2"></path>
<path class="st0" d="M344.7,278.2h-4.9c0-2.2,0.9-3.4,2.5-3.4C343.8,274.8,344.7,276.1,344.7,278.2 M347.7,280.3v-0.6
	c0-3.1-0.6-4.7-1.7-5.8c-1.1-1-2.3-1.4-3.6-1.4c-1.7,0-3,0.5-4.1,1.8c-1.2,1.3-1.7,2.9-1.7,5.2c0,4.3,2.4,7,6.1,7
	c1.8,0,3.4-0.6,4.8-1.8l-1.1-1.8c-1,0.9-2.1,1.3-3.3,1.3c-2.6,0-3.3-1.9-3.3-3.8v-0.2L347.7,280.3L347.7,280.3z M328.1,274.8
	c1.5,0,2.3,0.8,2.3,2.3s-0.8,2.3-2.3,2.3c-1.4,0-2.3-0.7-2.3-2.2C325.8,275.6,326.6,274.8,328.1,274.8 M335.9,274.2l-1.3-1.8
	c-0.7,0.6-1.5,0.9-2.4,0.9c-1.1,0-2.2-0.7-4-0.7c-3.2,0-5.3,1.8-5.3,4.5c0,1.9,1,3.2,3,3.8c-1.4,0.4-2.5,1-2.5,2.3s0.8,2,4.4,2
	c2.5,0,3.7,0.4,3.7,1.8c0,1.2-1.1,2.1-3.2,2.1c-1.9,0-2.9-0.7-2.9-1.9c0-0.4,0.2-0.9,0.2-0.9h-2.7c0,0-0.3,0.8-0.3,1.4
	c0,2.5,2.5,3.6,5.9,3.6c3.5,0,5.9-1.5,5.9-4.4c0-2.7-2.3-3.8-4.4-3.8c-3.1,0-3.3-0.1-3.3-0.5s0.8-0.9,1.8-1.3c3.1,0,5-1.8,5-4.1
	c0-1.4-0.9-2.3-0.9-2.3s0.4,0.2,1,0.2C334.5,275,335.2,274.8,335.9,274.2 M319.4,286.2v-13.6l-2.9,0.5v13.1H319.4z M318,270.9
	c1.1,0,1.9-0.9,1.9-1.9c0-1.1-0.9-1.9-1.9-1.9c-1.1,0-1.9,0.9-1.9,1.9C316.1,270.1,316.9,270.9,318,270.9 M307.1,274.8
	c1.5,0,2.3,0.8,2.3,2.3s-0.8,2.3-2.3,2.3c-1.4,0-2.3-0.7-2.3-2.2C304.8,275.6,305.6,274.8,307.1,274.8 M314.9,274.2l-1.3-1.8
	c-0.7,0.6-1.5,0.9-2.4,0.9c-1.1,0-2.2-0.7-4-0.7c-3.2,0-5.3,1.8-5.3,4.5c0,1.9,1,3.2,3,3.8c-1.4,0.4-2.5,1-2.5,2.3s0.8,2,4.4,2
	c2.5,0,3.7,0.4,3.7,1.8c0,1.2-1.1,2.1-3.2,2.1c-1.9,0-2.9-0.7-2.9-1.9c0-0.4,0.2-0.9,0.2-0.9h-2.7c0,0-0.3,0.8-0.3,1.4
	c0,2.5,2.5,3.6,5.9,3.6c3.5,0,5.9-1.5,5.9-4.4c0-2.7-2.3-3.8-4.4-3.8c-3.1,0-3.3-0.1-3.3-0.5s0.8-0.9,1.8-1.3c3.1,0,5-1.8,5-4.1
	c0-1.4-0.9-2.3-0.9-2.3s0.4,0.2,1,0.2C313.5,275,314.2,274.8,314.9,274.2 M298.5,286.2v-9.9c0-2.4-1.4-3.7-3.5-3.7
	c-1.4,0-2.7,0.6-4.1,1.8c0-0.7-0.2-1.3-0.5-1.9l-2.6,0.7c0.4,0.9,0.5,1.8,0.5,3.1v9.8h2.8v-9.6c0.9-0.9,2.1-1.5,2.9-1.5
	c1.1,0,1.5,0.5,1.5,2.3v8.8h3V286.2z M278.5,269.7c0-1-0.8-1.8-1.8-1.8s-1.8,0.8-1.8,1.8s0.8,1.8,1.8,1.8
	C277.8,271.5,278.5,270.7,278.5,269.7 M284.1,269.7c0-1-0.8-1.8-1.8-1.8s-1.8,0.8-1.8,1.8s0.8,1.8,1.8,1.8
	C283.2,271.5,284.1,270.7,284.1,269.7 M281.5,279.9l-0.1,3.2c-0.6,0.8-1.5,1.4-2.4,1.4c-1.2,0-1.8-0.8-1.8-2c0-1.7,0.9-2.5,3.8-2.5
	C281.1,279.9,281.5,279.9,281.5,279.9 M285.4,284.9c-1-0.7-1.2-1.3-1.2-3.1l0.1-3.8c0-2,0-2.7-0.2-3.3c-0.6-1.4-2-2.2-4-2.2
	s-3.6,0.5-5.6,1.8l1.3,2.1c0,0,2-1.5,4-1.5c1.6,0,1.8,0.8,1.8,2.3v0.7h-0.9c-4.3,0-6.6,1.5-6.6,4.6c0,2.3,1.4,4,4.4,4
	c1.4,0,2.6-0.4,3.6-1.6c0.3,0.8,1,1.5,1.8,1.8L285.4,284.9z M271.1,286.2v-9.4c0-1.3-0.1-1.9-0.4-2.6c-0.4-0.9-1.6-1.6-3.2-1.6
	c-1.4,0-2.8,0.5-4.1,1.7c0,0,0.1-0.7,0.1-1.5V270c0-1.3-0.1-2.4-0.3-3.1l-2.9,0.6c0.2,0.7,0.3,1.7,0.3,2.9v15.8h2.9v-9.5
	c0.9-1,2.2-1.6,3.2-1.6c1.1,0,1.7,0.5,1.7,2.1v9H271.1z M254.1,279.4c0,3.3-0.8,4.6-2.6,4.6c-1.1,0-1.9-0.5-2.5-1.2v-6.5
	c0.5-0.7,1.3-1.3,2.5-1.3C253.7,275,254.1,277,254.1,279.4 M257.4,279.3c0-4.1-2-6.7-5.2-6.7c-1.3,0-2.2,0.4-3.2,1.3h-0.1
	c0,0,0.1-0.4,0.1-1.3v-3.1c0-1.1-0.1-1.7-0.2-2.6l-3,0.7c0.2,0.7,0.3,1.7,0.3,3.2v12.5c0,1.8-0.1,2.4-0.3,3h2.6
	c0.2-0.4,0.2-0.6,0.4-1.2c0.8,1,1.9,1.5,3.2,1.5C255.2,286.5,257.4,283.6,257.4,279.3 M239.3,279.9l-0.1,3.2
	c-0.6,0.8-1.5,1.4-2.4,1.4c-1.2,0-1.8-0.8-1.8-2c0-1.7,0.9-2.5,3.8-2.5C239,279.9,239.3,279.9,239.3,279.9 M243.2,284.9
	c-1-0.7-1.2-1.3-1.2-3.1l0.1-3.8c0-2,0-2.7-0.2-3.3c-0.6-1.4-2-2.2-4-2.2s-3.6,0.5-5.6,1.8l1.3,2.1c0,0,2-1.5,4-1.5
	c1.6,0,1.8,0.8,1.8,2.3v0.7h-0.9c-4.3,0-6.6,1.5-6.6,4.6c0,2.3,1.4,4,4.4,4c1.4,0,2.6-0.4,3.6-1.6c0.3,0.8,1,1.5,1.8,1.8
	L243.2,284.9z M228.8,286.2v-9.9c0-2.4-1.4-3.7-3.5-3.7c-1.4,0-2.7,0.6-4.1,1.8c0-0.7-0.2-1.3-0.5-1.9l-2.6,0.7
	c0.4,0.9,0.5,1.8,0.5,3.1v9.8h2.8v-9.6c0.9-0.9,2.1-1.5,2.9-1.5c1.1,0,1.5,0.5,1.5,2.3v8.8h3V286.2z M214.5,281.1V268h-3v12.2
	c0,2.4-1.1,3.7-3.3,3.7c-2.2,0-3.2-0.9-3.2-3.7V268h-3v13.1c0,2.9,1.5,5.4,6.3,5.4C212.2,286.5,214.5,284.4,214.5,281.1"></path>
</svg>