<?xml version="1.0" ?><svg height="25px" version="1.1" viewBox="0 0 25 25" width="25px" xmlns="http://www.w3.org/2000/svg" xmlns:sketch="http://www.bohemiancoding.com/sketch/ns" xmlns:xlink="http://www.w3.org/1999/xlink"><title/><desc/><defs/><g fill="none" fill-rule="evenodd" id="TabBar-Icons" stroke="none" stroke-width="1"><g fill="#000000" id="Documents"><path d="M7,3 L7,2 L8,2 L8,2 L8,1 L21,1 L21,21 L20,21 L20,22 L19,22 L19,3 L7,3 L7,0 L22,0 L22,22 L19,22 L19,25 L3,25 L3,3 L7,3 L7,3 L7,3 Z M4,4 L18,4 L18,24 L4,24 L4,4 L4,4 Z M6,6 L16,6 L16,7 L6,7 L6,6 L6,6 Z M6,9 L16,9 L16,10 L6,10 L6,9 L6,9 Z M6,12 L16,12 L16,13 L6,13 L6,12 L6,12 Z M6,15 L16,15 L16,16 L6,16 L6,15 L6,15 Z M6,18 L16,18 L16,19 L6,19 L6,18 L6,18 Z M6,21 L16,21 L16,22 L6,22 L6,21 L6,21 Z" id="Orders"/></g></g></svg>