<svg viewBox="150 22 101 27" version="1.1" xmlns="http://www.w3.org/2000/svg" xmlns:xlink="http://www.w3.org/1999/xlink">
    <desc>Oygo</desc>
    <defs>
        <polygon id="path-1" points="0.00889867841 26.5388253 100.882093 26.5388253 100.882093 0.105004405 0.00889867841 0.105004405"></polygon>
    </defs>
    <g id="2013_OYGO_Logo_Blau_solo" stroke="none" stroke-width="1" fill="none" fill-rule="evenodd" transform="translate(150.000000, 22.000000)">
        <mask id="mask-2" fill="white">
            <use xlink:href="#path-1"></use>
        </mask>
        <g id="Clip-2"></g>
        <path d="M13.3416402,4.35234361 C10.8743333,4.35234361 8.76238032,5.22293098 7.0648091,6.93978267 C5.36516153,8.63794714 4.50421439,10.764583 4.50421439,13.2621454 C4.50421439,15.8847342 5.39571366,18.0690631 7.15409251,19.7543245 C8.90698385,21.4440352 10.9562012,22.300533 13.2453862,22.300533 C15.7340499,22.300533 17.8624655,21.429649 19.5714567,19.7122041 C21.2801512,17.9742922 22.1471791,15.8254097 22.1471791,13.3263642 C22.1471791,10.796025 21.2911263,8.64743906 19.6026021,6.93978267 C17.9246079,5.22233774 15.8185874,4.35234361 13.3416402,4.35234361 L13.3416402,4.35234361 Z M87.5723392,4.35234361 C85.1050323,4.35234361 82.9932276,5.22293098 81.2958047,6.93978267 C79.5960088,8.63794714 78.7349134,10.764583 78.7349134,13.2621454 C78.7349134,15.8847342 79.6267093,18.0689148 81.3849398,19.7543245 C83.1376828,21.4440352 85.1867518,22.300533 87.4759369,22.300533 C89.9650455,22.300533 92.0933128,21.429649 93.802304,19.7122041 C95.5105536,17.9744405 96.3778781,15.8254097 96.3778781,13.3263642 C96.3778781,10.796025 95.5219736,8.64743906 93.8335977,6.93978267 C92.1554552,5.22233774 90.0494347,4.35234361 87.5723392,4.35234361 L87.5723392,4.35234361 Z M38.7608634,26.0980441 L34.2888326,26.0980441 L34.2888326,15.1182614 L25.9286725,0.57085022 L31.0752232,0.57085022 L36.5332276,10.1108267 L42.0068047,0.57085022 L47.1543935,0.57085022 L38.7608634,15.118558 L38.7608634,26.0980441 L38.7608634,26.0980441 Z M13.197185,26.5477239 C9.92009838,26.5477239 6.93785463,25.3990529 4.33321145,23.1335977 C1.45775184,20.6204626 0,17.2858311 0,13.2221013 C0,9.64601909 1.32827606,6.5322232 3.9481953,3.96732746 C6.55417327,1.40465639 9.73100147,0.105004405 13.3898414,0.105004405 C17.0067093,0.105004405 20.1517988,1.41622467 22.7381997,4.00218062 C25.3345374,6.58783994 26.6513935,9.73871366 26.6513935,13.3664082 C26.6513935,17.0173877 25.3283084,20.1583245 22.7187709,22.7020117 C20.101373,25.2537078 16.8978488,26.5477239 13.197185,26.5477239 L13.197185,26.5477239 Z M87.427884,26.5477239 C84.1509457,26.5477239 81.168257,25.3990529 78.5640587,23.1335977 C75.6883025,20.6203142 74.230699,17.2858311 74.230699,13.2221013 C74.230699,9.64601909 75.5591233,6.5322232 78.178746,3.96732746 C80.7850206,1.40465639 83.9618488,0.105004405 87.620837,0.105004405 C91.2375565,0.105004405 94.3826461,1.41622467 96.9688987,4.00218062 C99.5652364,6.58783994 100.882093,9.73856535 100.882093,13.3664082 C100.882093,17.0173877 99.5591557,20.1581762 96.9494699,22.7020117 C94.3319236,25.2537078 91.1282511,26.5477239 87.427884,26.5477239 L87.427884,26.5477239 Z" id="Fill-1" fill="#00677D" mask="url(#mask-2)"></path>
        <path d="M60.3382305,26.5475756 C56.5625213,26.5475756 53.1314875,25.3094728 50.6763421,23.0612217 C48.0644317,20.6686637 46.6835051,17.3186079 46.6835051,13.3735272 C46.6835051,9.39581791 48.0641351,6.02381204 50.6760455,3.6216138 C53.1271865,1.36698532 56.5588135,0.125471366 60.3382305,0.125471366 C64.0829427,0.125471366 67.2839457,1.28304112 70.1252937,3.66417915 L70.3040088,3.81397357 L68.1644699,7.23714684 L67.9271718,7.02980764 C65.7588605,5.13246109 63.3709001,4.24867401 60.4119413,4.24867401 C54.8880866,4.24867401 51.1764479,7.91567107 51.1764479,13.3735272 C51.1764479,16.1137269 52.1060631,18.4190778 53.8638488,20.040862 C55.5301263,21.577812 57.9080015,22.424373 60.5602526,22.424373 C62.7849222,22.424373 65.1049559,21.8072496 66.8004508,20.7687739 L66.8004508,15.4535932 L58.9976446,15.4535932 L58.9976446,11.5522643 L71.1824567,11.5522643 L71.1824567,23.0824302 L71.0790837,23.162815 C68.5574949,25.1240837 64.0399325,26.5475756 60.3382305,26.5475756" id="Fill-3" fill="#00677D" mask="url(#mask-2)"></path>
    </g>
</svg>