<?xml version="1.0" standalone="no"?>
<!DOCTYPE svg PUBLIC "-//W3C//DTD SVG 20010904//EN"
 "http://www.w3.org/TR/2001/REC-SVG-20010904/DTD/svg10.dtd">
<svg version="1.0" xmlns="http://www.w3.org/2000/svg"
 width="353.000000pt" height="353.000000pt" viewBox="0 0 353.000000 353.000000"
 preserveAspectRatio="xMidYMid meet">
<metadata>
Created by potrace 1.11, written by Peter Selinger 2001-2013
</metadata>
<g transform="translate(0.000000,353.000000) scale(0.100000,-0.100000)"
fill="#000000" stroke="none">
<path d="M2513 3427 c-34 -12 -66 -26 -71 -32 -5 -5 -30 -67 -57 -137 -26 -71
-51 -129 -54 -129 -3 -1 -55 -2 -116 -3 l-110 -1 -165 -92 c-272 -150 -341
-185 -354 -180 -12 5 -598 440 -695 516 l-35 27 -49 -55 c-88 -99 -121 -136
-182 -206 -33 -38 -78 -90 -101 -115 -140 -155 -507 -575 -511 -586 -4 -10
103 -161 240 -339 4 -5 107 -143 228 -305 121 -162 225 -302 232 -310 15 -19
314 -419 681 -910 393 -526 377 -506 388 -485 8 13 188 264 366 510 34 48 208
290 395 550 75 105 140 195 144 200 5 6 53 73 108 150 54 77 108 152 119 166
12 14 28 36 36 49 8 12 23 33 33 46 10 13 16 28 12 34 -3 5 -64 53 -136 106
-72 53 -126 100 -122 104 4 4 154 55 333 114 l325 107 66 71 67 71 -13 36
c-10 30 -39 55 -176 154 -90 65 -170 122 -177 126 -10 6 -14 31 -14 83 l0 76
-214 182 c-118 100 -215 186 -215 191 -1 5 -2 45 -3 90 l-1 80 -55 35 c-30 19
-61 34 -70 33 -8 0 -43 -10 -77 -22z m-1581 -434 c2 -5 50 -44 108 -87 193
-146 315 -239 324 -247 7 -6 -199 -290 -328 -452 -16 -21 -31 -43 -32 -50 -1
-7 -24 -82 -49 -167 -26 -85 -52 -174 -58 -197 -6 -24 -14 -43 -18 -43 -4 0
-48 55 -98 123 -50 67 -94 127 -98 132 -44 55 -304 407 -306 414 -1 4 48 62
108 127 61 65 135 145 165 178 30 33 68 74 84 90 15 17 60 66 99 109 65 71 90
89 99 70z m878 -979 c0 -24 -25 -15 -43 15 -24 41 -21 45 13 21 17 -12 30 -28
30 -36z m-223 10 c27 -21 32 -29 22 -40 -19 -23 -36 -16 -53 20 -26 55 -20 59
31 20z m503 -20 c0 -23 -26 -16 -38 11 -17 36 -15 38 13 19 14 -9 25 -23 25
-30z m-104 -45 c32 -30 56 -85 57 -129 1 -44 -43 -126 -74 -135 -31 -10 -64
18 -84 72 -10 26 -26 59 -37 72 -20 26 -24 81 -8 111 27 51 97 55 146 9z m248
-58 c40 -41 41 -95 4 -123 -34 -26 -65 -19 -112 26 -44 41 -47 76 -10 105 39
31 84 27 118 -8z m-466 -64 c50 -48 95 -123 87 -145 -3 -11 -23 -31 -44 -45
-38 -25 -39 -25 -67 -8 -35 21 -105 104 -122 144 -15 34 1 73 37 92 32 16 64
5 109 -38z m-329 7 c35 -29 38 -39 15 -48 -21 -8 -40 8 -53 45 -12 36 -2 37
38 3z m115 -137 c37 -24 95 -90 112 -126 15 -30 15 -38 3 -59 -20 -34 -61 -56
-92 -48 -56 14 -147 122 -147 174 0 13 13 37 29 52 30 31 55 33 95 7z m804
-50 c42 -16 87 -59 100 -96 10 -29 1 -43 -250 -376 l-260 -347 -31 7 c-18 3
-39 8 -47 10 -8 2 -46 11 -85 20 -85 20 -128 45 -166 98 -37 52 -38 95 -3 128
42 38 65 101 66 177 0 37 7 80 15 95 15 29 69 67 188 132 39 21 90 52 115 70
25 18 60 40 77 49 82 42 214 57 281 33z m-1024 -138 c30 -36 33 -49 9 -44 -10
2 -23 4 -30 4 -6 1 -16 13 -21 29 -5 15 -13 35 -17 46 -7 16 -5 17 12 7 12 -6
33 -24 47 -42z m170 -164 c47 -27 113 -92 117 -115 8 -43 -42 -86 -95 -82 -60
4 -157 91 -185 165 -29 75 59 93 163 32z"/>
</g>
</svg>
