<?xml version="1.0" encoding="utf-8"?>
<!-- Generator: Adobe Illustrator 23.0.3, SVG Export Plug-In . SVG Version: 6.00 Build 0)  -->
<svg version="1.1" id="gzly_logo" xmlns="http://www.w3.org/2000/svg" xmlns:xlink="http://www.w3.org/1999/xlink" x="0px" y="0px"
	 viewBox="0 0 352 338" style="enable-background:new 0 0 352 338;" xml:space="preserve">
<style type="text/css">
	.secondary{fill:#4889FF;}
	.primary{fill:#FFAA00;}
</style>
<g id="gzly_logo__inner">
    <g id="gzly_logo__window">
        <path id="gzly_logo__window" class="secondary" d="M176.5,338L0,102.4L85,5.9l214.7,160.7L176.5,338z M36.4,103l138.2,185.2l86.1-114L90.4,44.5L36.4,103z"/>
    </g>
        <g id="gzly_logo__polygons">
        <g id="gzly_logo__polygons_1">
            <polygon id="gzly_logo__polygon_1" class="primary" points="337.2,123.8 338.5,123.4 343.8,117.7 339.8,118.6 		"/>
            <polygon id="gzly_logo__polygon_2" class="primary" points="352,109 343.8,109.3 339.8,118.6 343.8,117.7 		"/>
            <polygon id="gzly_logo__polygon_3" class="primary" points="352,109 343.8,109.3 341.6,104.6 349.8,101.8 		"/>
        </g>
            <g id="gzly_logo__polygons_2">
            <polygon id="gzly_logo__polygon_4" class="primary" points="337.2,123.8 271.4,145.4 268.1,120.8 339.8,118.6 		"/>
                <polygon id="gzly_logo__polygon_5" class="primary" points="272.3,90.1 343.8,109.3 339.8,118.6 268.1,120.8 		"/>
                <polygon id="gzly_logo__polygon_6" class="primary" points="272.3,90.1 343.8,109.3 341.6,104.6 299.2,85.2 		"/>
                <polygon id="gzly_logo__polygon_7" class="primary" points="314.2,76.6 299.2,85.2 341.6,104.6 349.8,101.8 		"/>
                <polygon id="gzly_logo__polygon_8" class="primary" points="272.3,90.1 284.2,64.6 302.4,69.1 299.2,85.2 		"/>
                <polygon id="gzly_logo__polygon_9" class="primary" points="303.1,52.3 284.2,64.6 302.4,69.1 314.2,61.7 		"/>
        </g>
            <g id="gzly_logo__polygons_3">
            <polygon id="gzly_logo__polygon_10" class="primary" points="314.2,76.6 299.2,85.2 302.4,69.1 314.2,61.7 		"/>
        </g>
            <g id="gzly_logo__polygons_4">
            <polygon id="gzly_logo__polygon_11" class="primary" points="271.4,145.4 263.8,148 249.8,117.7 268.1,120.8 		"/>
                <polygon id="gzly_logo__polygon_12" class="primary" points="272.3,90.1 253,88.1 249.8,117.7 268.1,120.8 		"/>
                <polygon id="gzly_logo__polygon_13" class="primary" points="272.3,90.1 284.2,64.6 270.9,52.3 253,88.1 		"/>
                <polygon id="gzly_logo__polygon_14" class="primary" points="303.1,52.3 284.2,64.6 270.9,52.3 270.9,24.8 		"/>
        </g>
            <g id="gzly_logo__polygons_5">
            <polygon id="gzly_logo__polygon_15" class="primary" points="270.9,7.2 259.2,0 243.8,5 		"/>
                <polygon id="gzly_logo__polygon_16" class="primary" points="270.9,7.2 270.9,52.3 229.8,41.4 243.8,5 		"/>
                <polygon id="gzly_logo__polygon_17" class="primary" points="253,88.1 270.9,52.3 229.8,41.4 214.1,77.4 		"/>
                <polygon id="gzly_logo__polygon_18" class="primary" points="253,88.1 249.8,117.7 219.9,118.6 214.1,77.4 		"/>
                <polygon id="gzly_logo__polygon_19" class="primary" points="263.8,148 249.8,117.7 219.9,118.6 230.6,144.1 		"/>
        </g>
            <g id="gzly_logo__polygons_6">
            <polygon id="gzly_logo__polygon_20" class="primary" points="217.5,169.3 260.7,174.3 263.8,148 230.6,144.1 		"/>
                <polygon id="gzly_logo__polygon_21" class="primary" points="217.5,169.3 193.1,126.2 219.9,118.6 230.6,144.1 		"/>
                <polygon id="gzly_logo__polygon_22" class="primary" points="180.9,80.4 193.1,126.2 219.9,118.6 214.1,77.4 		"/>
                <polygon id="gzly_logo__polygon_23" class="primary" points="180.9,80.4 210.5,32.9 229.8,41.4 214.1,77.4 		"/>
                <polygon id="gzly_logo__polygon_24" class="primary" points="229.8,41.4 233.1,32.9 210.5,32.9 		"/>
        </g>
            <g id="gzly_logo__polygons_7">
            <polygon id="gzly_logo__polygon_25" class="primary" points="180.9,80.4 210.5,32.9 185.9,46.3 150.2,88.1 		"/>
                <polygon id="gzly_logo__polygon_26" class="primary" points="180.9,80.4 193.1,126.2 167.5,137.5 150.2,88.1 		"/>
                <polygon id="gzly_logo__polygon_27" class="primary" points="217.5,169.3 193.1,126.2 167.5,137.5 200.4,185.5 		"/>
                <polygon id="gzly_logo__polygon_28" class="primary" points="217.5,169.3 260.7,174.3 234.6,208.8 200.4,185.5 		"/>
        </g>
            <g id="gzly_logo__polygons_8">
            <polygon id="gzly_logo__polygon_29" class="primary" points="180.4,208.8 212.8,237.5 234.6,208.8 200.5,185.5 		"/>
                <polygon id="gzly_logo__polygon_30" class="primary" points="180.4,208.8 136.2,158.5 167.5,137.5 200.5,185.5 		"/>
                <polygon id="gzly_logo__polygon_31" class="primary" points="123.2,98.2 136.2,158.5 167.5,137.5 150.2,88.1 		"/>
                <polygon id="gzly_logo__polygon_32" class="primary" points="123.2,98.2 146.1,68 185.9,46.3 150.2,88.1 		"/>
        </g>
            <g id="gzly_logo__polygons_9">
            <polygon id="gzly_logo__polygon_33" class="primary" points="123.2,98.2 136.2,158.5 118.3,178 100.3,128.6 		"/>
                <polygon id="gzly_logo__polygon_34" class="primary" points="180.4,208.8 136.2,158.5 118.3,178 160.9,238.8 		"/>
                <polygon id="gzly_logo__polygon_35" class="primary" points="180.4,208.8 212.8,237.5 190.3,267.6 160.9,238.8 		"/>
        </g>
            <g id="gzly_logo__polygons_10">
            <polygon id="gzly_logo__polygon_36" class="primary" points="83.4,166.1 104.7,194.6 118.3,178 100.3,128.6 		"/>
                <polygon id="gzly_logo__polygon_37" class="primary" points="148.5,253.4 104.7,194.6 118.3,178 160.9,238.8 		"/>
                <polygon id="gzly_logo__polygon_38" class="primary" points="148.5,253.4 174.6,288.3 190.3,267.6 160.9,238.8 		"/>
        </g>
    </g>
        <g id="gzly_logo__bear">
        <polygon class="secondary" points="350.3,101.6 314.7,76.3 314.7,61.5 271.4,24.5 271.4,6.9 259.7,-0.3 244.3,4.8 233.6,32.6 211.1,32.6
            146.7,67.8 100.8,128.4 76.8,181.6 176,312.9 266.1,183.9 264.3,147.7 326.8,126.8 339,123.2 352.5,108.8 	"/>
    </g>
</g>
<clipPath id="gzly_logo__paw">
	<path class="secondary" d="M208,159c4.2-2.1,8.9-1.6,12.3,3.3c3.4,4.9,3.1,9.1-0.9,12c-3.9,2.9-10.2-0.9-13.5-5.3
		C202.7,164.6,205.7,160.2,208,159z"/>
	<path class="secondary" d="M199.6,146.1c0,0,5.2,3,5.5,4.6s-2.7,2-2.7,2C199.3,149.1,199.6,146.1,199.6,146.1z"/>
	<path class="secondary" d="M182.3,153.3c5.7-3.7,11.6,0.1,14.6,5c3.8,6.2,5.1,11.5,0,19.6c-5.1,8.1-8.9,3.7-10.7,1.6
		c-1.8-2.1-1.6-5.7-4.6-9.8C177,163.6,176.6,157,182.3,153.3z"/>
	<path class="secondary" d="M177,149.8c0.5,2-2.8,2.1-2.8,2.1c-4-4.7-4-8.3-4-8.3S176.5,147.8,177,149.8z"/>
	<path class="secondary" d="M160.5,164.2c8.5-6.3,18,11,20.8,14.7c2.8,3.7-3,6.9-6.7,9.6c-3.7,2.6-10.1-5-14.8-11.4
		C155,170.7,157.1,166.7,160.5,164.2z"/>
	<path class="secondary" d="M149.4,145.5c0,0,7.4,4.3,7.8,6.6c0.4,2.3-3.8,2.8-3.8,2.8C148.9,149.8,149.4,145.5,149.4,145.5z"/>
	<path class="secondary" d="M160.3,189.6c6.9,9.2,1.5,11.3-2.4,14.2s-10.5-1.7-15.7-8.6c-5.1-6.9-4.9-11.9,0.2-15.6
		S155.6,183.3,160.3,189.6z"/>
	<path class="secondary" d="M134.6,163.3c0,0,7.4,4.3,7.8,6.6c0.4,2.3-3.8,2.8-3.8,2.8C134.1,167.6,134.6,163.3,134.6,163.3z"/>
	<path class="secondary" d="M122.1,194.4c-1.2-1.8,6,1.3,10.7,10l-7.1-0.9C125.7,203.6,123.3,196.2,122.1,194.4z"/>
	<path class="secondary" d="M134.9,227.5c-5-6.9-9.1-11-3.8-14.9c5.3-3.9,19.8,4.9,23.6,10c0,0,7.3,6.2,0.7,11.1
		C148.8,238.7,140,234.4,134.9,227.5z"/>
	<path class="secondary" d="M190.7,267.9c-2.1-0.1-16.5-4.3-18.2-4.3c-9.4,0-24-14.9-16.1-21.6c7.9-6.7,7.4-15.3,7.4-24.7
		c0-9.4,24.2-16.5,32.5-24.2s41.3-17.7,46.3,5.3L190.7,267.9z"/>
</clipPath>
<use clip-path="url(#gzly_logo__paw)" xlink:href="#gzly_logo__inner" fill="red" />
</svg>
