<?xml version="1.0" standalone="no"?>
<!DOCTYPE svg PUBLIC "-//W3C//DTD SVG 20010904//EN"
 "http://www.w3.org/TR/2001/REC-SVG-20010904/DTD/svg10.dtd">
<svg version="1.0" xmlns="http://www.w3.org/2000/svg"
 width="500.000000pt" height="500.000000pt" viewBox="0 0 500.000000 500.000000"
 preserveAspectRatio="xMidYMid meet">
<metadata>
Created by potrace 1.11, written by Peter Selinger 2001-2013
</metadata>
<g transform="translate(0.000000,500.000000) scale(0.100000,-0.100000)"
fill="#000000" stroke="none">
<path d="M735 4008 c-284 -37 -496 -218 -608 -519 -19 -52 -41 -121 -48 -154
-7 -33 -13 -62 -14 -65 -12 -52 -24 -150 -32 -260 -3 -47 -9 -90 -14 -96 -5
-6 -6 -14 -1 -18 11 -12 9 -96 -3 -96 -7 0 -7 -3 0 -8 14 -9 15 -143 2 -135
-6 4 -7 1 -1 -8 12 -20 12 -83 -1 -91 -7 -5 -7 -8 1 -8 6 0 12 -25 13 -57 1
-32 4 -59 7 -62 2 -2 -2 -11 -9 -19 -6 -9 -7 -13 -1 -9 7 4 11 -4 12 -21 0
-15 3 -42 7 -60 3 -19 2 -31 -3 -28 -5 3 -9 -1 -9 -8 0 -8 7 -12 14 -9 8 3 13
2 12 -3 -2 -5 1 -36 6 -69 4 -33 7 -61 6 -63 -1 -1 6 -16 15 -33 8 -17 13 -37
10 -44 -3 -8 0 -15 5 -17 6 -2 11 -11 13 -20 1 -10 5 -21 9 -24 4 -4 -3 -19
-15 -32 l-23 -25 30 19 c16 10 26 14 22 7 -4 -6 -2 -15 4 -18 5 -4 8 -13 5
-20 -3 -8 2 -19 9 -25 8 -7 13 -16 10 -20 -3 -4 2 -13 10 -20 8 -7 15 -18 15
-25 0 -7 6 -18 14 -24 9 -7 13 -24 11 -42 -4 -27 3 -34 28 -30 4 0 6 -4 5 -11
-2 -7 2 -12 9 -13 6 0 15 -4 20 -9 5 -6 2 -6 -6 -1 -11 6 -13 4 -8 -10 4 -10
-6 -4 -22 14 -16 17 -33 31 -38 31 -5 0 -10 7 -10 15 0 8 4 12 9 9 4 -3 8 0 8
6 0 7 -7 9 -16 6 -10 -4 -13 -2 -8 6 4 6 3 8 -4 4 -6 -3 -13 -2 -16 3 -4 5 -2
12 3 15 5 4 12 2 16 -4 3 -5 12 -10 18 -10 7 1 2 9 -11 20 -13 10 -23 21 -22
24 1 21 -1 26 -11 20 -8 -5 -8 -9 1 -14 8 -5 7 -9 -4 -13 -11 -4 -16 -1 -17
11 0 11 -2 12 -6 4 -3 -7 2 -24 11 -37 9 -14 12 -25 6 -25 -5 0 -10 -5 -10
-11 0 -8 5 -8 15 1 17 14 20 1 5 -18 -7 -9 -7 -9 2 -2 7 6 17 10 23 10 5 -1
-1 -10 -14 -20 -13 -11 -19 -20 -14 -20 5 0 14 5 21 12 9 9 12 9 12 1 0 -7 -5
-15 -10 -18 -7 -4 -7 -13 0 -26 8 -14 7 -19 -1 -19 -7 0 -10 -3 -6 -6 9 -9 40
12 43 30 1 9 -2 14 -6 11 -5 -3 -11 -1 -15 5 -9 15 21 12 33 -3 7 -8 7 -18 2
-27 -7 -11 -1 -18 21 -27 17 -7 28 -17 24 -23 -11 -17 13 -37 40 -34 14 1 23
-2 20 -6 -3 -5 -13 -6 -23 -3 -9 3 -14 3 -10 -2 4 -4 3 -14 -3 -21 -6 -7 -6
-14 -1 -18 6 -3 12 1 16 9 3 8 11 15 18 15 10 0 9 -3 -1 -9 -12 -8 -12 -12 2
-26 10 -9 17 -23 17 -31 0 -8 4 -12 10 -9 9 6 14 -8 11 -27 -1 -8 15 -12 32
-9 11 2 8 -9 -7 -25 -9 -9 -17 -10 -21 -4 -3 5 -1 10 6 10 7 0 9 3 6 6 -4 4
-15 1 -24 -7 -17 -13 -17 -13 -3 5 13 18 13 19 0 11 -13 -8 -13 -7 -1 8 9 11
10 17 2 17 -6 0 -11 -6 -11 -12 0 -10 -3 -9 -9 1 -5 7 -6 22 -3 34 3 14 1 18
-7 13 -6 -4 -8 -12 -5 -18 4 -7 2 -8 -5 -4 -6 4 -8 12 -5 18 5 7 2 8 -6 3 -8
-5 -11 -4 -7 2 8 12 -17 36 -26 26 -4 -3 -7 -1 -7 5 0 7 6 12 13 12 8 0 7 4
-3 10 -11 7 -11 10 -2 10 7 0 10 5 6 11 -5 8 -9 8 -14 -1 -5 -8 -9 -7 -14 5
-3 10 -1 24 5 31 7 9 8 14 1 14 -6 0 -12 -3 -15 -7 -2 -5 -2 -3 -1 4 2 7 -6
10 -22 7 -18 -3 -23 -1 -18 7 4 8 3 9 -4 5 -8 -5 -5 -16 10 -36 12 -16 25 -27
30 -24 4 3 8 1 8 -5 0 -5 -8 -12 -18 -15 -14 -4 -14 -5 3 -4 34 1 40 -2 26
-11 -12 -8 -11 -13 10 -30 13 -11 19 -20 14 -21 -6 0 -17 6 -25 13 -12 10 -12
9 0 -6 7 -10 19 -16 25 -13 7 2 20 -5 30 -16 14 -17 14 -22 4 -29 -7 -4 -10
-12 -5 -16 5 -4 11 -2 13 5 3 6 9 10 13 7 5 -3 7 -12 3 -20 -3 -8 0 -15 7 -15
6 0 8 -5 4 -12 -6 -10 -5 -10 8 -1 15 13 28 8 28 -9 0 -5 -4 -6 -10 -3 -5 3
-10 1 -10 -4 0 -9 12 -9 50 -1 3 0 -2 6 -10 13 -14 11 -14 14 2 29 10 10 18
13 18 7 0 -5 4 -7 10 -4 6 4 7 -1 3 -11 -4 -11 -8 -13 -11 -6 -2 7 -8 9 -13 6
-6 -4 -6 -10 0 -18 11 -12 9 -41 -2 -52 -4 -4 -7 -2 -7 4 0 7 -8 12 -17 11
-11 0 -13 -3 -5 -6 6 -2 10 -8 7 -12 -2 -4 8 -7 22 -6 16 0 27 7 29 18 1 9 -2
15 -7 12 -5 -4 -6 2 -2 11 4 11 8 13 11 6 2 -7 9 -9 15 -5 7 4 6 -1 -2 -10 -7
-9 -10 -17 -7 -17 4 0 2 -9 -4 -20 -10 -18 -9 -19 15 -8 14 6 25 16 25 21 0 5
-7 4 -15 -3 -13 -11 -14 -10 -9 3 6 16 35 32 33 19 -3 -20 2 -33 11 -27 6 3 7
-1 4 -9 -3 -9 -1 -16 5 -16 6 0 11 6 11 13 0 6 5 4 11 -5 6 -12 7 -24 1 -35
-9 -15 -12 -13 -29 14 l-19 31 -24 -20 c-24 -19 -24 -19 -2 -8 34 17 39 4 5
-14 -15 -8 -24 -15 -20 -16 5 0 17 5 28 11 29 15 55 -6 37 -30 -9 -12 -7 -11
9 2 20 18 21 18 37 -5 9 -12 16 -19 16 -15 0 4 10 2 23 -4 12 -6 19 -8 15 -4
-4 5 -3 14 3 21 7 8 7 14 -1 19 -5 3 -10 -1 -10 -9 0 -9 -5 -16 -10 -16 -7 0
-7 7 0 21 11 19 9 20 -19 16 -27 -5 -29 -3 -18 14 6 10 15 19 20 19 4 0 5 -4
2 -10 -3 -5 1 -10 9 -10 9 0 25 -9 36 -20 21 -21 27 -35 10 -25 -5 3 -10 1
-10 -4 0 -6 6 -11 13 -11 21 0 57 -39 51 -54 -3 -8 -1 -17 5 -21 7 -3 8 0 5
10 -5 11 -2 14 12 9 18 -5 18 -5 2 6 -10 6 -18 15 -18 21 0 5 12 1 27 -8 15
-10 28 -17 30 -15 2 1 4 2 6 1 38 -11 47 -8 43 15 -3 19 -1 23 11 19 11 -4 14
-2 9 5 -4 7 -2 12 4 12 7 0 9 -8 4 -22 -6 -21 -5 -21 10 -9 9 8 14 21 11 30
-4 13 -2 12 9 -1 14 -19 42 -25 31 -8 -3 6 -1 10 4 10 6 0 11 -3 11 -7 0 -17
-16 -29 -38 -27 -16 1 -19 -2 -12 -11 6 -8 6 -15 -2 -23 -9 -9 -9 -12 0 -12 7
0 12 5 12 11 0 5 5 7 10 4 6 -3 13 0 16 8 2 7 11 14 19 14 23 0 18 -11 -12
-29 -16 -10 -22 -18 -15 -18 8 0 10 -5 6 -12 -4 -8 -3 -10 2 -5 5 5 9 14 9 20
1 7 6 11 13 9 7 -1 12 3 12 9 0 5 4 7 10 4 5 -3 7 0 4 8 -3 8 2 14 10 14 9 0
18 -8 21 -17 5 -17 35 -24 35 -8 0 4 -7 8 -15 8 -19 0 -20 19 -1 26 8 3 12 12
9 19 -4 11 -8 12 -18 2 -7 -7 -11 -15 -9 -18 2 -3 -3 -6 -11 -6 -11 0 -12 4
-4 13 7 9 5 15 -8 23 -11 6 -13 11 -5 11 8 0 10 5 6 13 -4 7 -3 9 2 4 5 -5 10
-13 10 -18 1 -5 2 -12 3 -15 0 -4 7 -1 15 5 11 10 16 8 24 -5 9 -15 13 -16 26
-5 9 7 13 18 9 25 -4 6 5 3 19 -6 24 -16 27 -16 33 0 3 10 9 12 13 6 6 -9 16
-10 40 -5 4 1 -4 9 -18 17 -14 8 -17 13 -8 10 9 -3 19 0 22 7 2 7 5 3 6 -8 0
-17 2 -18 13 -5 29 35 55 52 63 39 4 -8 3 -10 -4 -5 -7 4 -12 3 -12 -2 0 -14
11 -21 26 -15 10 4 11 10 4 23 -15 28 5 35 30 10 15 -15 20 -16 20 -6 0 8 4
17 9 21 17 10 1 -78 -17 -93 -9 -7 -11 -10 -4 -7 10 5 10 -1 -2 -24 -12 -21
-21 -29 -34 -25 -14 5 -15 4 -2 -5 30 -22 -87 -102 -174 -120 -17 -3 -80 -6
-141 -6 -127 1 -207 21 -333 87 -89 46 -104 57 -96 69 3 5 -2 6 -10 3 -11 -4
-16 0 -16 12 0 9 -3 14 -7 11 -3 -4 -17 2 -29 14 l-22 21 -7 -21 c-3 -11 -52
-114 -107 -228 l-101 -208 58 -52 c32 -29 55 -53 50 -53 -4 0 -2 -7 5 -15 10
-12 16 -13 28 -3 11 9 14 9 9 1 -4 -6 -3 -14 2 -18 14 -8 2 -33 -18 -40 -21
-6 -24 -35 -4 -35 7 0 13 -6 13 -12 0 -9 3 -8 10 2 8 13 11 13 22 0 7 -8 9
-12 4 -8 -5 4 -17 1 -27 -8 -13 -12 -19 -12 -25 -3 -5 8 -3 10 6 4 9 -5 11 -4
6 4 -4 6 -12 9 -17 6 -5 -4 -9 -3 -10 2 -2 25 -10 58 -16 62 -3 3 -4 -4 -1
-16 5 -17 1 -23 -16 -26 -20 -4 -20 -4 2 -6 13 0 20 -5 17 -11 -3 -5 -1 -10 5
-10 6 0 8 -5 5 -10 -4 -6 -10 -8 -15 -5 -4 3 -6 -4 -3 -15 3 -11 10 -23 15
-26 6 -4 8 1 4 13 -4 14 -2 20 9 20 15 0 16 -22 1 -46 -7 -10 -6 -12 4 -6 10
6 12 4 7 -8 -4 -12 -2 -14 11 -10 14 5 15 3 4 -8 -6 -7 -12 -17 -12 -23 0 -5
7 -1 16 10 14 18 15 18 8 -6 -7 -29 -2 -26 16 9 10 19 9 22 -1 16 -8 -6 -10
-4 -4 5 6 9 4 11 -5 5 -9 -6 -11 -4 -5 5 6 9 4 11 -6 5 -8 -5 -11 -5 -7 0 4 4
3 14 -2 20 -7 8 -3 18 12 31 16 14 19 14 10 2 -11 -14 -10 -17 7 -23 12 -3 21
-11 21 -17 0 -6 -6 -6 -15 2 -9 7 -18 10 -21 8 -3 -3 10 -16 28 -29 18 -13 39
-30 46 -39 12 -13 13 -13 9 1 -3 9 1 16 8 16 8 0 11 -7 7 -15 -4 -11 -2 -13 9
-7 12 7 12 6 1 -7 -9 -11 -10 -18 -2 -23 5 -3 10 -1 10 6 0 8 3 9 13 0 8 -6
17 -8 20 -4 4 3 7 1 7 -5 0 -23 -2 -27 -13 -24 -6 2 -5 -4 2 -12 7 -9 18 -13
24 -9 7 4 8 -1 4 -13 -6 -14 -2 -13 12 6 17 21 21 22 36 10 16 -14 17 -13 11
10 -6 21 -5 22 4 7 16 -25 21 -57 8 -57 -5 0 -8 6 -5 13 3 8 -1 14 -9 14 -7 0
-11 -4 -8 -9 3 -4 -2 -5 -10 -2 -9 3 -16 2 -16 -3 0 -9 6 -11 50 -15 22 -3 25
-8 10 -26 -7 -9 -7 -9 2 -2 7 6 16 6 25 -1 9 -8 17 -8 27 0 9 7 17 8 20 2 3
-5 0 -11 -6 -14 -7 -2 -9 -8 -5 -13 9 -10 28 16 21 28 -6 10 10 11 19 1 4 -3
1 -13 -6 -22 -11 -14 -10 -15 7 -1 22 17 26 17 37 -1 6 -10 11 -10 22 -1 7 7
17 9 20 5 4 -3 -1 -12 -11 -19 -9 -8 -12 -14 -5 -14 6 0 15 5 18 10 3 6 11 10
16 10 6 0 7 -4 4 -10 -3 -5 -1 -10 5 -10 7 0 9 7 6 17 -6 14 -3 14 15 -3 16
-13 23 -15 26 -6 3 6 9 12 14 12 5 0 2 -15 -6 -32 -14 -28 -14 -30 -1 -14 8
10 17 24 19 30 2 7 10 4 21 -7 20 -20 34 -23 18 -4 -6 6 -11 16 -11 22 -1 5
-14 10 -30 10 -18 -1 -27 3 -23 10 3 5 -1 4 -10 -3 -12 -9 -18 -10 -23 -2 -4
6 -14 9 -22 6 -8 -3 -12 -2 -9 2 3 5 -12 8 -32 7 -45 -2 -67 12 -51 31 12 14
-2 20 -15 7 -4 -4 -18 -8 -31 -9 -18 -1 -22 2 -15 11 5 6 7 15 3 19 -4 4 0 4
10 0 9 -3 17 -10 17 -16 0 -5 5 -6 10 -3 8 5 7 11 -1 21 -9 11 -4 10 18 -3 28
-15 29 -19 15 -30 -15 -12 -14 -13 8 -10 39 6 60 18 53 31 -3 6 -3 8 2 4 4 -4
13 -4 19 2 8 6 12 2 13 -13 1 -12 -1 -17 -5 -10 -5 8 -12 8 -26 -3 -11 -8 -16
-15 -10 -15 32 -4 40 -4 50 3 6 5 17 2 24 -7 7 -8 17 -15 23 -15 7 0 7 4 -1
12 -7 7 -12 17 -12 22 0 6 7 0 16 -12 18 -26 39 -28 53 -4 6 9 11 12 11 7 0
-6 -5 -16 -10 -21 -14 -14 8 -66 23 -57 7 4 8 -1 3 -13 -6 -15 -5 -17 5 -7 10
10 8 17 -9 34 -12 11 -20 24 -17 30 7 11 18 12 12 2 -2 -5 7 -18 20 -30 24
-23 25 -23 27 16 1 13 8 26 16 28 12 4 12 3 1 -5 -17 -12 1 -23 19 -11 20 12
30 11 30 -3 0 -6 -3 -8 -6 -5 -10 10 -45 -13 -38 -24 3 -6 12 -8 20 -5 8 3 14
0 14 -6 0 -6 3 -8 7 -5 3 4 12 -1 20 -11 13 -15 13 -15 3 6 -6 12 -15 22 -21
22 -6 0 -7 5 -3 12 5 8 13 5 25 -10 14 -18 18 -19 23 -7 7 18 27 20 23 3 -1
-8 8 -13 20 -12 19 0 22 -4 18 -24 -2 -13 -1 -22 2 -18 14 14 12 45 -4 57 -12
10 -15 10 -9 1 4 -7 1 -12 -8 -12 -9 0 -15 3 -15 8 5 29 -2 34 -20 18 -11 -10
-22 -13 -25 -8 -3 5 4 13 17 16 l22 6 -25 21 c-19 16 -20 18 -4 10 11 -5 26
-17 34 -25 7 -9 18 -16 24 -16 18 0 58 -45 49 -55 -5 -4 2 -2 15 4 24 13 30
24 9 15 -8 -3 -19 1 -25 8 -10 13 -12 18 -12 41 0 9 -2 9 -8 0 -6 -9 -14 -6
-33 10 -14 12 -19 18 -12 14 6 -5 18 -5 24 -1 8 4 9 3 5 -4 -4 -7 -3 -12 2
-12 15 0 22 13 12 24 -6 8 -3 12 10 12 13 0 16 -4 10 -15 -9 -17 8 -62 24 -60
25 3 37 -2 30 -13 -4 -7 -3 -8 4 -4 6 4 9 13 5 21 -7 21 7 19 24 -2 12 -16 12
-14 2 9 -9 20 -16 25 -24 18 -7 -5 -16 -6 -20 -2 -5 4 -5 2 -2 -5 5 -7 1 -10
-10 -9 -9 2 -17 13 -19 27 -2 13 0 18 2 11 3 -6 10 -9 15 -6 6 4 6 10 0 18 -8
9 -7 13 4 13 8 0 13 -3 11 -6 -5 -7 15 -25 32 -28 18 -4 14 15 -5 27 -14 8
-14 10 -3 9 32 -3 42 1 36 17 -3 9 -2 12 4 9 6 -4 10 -12 9 -18 -5 -41 12 -44
54 -10 18 14 23 23 15 26 -7 2 -4 2 7 0 11 -3 28 -5 38 -4 13 0 17 -5 13 -15
-3 -9 -6 -18 -6 -20 0 -2 -4 -4 -10 -4 -5 0 -9 5 -7 11 1 6 -3 13 -9 16 -6 2
-11 -3 -11 -11 0 -18 24 -29 40 -19 7 4 8 0 4 -11 -4 -10 -3 -15 3 -11 6 3 10
14 10 23 1 16 2 16 14 -1 7 -9 17 -17 22 -17 4 0 3 5 -4 12 -21 21 -13 32 10
12 13 -11 18 -13 11 -3 -10 12 -10 18 -1 27 17 17 33 15 18 -3 -7 -8 -11 -15
-9 -16 2 0 18 -2 34 -4 l30 -4 -25 14 c-14 8 -21 14 -16 15 5 0 3 6 -3 13 -11
14 -5 27 13 27 8 0 8 -3 0 -8 -6 -4 -4 -13 8 -24 15 -16 18 -16 18 -2 0 8 5
12 10 9 9 -5 14 7 12 26 -1 4 10 7 23 7 14 0 23 -4 21 -7 -3 -4 5 -8 17 -8 20
-2 20 -1 5 8 -10 6 -18 15 -18 20 0 6 4 8 9 4 12 -7 33 29 24 39 -3 3 -1 6 4
6 6 0 10 11 9 25 -2 13 0 22 5 20 4 -3 10 3 12 12 4 17 5 17 6 1 0 -10 8 -18
18 -18 16 0 10 -14 -8 -16 -5 -1 -13 -2 -17 -3 -5 0 -9 -8 -9 -16 0 -21 17
-19 17 3 1 16 1 16 14 -1 7 -9 19 -17 27 -17 9 1 8 4 -4 11 -14 8 -16 14 -6
25 17 20 34 17 18 -4 -13 -15 -12 -16 3 -4 9 8 23 11 30 7 7 -4 4 1 -6 9 -11
9 -18 17 -15 20 15 13 56 30 69 28 13 -3 13 -2 0 7 -10 7 -19 6 -28 -1 -10 -9
-16 -8 -22 2 -5 8 -12 11 -17 7 -4 -5 -1 -13 7 -18 12 -9 12 -10 -3 -5 -13 4
-16 2 -11 -7 6 -9 4 -9 -8 1 -9 7 -26 15 -38 17 -13 2 -25 7 -29 10 -8 8 46
-2 61 -11 7 -5 9 -2 5 9 -4 12 0 15 22 12 19 -3 28 1 28 11 0 8 -6 13 -14 10
-21 -8 -15 0 12 18 34 22 52 10 23 -14 -13 -11 -17 -19 -10 -20 6 0 12 5 12
11 0 5 5 7 10 4 6 -4 8 -11 5 -16 -3 -5 1 -6 10 -2 13 5 14 7 3 14 -11 7 -10
11 2 18 10 7 17 6 23 -2 6 -9 7 -8 6 3 -3 31 1 50 12 50 6 0 8 -7 4 -18 -5
-14 -4 -15 6 -4 10 9 10 15 2 23 -13 13 -38 0 -38 -20 0 -8 -7 -17 -15 -19
-13 -5 -13 -3 -1 11 7 10 10 17 6 17 -4 0 -3 6 2 13 21 26 10 53 -20 48 -5 -1
-6 3 -2 9 4 7 12 7 26 0 13 -7 19 -7 19 0 0 5 -4 10 -10 10 -5 0 -10 5 -10 11
0 8 4 8 15 -1 8 -6 20 -8 26 -4 8 5 10 2 5 -7 -4 -8 0 -5 8 5 9 11 16 24 16
29 0 4 5 5 10 2 7 -5 8 -11 1 -19 -7 -8 -3 -12 14 -14 13 -1 26 2 30 7 3 5 -4
7 -15 4 -16 -4 -19 -2 -14 11 3 9 1 16 -6 16 -6 0 -9 4 -5 10 3 5 12 7 20 3
13 -4 20 7 16 29 0 4 8 6 19 5 11 -1 19 -6 16 -12 -2 -7 2 -12 9 -12 9 0 11 6
6 16 -10 19 -3 43 9 36 5 -3 7 -11 4 -19 -3 -7 2 -13 10 -13 8 0 12 6 9 13 -3
9 2 12 18 9 12 -3 29 1 38 8 12 10 14 9 8 -8 l-7 -20 16 20 c15 20 15 20 30 1
8 -11 14 -15 14 -10 0 6 -5 15 -12 22 -20 20 7 14 35 -8 17 -13 24 -27 21 -38
-5 -14 -4 -15 5 -2 7 11 6 19 -6 32 -18 20 -4 25 16 6 11 -11 14 -10 18 0 3 6
9 10 14 7 5 -4 6 2 2 12 -6 17 -5 17 13 2 29 -24 48 -34 40 -21 -9 16 17 15
32 0 6 -6 14 -9 17 -6 3 3 -8 12 -25 20 -17 8 -32 19 -33 24 -3 13 -41 6 -51
-10 -8 -12 -14 -11 -35 2 -18 13 -23 13 -17 3 7 -10 5 -12 -4 -6 -9 6 -11 4
-5 -5 5 -9 4 -11 -4 -6 -6 4 -9 12 -6 17 4 5 3 15 -1 21 -11 18 -12 48 -2 42
5 -4 7 -12 4 -20 -3 -8 7 -19 26 -29 37 -18 46 -19 30 -3 -7 7 -12 17 -12 22
0 6 5 4 10 -6 10 -15 50 -15 50 1 0 4 7 8 15 8 8 0 13 -3 10 -5 -5 -6 46 -52
58 -52 4 0 8 6 9 13 0 6 2 19 3 27 1 8 -6 24 -14 35 -15 19 -15 19 3 5 18 -14
19 -13 13 2 -4 12 -2 15 8 12 8 -3 14 -9 13 -12 -3 -25 5 -22 25 9 21 34 23
35 39 18 10 -10 13 -21 9 -24 -5 -2 -12 2 -15 11 -6 16 -26 11 -26 -7 0 -6 4
-8 9 -4 5 3 13 0 17 -6 5 -8 3 -9 -5 -4 -9 5 -9 1 1 -14 14 -22 28 -28 28 -11
0 6 -5 10 -11 10 -5 0 -7 5 -3 11 3 6 9 7 13 2 3 -5 15 -9 26 -9 12 0 19 -5
17 -14 -2 -8 0 -11 4 -7 11 10 14 38 4 32 -4 -3 -11 3 -15 13 -13 28 -14 42
-3 48 5 3 2 15 -9 27 -9 12 -11 16 -3 10 18 -16 34 -17 24 -1 -4 7 -3 8 4 4 8
-5 9 -13 2 -25 -5 -10 -6 -22 -2 -26 4 -5 1 -5 -6 0 -11 6 -12 3 -3 -14 7 -11
17 -21 24 -20 9 0 9 2 0 6 -7 2 -13 9 -13 14 0 6 8 5 20 -1 11 -6 17 -16 14
-22 -4 -7 -2 -8 5 -4 7 5 9 12 3 19 -4 7 -7 18 -6 25 1 6 2 17 3 23 0 5 6 7
13 3 6 -4 8 -3 4 4 -3 6 -2 13 4 17 5 3 10 0 10 -7 0 -8 5 -6 11 5 5 9 18 17
27 18 11 0 12 2 4 6 -7 3 -20 -1 -29 -9 -14 -11 -16 -11 -11 2 4 11 -1 16 -14
17 -16 2 -17 -1 -7 -13 10 -12 10 -15 -2 -12 -8 2 -13 -3 -11 -11 3 -12 0 -12
-13 -1 -8 7 -13 15 -10 18 3 3 -1 12 -8 21 -10 14 -10 14 5 3 12 -9 18 -10 23
-2 4 6 13 9 20 6 7 -2 23 3 36 12 23 15 23 15 10 -1 -12 -15 -12 -17 3 -11 10
4 15 13 12 21 -3 8 -6 17 -6 19 0 2 -10 -2 -23 -10 -16 -11 -26 -12 -37 -5
-13 10 -13 10 0 6 9 -3 24 1 34 9 11 7 24 11 29 7 7 -4 8 1 3 13 -4 10 -4 15
0 11 4 -4 19 6 34 22 l28 29 11 -24 c11 -26 5 -57 -10 -48 -5 3 -6 11 -3 17 4
8 2 7 -7 -1 -12 -11 -12 -14 1 -22 8 -5 21 -5 32 1 13 7 18 6 18 -2 0 -7 3
-10 6 -7 3 3 1 15 -5 27 -6 12 -16 30 -22 42 -6 12 -8 24 -5 27 3 3 6 0 6 -6
0 -13 31 -4 42 12 5 7 8 6 8 -2 0 -8 -9 -16 -20 -19 -12 -3 -17 -10 -13 -17 4
-6 8 -14 9 -18 1 -5 2 -11 3 -14 0 -4 7 -1 14 5 14 11 27 5 27 -11 0 -5 -6 -6
-12 -2 -7 4 -10 4 -6 -1 4 -4 3 -13 -2 -20 -7 -8 -5 -12 5 -12 7 0 13 5 12 11
-1 6 4 10 11 8 10 -2 10 2 2 17 -7 13 -7 22 0 26 6 4 8 10 5 15 -3 5 -1 11 5
15 6 4 8 10 5 15 -3 5 -1 11 4 14 11 7 9 -13 -2 -32 -6 -9 -2 -11 15 -8 13 3
25 5 28 5 3 1 -2 5 -10 11 -8 5 -12 11 -9 14 3 3 15 -3 26 -14 22 -19 35 -17
27 4 -3 7 3 19 12 27 16 13 16 12 4 -11 -16 -29 -16 -30 0 -40 9 -5 9 -9 1
-14 -6 -4 -11 -1 -11 6 0 9 -3 9 -10 -2 -5 -8 -10 -10 -10 -4 0 12 -38 13 -57
1 -7 -5 -13 -14 -12 -20 0 -9 2 -8 6 1 7 18 23 4 17 -16 -4 -10 -3 -13 3 -6 4
6 15 14 23 17 12 4 11 6 -3 6 -10 1 -15 6 -12 11 4 7 12 7 24 0 10 -5 21 -6
25 -3 3 3 6 0 6 -8 0 -8 7 -4 16 9 9 13 14 29 11 36 -3 7 -1 19 5 27 8 11 9
10 4 -5 -4 -13 -2 -17 7 -13 8 3 14 -1 14 -9 0 -7 -5 -10 -11 -7 -6 3 -8 3 -4
-2 4 -4 3 -14 -3 -22 -7 -8 -8 -13 -1 -13 5 0 13 8 17 18 7 16 8 15 16 -3 5
-13 7 -6 4 23 -5 41 -4 43 17 36 21 -6 22 -5 8 12 -11 15 -11 16 0 7 18 -17
35 -17 22 0 -8 9 -8 17 0 27 8 13 9 12 5 -2 -3 -9 -3 -19 1 -22 13 -13 10 -35
-4 -29 -19 7 -17 -17 3 -42 14 -18 15 -18 9 -1 -7 21 11 49 26 40 6 -4 3 5 -7
19 -10 17 -13 27 -6 32 11 6 12 5 15 -15 0 -5 4 -10 9 -10 4 0 11 0 15 0 5 0
14 12 20 26 8 15 17 22 25 18 9 -5 9 -4 1 5 -9 10 -16 9 -32 -5 -12 -10 -18
-22 -15 -27 3 -6 1 -7 -6 -3 -7 5 -9 17 -5 29 5 18 4 20 -7 10 -7 -7 -17 -13
-22 -13 -4 0 5 12 20 26 l28 25 -25 -6 -25 -6 23 14 c12 7 19 16 15 21 -4 4 0
4 8 1 10 -4 16 0 16 9 0 8 -6 17 -14 20 -15 6 -18 36 -3 36 5 0 7 -7 4 -15 -4
-8 -1 -15 5 -15 6 0 11 5 11 10 0 6 4 10 9 10 8 0 8 -28 1 -37 -2 -2 -3 -8 -4
-13 0 -6 -8 -15 -16 -20 -13 -8 -13 -10 -1 -10 11 0 10 -4 -4 -13 -14 -11 -15
-16 -5 -22 8 -5 11 -4 6 3 -8 14 15 21 36 11 12 -6 16 -5 14 6 -1 8 -6 18 -11
22 -4 4 -5 2 -1 -5 8 -14 -10 -17 -19 -3 -3 5 5 17 17 25 15 11 18 16 8 17
-10 0 -8 3 5 9 15 6 16 9 4 9 -16 1 -23 31 -7 31 4 0 8 -4 8 -10 0 -5 5 -10
11 -10 8 0 7 5 -1 15 -7 9 -21 13 -31 10 -9 -3 -20 -1 -24 5 -4 6 -14 9 -23 5
-9 -3 -4 5 11 19 15 14 27 30 27 36 0 5 8 10 18 10 14 0 15 -2 2 -10 -8 -5
-10 -10 -5 -10 6 1 19 7 29 15 10 8 23 12 28 8 6 -3 5 4 -1 15 -8 14 -8 23 -1
27 6 4 10 12 9 18 -3 18 12 48 21 42 5 -3 11 -1 14 4 4 5 -1 8 -10 7 -8 -1
-19 -8 -23 -14 -5 -8 -15 -5 -36 8 -17 11 -24 20 -17 20 7 0 10 5 7 11 -4 6
-13 8 -21 5 -7 -3 -16 -1 -19 4 -3 4 6 7 20 5 14 -1 28 2 31 6 3 5 1 9 -4 9
-5 0 -9 7 -9 15 0 8 4 15 9 15 4 0 8 -7 8 -15 0 -8 6 -15 13 -15 9 0 8 -3 -2
-9 -8 -5 -9 -11 -3 -15 6 -3 13 0 15 6 4 9 6 9 6 1 1 -6 -7 -19 -16 -29 -13
-13 -14 -16 -3 -12 8 2 20 15 27 28 6 12 17 27 25 31 10 7 9 9 -4 9 -10 0 -18
-5 -18 -11 0 -5 -4 -8 -10 -4 -5 3 -7 12 -4 20 4 8 9 13 13 11 4 -3 13 0 21 6
12 8 11 9 -3 4 -12 -4 -17 -2 -14 6 2 7 11 12 21 10 9 -2 16 2 16 8 0 6 -5 8
-10 5 -5 -3 -10 -1 -10 4 0 6 -5 11 -11 11 -5 0 -7 -5 -3 -12 5 -7 3 -8 -6 -3
-8 5 -11 4 -7 -1 10 -17 -7 -32 -28 -23 -18 7 -18 8 4 8 22 1 23 2 9 19 -23
26 -19 53 14 95 30 39 28 49 -5 19 -19 -17 -19 -16 -6 6 8 12 21 22 29 22 13
0 13 1 0 10 -8 5 -11 10 -7 10 4 0 3 10 -4 21 -7 13 -7 19 -1 15 17 -10 24 12
12 36 -10 21 -10 21 3 6 8 -10 17 -15 20 -11 4 3 1 13 -5 21 -10 11 -9 17 6
28 11 7 23 11 27 8 5 -3 9 -1 9 4 0 17 -13 22 -29 10 -9 -7 -13 -9 -9 -4 4 5
3 18 -3 30 -7 17 -7 18 2 5 10 -14 15 -13 50 4 39 19 54 35 22 22 -48 -18 -83
-10 -83 19 0 6 5 3 11 -6 5 -10 15 -18 21 -18 6 0 5 7 -3 17 -12 15 -12 16 1
8 21 -13 39 -15 45 -5 3 5 12 7 19 4 8 -3 17 -1 21 5 3 7 0 8 -9 5 -25 -10
-19 5 7 17 19 8 18 9 -8 3 l-30 -6 22 24 c20 21 21 27 10 51 -12 28 -27 31
-35 7 -3 -7 0 -10 6 -6 6 3 14 1 18 -5 5 -8 3 -9 -6 -4 -9 5 -11 4 -6 -4 4 -6
12 -8 18 -5 6 4 9 1 6 -7 -3 -8 -15 -13 -26 -13 -12 1 -22 -3 -22 -7 0 -5 5
-9 12 -9 6 0 9 -2 6 -5 -3 -3 -12 -3 -21 0 -13 5 -14 13 -8 44 1 2 8 -2 16 -9
18 -15 20 1 3 18 -9 9 -7 16 7 32 18 20 18 20 -6 20 -21 1 -20 2 9 15 20 9 31
19 26 26 -4 8 -9 7 -15 -2 -5 -8 -9 -9 -9 -3 0 16 25 35 35 26 5 -4 5 1 2 11
-4 10 -3 16 2 12 5 -3 12 -1 16 5 3 5 1 10 -5 10 -7 0 -6 5 3 14 7 8 13 25 11
38 -1 12 -3 27 -3 31 -1 5 -5 6 -9 3 -5 -3 -9 1 -9 9 0 10 4 12 12 5 7 -6 16
-5 26 3 12 10 12 10 1 -3 -16 -19 -15 -31 3 -24 8 4 15 14 15 23 1 9 7 3 15
-14 l14 -30 -5 33 c-3 21 -1 31 6 27 5 -3 8 -21 5 -39 -3 -27 0 -33 13 -32 11
1 16 -5 14 -18 -2 -10 2 -22 9 -27 7 -4 12 -23 12 -43 0 -20 4 -36 7 -36 9 0
24 -76 21 -105 -2 -17 0 -17 8 -5 8 11 11 11 11 2 0 -7 -12 -25 -27 -39 l-28
-27 26 16 c26 16 39 15 39 -4 0 -5 -4 -6 -10 -3 -5 3 -10 1 -10 -4 0 -6 4 -11
8 -11 5 0 13 -16 19 -35 6 -19 7 -33 2 -29 -5 3 -9 1 -9 -4 0 -6 7 -12 15 -15
8 -4 12 -15 10 -29 -3 -12 -1 -25 4 -28 5 -3 12 -20 16 -38 5 -24 3 -33 -9
-38 -9 -3 -16 -11 -16 -16 0 -6 7 -5 15 2 9 7 19 9 23 5 4 -4 1 -10 -5 -12
-10 -3 -9 -8 2 -20 10 -9 13 -23 9 -35 -4 -15 -3 -18 7 -13 9 6 11 4 6 -8 -3
-9 -2 -19 4 -23 5 -3 7 -14 4 -25 -4 -10 -2 -19 3 -19 15 0 8 -26 -14 -52 -11
-13 -12 -17 -3 -10 9 6 20 8 24 4 5 -4 5 -1 1 6 -4 6 -2 12 3 12 15 0 14 -13
-1 -29 -9 -10 -9 -12 -1 -7 6 3 15 1 19 -5 4 -8 3 -9 -4 -5 -7 4 -12 2 -12 -3
0 -6 5 -11 10 -11 17 0 11 -28 -7 -33 -14 -4 -12 -5 5 -6 12 0 23 -4 24 -8 3
-19 9 -70 10 -91 0 -13 3 -21 6 -18 3 3 10 -4 16 -17 7 -13 20 -22 34 -21 12
1 19 -3 15 -9 -3 -5 -7 -21 -9 -34 -2 -20 1 -23 19 -18 22 6 22 6 1 -7 -14 -9
-20 -22 -18 -46 1 -26 -1 -30 -11 -22 -13 11 -13 8 -6 -29 1 -2 8 2 16 9 8 7
15 8 15 2 0 -5 -10 -16 -22 -24 -17 -11 -19 -16 -8 -23 8 -5 11 -4 7 2 -10 15
20 24 31 10 6 -7 11 -20 13 -30 2 -10 8 -17 13 -17 5 1 13 -4 18 -12 8 -10 9
-10 5 2 -2 8 -10 14 -16 13 -6 -2 -11 4 -11 12 0 8 6 14 12 12 19 -3 37 -29
31 -44 -3 -7 0 -13 7 -13 6 0 9 4 5 9 -3 6 4 9 15 8 11 -1 20 -7 20 -13 0 -7
7 -15 16 -18 14 -5 15 -4 4 9 -12 15 -8 29 11 31 22 3 23 5 11 13 -11 7 -11 9
1 14 8 3 23 -1 34 -9 17 -13 17 -14 -2 -7 -16 5 -14 0 9 -25 17 -18 35 -32 40
-32 6 0 5 4 -3 9 -9 6 -10 11 -2 15 6 4 14 0 17 -8 6 -16 24 -12 24 5 0 6 -5
7 -12 3 -7 -5 -8 -2 -3 7 5 8 5 11 0 7 -4 -4 -15 -2 -23 5 -13 10 -14 9 -7 -3
6 -12 6 -13 -6 -2 -12 11 -12 14 1 22 18 11 20 30 6 50 -9 13 -9 13 6 2 9 -7
15 -22 13 -33 -3 -12 5 -25 20 -35 14 -9 23 -20 20 -24 -2 -4 2 -16 11 -26 14
-18 15 -18 5 2 -8 17 -7 25 6 35 14 12 15 11 8 -11 -6 -20 -5 -23 6 -13 10 10
10 18 1 38 -6 14 -17 25 -23 25 -8 0 -8 -4 0 -14 8 -10 9 -16 1 -21 -5 -3 -10
1 -10 9 0 9 -8 16 -17 17 -13 0 -11 3 6 10 16 6 28 6 34 0 7 -7 15 -5 24 7 12
15 13 14 3 -6 -18 -37 -5 -36 26 0 15 18 25 25 21 16 -3 -10 0 -19 9 -22 22
-8 26 -7 19 4 -3 6 -2 10 3 10 6 0 9 -10 8 -23 0 -13 -6 -24 -13 -24 -7 0 -9
5 -6 10 3 6 1 7 -5 3 -20 -12 -13 -23 14 -24 16 0 23 5 20 13 -7 20 4 26 26
14 15 -8 23 -8 32 2 8 9 8 10 -1 5 -7 -4 -23 0 -35 10 -14 10 -16 14 -6 11 20
-7 43 17 32 35 -5 10 -4 10 6 1 11 -10 10 -16 -5 -33 -10 -11 -13 -20 -7 -20
6 0 20 13 31 29 l21 30 -21 6 c-11 4 -18 9 -16 12 3 2 14 0 26 -6 17 -9 20 -8
18 9 -1 14 -6 19 -17 15 -11 -5 -12 -3 -3 6 13 13 36 2 27 -13 -5 -7 -1 -9 9
-5 9 3 19 2 22 -3 8 -12 -6 -41 -17 -34 -5 3 -4 13 4 22 10 13 8 13 -9 -1 -12
-10 -20 -27 -18 -37 3 -14 -1 -17 -13 -13 -15 4 -15 3 -2 -7 13 -11 13 -11 0
-7 -11 3 -16 -4 -17 -27 l-2 -31 12 25 c13 25 24 28 62 16 15 -5 15 -4 -2 5
-29 15 -29 24 -1 43 12 9 18 16 13 16 -6 0 -2 5 8 11 9 5 17 17 17 24 0 8 5
15 10 15 6 0 10 5 10 11 0 8 -4 8 -13 0 -25 -20 -78 3 -76 34 0 6 3 4 6 -3 4
-10 8 -10 19 -2 15 13 38 4 29 -11 -4 -5 -3 -9 2 -9 4 0 13 11 20 25 8 19 8
31 0 50 -7 14 -15 25 -19 25 -4 0 -12 10 -19 21 -6 13 -7 19 -1 15 6 -3 12 -1
14 5 3 9 9 9 24 1 13 -7 26 -7 35 -1 10 6 10 9 2 9 -7 0 -15 -1 -16 -2 -2 -2
-11 3 -20 10 -9 8 -22 10 -29 6 -10 -5 -10 -4 -1 6 10 11 15 11 29 -1 16 -12
17 -12 11 5 -5 13 -1 25 11 37 17 15 21 16 34 3 13 -13 15 -13 15 0 0 8 -4 13
-8 11 -3 -3 -12 2 -19 9 -9 12 -7 17 8 25 11 6 22 8 24 5 3 -2 3 8 1 23 -3 15
-5 38 -5 50 0 12 -7 24 -15 27 -9 4 -12 1 -8 -7 4 -6 0 -4 -8 5 -8 10 -16 15
-19 12 -3 -2 -8 1 -11 9 -4 12 0 12 30 2 19 -7 39 -18 44 -26 6 -9 9 -10 9 -2
0 6 -4 14 -9 18 -14 8 -9 46 4 41 7 -2 12 1 12 8 0 14 -65 15 -87 2 -12 -8
-13 -7 -3 6 7 8 9 18 5 23 -4 4 2 3 14 -3 15 -8 24 -8 32 0 9 9 12 9 12 -1 0
-10 3 -11 13 -2 8 6 17 9 20 6 4 -3 5 -2 2 2 -3 3 0 12 6 20 10 11 15 11 28 1
14 -12 14 -11 3 4 -8 10 -19 16 -25 15 -7 -1 -11 6 -9 16 3 19 -13 23 -23 6
-4 -6 1 -16 11 -23 14 -11 15 -14 3 -22 -20 -12 -70 -14 -63 -2 4 5 15 8 25 5
22 -6 35 8 18 19 -8 5 -9 3 -4 -7 7 -11 6 -12 -6 -2 -12 10 -20 9 -40 -3 l-24
-16 24 21 c12 12 28 18 34 14 7 -4 8 0 3 13 -4 10 -4 15 0 11 4 -4 13 1 19 10
11 14 15 15 29 4 13 -11 15 -10 11 8 -2 12 -7 26 -11 33 -5 8 -1 9 12 4 14 -5
16 -4 8 4 -16 16 -58 -6 -50 -25 2 -7 -1 -16 -9 -19 -10 -3 -12 0 -8 11 5 12
2 14 -8 9 -8 -4 -5 0 5 8 11 9 20 25 21 36 1 16 -3 19 -22 15 -20 -3 -22 -1
-13 10 6 8 19 11 28 8 14 -6 15 -4 4 9 -18 23 9 45 30 24 10 -9 20 -11 29 -5
11 7 10 9 -4 9 -10 0 -16 4 -12 9 3 5 0 13 -6 17 -8 5 -9 3 -4 -7 7 -12 6 -12
-7 -1 -12 10 -18 9 -28 -3 -7 -8 -16 -15 -21 -15 -5 0 0 9 11 20 11 11 23 19
27 19 19 -3 33 2 33 12 0 6 -7 8 -16 5 -8 -3 -12 -2 -9 4 3 6 1 10 -4 10 -6 0
-11 4 -11 10 0 5 8 6 18 3 15 -6 15 -5 4 10 -8 8 -21 13 -30 10 -14 -4 -15 -3
-2 6 9 6 18 7 24 1 23 -23 27 -7 5 17 -22 25 -22 26 -1 9 24 -21 29 -11 8 16
-7 10 -16 15 -19 11 -4 -3 -7 -1 -7 5 0 19 17 14 33 -9 8 -11 18 -16 21 -11 3
5 -3 17 -14 27 -11 10 -17 22 -14 26 3 5 0 9 -7 9 -7 0 -9 3 -6 6 4 4 14 1 23
-7 15 -12 16 -12 10 8 -6 19 -3 21 21 19 15 -1 33 -5 39 -9 7 -4 18 1 25 11
12 15 12 16 -2 5 -13 -11 -19 -9 -34 7 -17 19 -9 28 10 12 6 -4 9 -6 8 -3 -1
2 2 11 7 20 7 14 3 17 -18 18 -15 0 -19 -1 -9 -4 9 -2 17 -8 17 -12 0 -11 -35
-7 -37 4 -1 6 -12 13 -25 17 -22 6 -22 6 -1 7 15 1 20 6 16 19 -2 10 4 26 15
35 17 15 20 16 25 3 4 -11 1 -13 -11 -10 -15 5 -15 4 -2 -6 13 -10 13 -11 -2
-6 -11 3 -18 0 -18 -9 0 -11 7 -11 40 3 30 13 35 18 20 20 -24 4 -26 17 -5 26
8 3 15 12 15 21 0 8 5 15 10 15 6 0 10 5 10 11 0 8 -5 8 -15 -1 -8 -7 -15 -19
-15 -26 0 -8 -6 -11 -17 -7 -9 4 -14 2 -11 -3 4 -5 -5 -10 -18 -10 -13 -1 -21
2 -18 7 3 5 12 9 20 9 8 0 12 5 9 10 -4 7 -14 6 -28 -1 -15 -7 -12 -2 8 14 16
14 33 23 37 20 5 -2 8 0 8 5 0 5 -11 14 -24 21 l-24 13 20 20 c17 17 18 22 7
29 -8 5 -9 9 -4 10 6 0 18 2 28 4 10 2 14 -1 11 -7 -4 -7 -2 -8 4 -4 7 4 12 0
13 -11 0 -14 2 -15 6 -3 3 8 11 18 17 22 6 4 7 10 3 15 -5 4 -12 1 -16 -6 -6
-8 -11 -9 -15 -3 -3 6 5 19 19 30 17 14 21 22 13 25 -10 4 -10 7 -1 14 9 6 6
12 -10 22 -15 9 -18 10 -10 1 14 -15 6 -43 -10 -33 -5 3 -7 1 -3 -5 3 -6 2
-13 -4 -17 -6 -4 -8 -11 -5 -16 4 -5 1 -9 -4 -9 -6 0 -11 7 -11 15 0 8 5 15
12 15 6 0 8 3 5 7 -4 3 -2 12 5 20 8 11 8 17 -2 26 -7 7 -10 7 -7 2 7 -13 -21
-51 -30 -41 -4 4 0 12 9 17 10 5 15 16 11 25 -6 15 19 15 61 -2 14 -5 17 -4
12 4 -4 7 -15 12 -24 12 -14 0 -13 2 3 13 11 9 15 19 10 27 -6 10 -3 12 11 7
18 -7 18 -6 2 7 -10 7 -18 22 -18 34 0 11 -5 22 -12 24 -7 3 -5 7 6 11 12 5
15 3 10 -6 -6 -9 -3 -8 8 1 14 11 17 10 21 -5 2 -10 3 -4 2 14 -2 18 2 34 7
35 5 2 10 11 11 20 2 9 9 24 17 34 14 18 13 18 -8 0 -12 -11 -22 -14 -22 -8 0
6 5 14 10 17 6 4 7 11 4 17 -5 7 0 9 14 6 12 -4 20 -2 16 3 -3 5 -12 9 -20 9
-8 0 -14 3 -13 8 3 17 -14 51 -22 46 -5 -3 -6 -11 -2 -17 10 -17 11 -77 1 -71
-14 9 -4 -20 10 -31 11 -9 11 -14 -4 -26 -16 -12 -17 -12 -11 3 5 13 1 16 -21
12 -23 -4 -25 -2 -11 8 9 7 17 16 17 21 1 4 2 8 3 10 6 21 5 37 -4 37 -6 0 -2
6 9 14 18 14 18 15 1 22 -15 5 -16 9 -5 15 10 7 10 9 1 9 -7 0 -13 5 -13 11 0
8 4 9 13 0 14 -11 27 -5 27 11 0 5 -6 6 -12 2 -10 -6 -10 -5 -1 8 7 8 10 18 6
21 -3 4 -1 7 5 7 7 0 12 4 12 10 0 5 -8 7 -17 4 -13 -4 -14 -3 -5 3 7 5 10 17
6 26 -3 10 -1 17 6 17 6 0 9 -4 6 -9 -3 -5 1 -11 9 -15 23 -9 18 20 -7 36 -17
11 -19 16 -8 23 9 5 11 4 6 -3 -4 -7 -2 -12 3 -12 6 0 11 5 11 11 0 5 5 7 11
3 8 -5 8 -8 0 -14 -9 -5 -8 -10 3 -19 18 -15 34 5 17 22 -6 6 -11 24 -11 41 0
16 -3 26 -7 22 -5 -4 -8 -13 -8 -18 0 -6 -7 -13 -15 -15 -9 -3 -11 -1 -5 4 6
4 11 15 13 23 2 8 8 17 13 18 6 3 6 8 0 16 -7 8 -4 12 12 13 12 1 17 -1 12 -5
-13 -9 -18 -35 -6 -28 6 4 9 -7 8 -25 -1 -19 3 -33 11 -35 7 -1 8 0 2 3 -5 2
-10 9 -10 14 0 6 6 7 13 3 9 -6 9 -5 0 8 -13 15 -8 28 9 28 5 0 7 -4 3 -9 -3
-5 -2 -12 3 -15 4 -2 8 6 8 18 0 17 -5 22 -18 18 -10 -2 -18 1 -18 7 0 6 6 11
14 11 8 0 17 7 20 16 5 14 4 15 -8 5 -15 -13 -36 -7 -36 10 0 5 5 9 11 9 5 0
7 -6 4 -12 -4 -7 0 -5 8 4 8 10 18 14 23 10 4 -4 2 1 -6 12 -13 16 -12 20 9
37 13 10 27 17 31 14 4 -3 14 3 21 13 13 15 12 16 -3 3 -10 -7 -18 -10 -18 -7
0 4 -9 2 -20 -4 -14 -8 -20 -8 -20 0 0 6 7 13 15 16 8 4 15 10 15 16 0 5 -4 6
-10 3 -6 -3 -10 -2 -10 3 0 5 -10 9 -22 8 -18 -1 -23 4 -23 26 -1 15 2 25 7
22 4 -2 12 5 18 16 9 17 7 22 -12 30 l-23 9 23 0 c12 1 22 -3 22 -9 0 -6 10
-5 25 2 14 6 25 15 25 20 0 5 -4 6 -10 3 -5 -3 -10 -2 -10 3 0 16 13 22 26 11
8 -7 14 -6 20 2 4 7 3 9 -3 6 -6 -4 -16 0 -23 8 -10 12 -9 15 6 16 16 0 16 2
-3 11 -13 6 -23 15 -23 20 0 5 3 7 8 4 4 -2 16 2 27 11 19 14 19 14 1 11 -10
-2 -21 3 -24 11 -3 10 0 11 9 5 9 -5 8 0 -3 18 -11 17 -14 29 -8 33 6 3 10 12
10 18 0 7 -7 3 -15 -7 -8 -10 -12 -22 -10 -27 3 -4 0 -11 -6 -15 -8 -4 -7 -9
2 -15 7 -4 10 -11 7 -15 -4 -3 -14 1 -23 9 -8 9 -23 14 -33 11 -16 -5 -16 -5
1 6 9 6 17 17 17 24 0 18 -27 40 -34 28 -3 -6 1 -13 10 -16 17 -6 10 -26 -9
-26 -8 0 -8 3 1 9 11 7 11 9 -1 14 -18 7 -15 50 4 55 11 3 11 2 1 -6 -11 -7
-10 -11 5 -17 10 -5 22 -7 26 -6 5 1 5 -4 1 -10 -4 -8 -3 -9 4 -5 15 9 15 1 1
-26 -9 -16 -8 -19 3 -16 7 3 12 18 12 36 -1 18 2 29 7 26 5 -3 9 0 9 5 0 14
-6 14 -30 1 -11 -6 -21 -6 -25 -1 -3 5 4 13 16 16 17 6 19 9 8 16 -8 5 -22 6
-31 3 -16 -5 -20 17 -6 32 4 3 4 12 2 19 -3 7 0 16 5 20 6 3 9 10 6 15 -3 5 1
43 10 84 8 41 15 76 15 78 0 2 -144 3 -320 3 -311 0 -319 -1 -324 -20 -2 -11
-10 -56 -16 -100 -6 -44 -18 -116 -25 -160 -8 -44 -17 -93 -19 -110 -3 -16
-14 -86 -25 -155 -11 -69 -22 -142 -25 -162 -3 -21 -9 -55 -12 -75 -3 -21 -8
-46 -10 -56 -3 -10 -7 -32 -9 -50 -6 -59 -25 -171 -40 -237 -2 -8 -4 -28 -4
-43 -1 -20 -5 -26 -13 -21 -10 5 -10 4 -1 -6 6 -7 9 -18 7 -25 -6 -14 -44 -8
-44 7 0 6 8 7 18 3 13 -5 14 -3 5 6 -18 18 -31 2 -28 -33 2 -18 4 -34 5 -35 1
-2 3 -8 4 -13 0 -6 8 -15 16 -20 8 -5 10 -10 4 -10 -6 0 -10 -13 -9 -30 1 -16
-2 -27 -7 -24 -5 3 -6 15 -2 26 5 16 3 19 -7 12 -12 -6 -12 -5 -1 8 8 11 9 17
2 20 -11 3 -23 49 -22 81 0 9 -3 15 -8 12 -5 -3 -7 3 -5 15 2 11 0 22 -6 25
-5 4 -6 18 -3 32 6 21 4 24 -7 18 -12 -8 -12 -6 0 8 8 10 11 20 7 24 -3 3 -6
1 -6 -6 0 -7 -5 -9 -11 -5 -17 10 12 25 36 19 17 -4 16 -3 -2 6 -13 7 -23 16
-23 21 0 5 5 6 11 2 8 -4 8 0 0 15 -7 11 -17 21 -24 21 -8 0 -9 -3 -1 -8 5 -4
10 -17 10 -29 0 -31 -17 -12 -22 24 -11 79 -17 104 -25 108 -4 3 -5 13 -2 21
5 13 7 13 14 2 6 -9 8 -5 6 11 -2 14 -10 27 -18 29 -11 3 -12 2 -1 -6 11 -8
11 -10 0 -15 -9 -3 -14 3 -15 17 -1 11 -3 31 -6 43 -4 13 0 23 9 27 17 7 18
-6 2 -23 -7 -7 -8 -12 -3 -11 21 4 36 0 30 -9 -3 -5 -2 -12 3 -15 4 -2 8 6 8
19 0 16 -4 21 -15 17 -9 -3 -12 -1 -8 5 4 6 3 22 -2 35 -7 17 -10 18 -10 6 -1
-10 -8 -18 -17 -18 -8 0 -12 5 -9 10 4 6 1 18 -7 27 -9 12 -9 15 0 9 6 -4 12
-3 12 3 0 5 -4 11 -10 13 -5 2 -11 13 -13 25 -2 12 -6 26 -10 29 -4 4 -7 14
-7 23 0 12 3 12 12 3 15 -15 28 -15 28 -1 0 5 -5 7 -11 3 -7 -4 -10 -1 -7 7 3
8 12 13 22 11 9 -2 16 1 16 7 0 11 -19 9 -38 -3 -16 -9 -25 -2 -28 22 -2 9 -5
30 -8 45 -2 15 -9 33 -14 40 -5 7 -8 24 -6 40 1 15 -1 25 -6 22 -5 -3 -7 4 -5
17 3 12 -1 26 -8 30 -9 6 -9 8 1 8 6 0 12 5 12 11 0 5 -4 7 -10 4 -5 -3 -11
-1 -11 4 -2 14 -6 30 -9 34 -1 1 -3 9 -5 17 -7 39 -79 316 -82 320 -9 10 -464
5 -472 -5 -5 -5 -12 -26 -16 -45 -4 -19 -23 -100 -42 -180 -19 -80 -37 -156
-40 -170 -2 -14 -18 -79 -35 -145 -16 -66 -32 -127 -33 -135 -15 -70 -49 -212
-69 -290 -24 -89 -33 -128 -41 -175 -2 -11 -4 -22 -5 -25 -1 -3 -2 -8 -1 -12
0 -5 -3 -8 -7 -8 -4 0 -9 -9 -10 -20 -1 -11 -3 -29 -4 -40 -2 -22 -13 -26 -23
-10 -5 8 -12 7 -23 -2 -14 -10 -15 -10 -5 1 9 11 9 20 -3 44 -9 16 -11 26 -5
23 6 -4 11 -3 11 2 0 6 -8 13 -17 16 -12 5 -13 10 -6 17 13 13 36 2 28 -12 -4
-5 -1 -9 6 -9 8 0 8 -4 -1 -15 -7 -9 -10 -18 -6 -22 3 -3 6 -1 6 5 0 7 3 11 8
11 19 -3 23 2 12 16 -10 12 -10 18 0 30 9 10 9 15 1 15 -6 0 -11 -5 -11 -11 0
-5 -5 -7 -10 -4 -6 4 -8 10 -5 15 3 5 0 12 -6 16 -7 4 -9 3 -6 -3 3 -5 0 -10
-8 -10 -8 0 -15 4 -15 8 0 12 24 17 42 7 14 -6 16 -5 12 7 -3 8 -10 13 -14 10
-13 -8 -8 39 5 47 6 5 4 8 -5 8 -13 0 -13 2 0 11 12 9 12 10 -3 5 -20 -7 -57
9 -57 24 0 6 8 10 18 10 13 0 14 -2 4 -9 -11 -7 -11 -9 2 -14 8 -3 18 -2 22 4
3 6 13 8 21 5 8 -4 11 -1 8 5 -4 6 -13 8 -21 5 -8 -3 -17 1 -20 9 -4 8 -10 13
-15 10 -15 -10 -31 33 -19 54 6 12 6 22 1 25 -5 4 -11 0 -14 -6 -3 -7 -4 3 -2
22 1 19 -2 41 -8 48 -5 6 -6 12 -3 12 4 0 2 9 -4 20 -6 11 -7 20 -3 19 21 -4
25 2 9 14 -15 11 -16 15 -4 25 11 9 15 9 16 -1 1 -21 11 -57 18 -69 4 -6 3 -8
-4 -4 -6 3 -13 2 -17 -4 -3 -5 -1 -10 5 -10 7 0 9 -7 6 -16 -4 -10 -2 -13 7
-8 9 6 9 4 -1 -8 -9 -11 -10 -18 -2 -23 5 -3 10 2 10 11 0 16 2 15 21 -2 22
-19 22 -19 8 4 -8 12 -17 22 -21 22 -5 0 -8 7 -8 17 0 15 2 15 19 -1 14 -13
21 -14 27 -5 4 7 3 10 -3 6 -8 -5 -49 31 -41 37 2 2 12 8 23 15 19 12 19 12
-2 6 -27 -7 -49 25 -30 45 9 10 9 14 -1 17 -19 7 -4 23 16 17 15 -5 15 -4 -1
6 -9 6 -15 15 -12 20 3 5 -4 12 -15 15 -17 5 -19 10 -10 21 9 10 8 17 -6 31
-17 17 -18 17 -11 0 4 -11 3 -16 -4 -12 -5 4 -7 16 -3 28 6 19 5 20 -9 9 -13
-11 -15 -11 -13 0 1 7 5 19 9 26 8 12 2 16 -18 12 -5 -1 -1 8 9 19 24 26 26
26 21 1 -2 -12 0 -18 6 -15 5 4 7 11 4 16 -4 5 -1 9 6 9 10 0 10 3 2 11 -8 8
-17 8 -31 0 -17 -9 -20 -8 -17 7 1 9 -3 23 -9 31 -8 11 -8 13 2 7 15 -9 16 6
1 21 -9 9 -7 10 9 6 12 -3 19 -9 16 -14 -3 -5 -1 -9 5 -9 5 0 12 4 15 9 5 8
-42 36 -56 33 -3 -1 -4 12 -2 27 3 16 0 32 -6 36 -13 8 -13 35 1 35 6 0 8 -7
5 -16 -4 -10 -2 -13 6 -8 6 4 8 3 4 -4 -3 -6 -2 -13 3 -17 5 -3 8 -14 6 -25
-3 -13 0 -18 7 -14 7 4 8 3 4 -4 -4 -7 -3 -12 3 -12 5 0 13 10 17 23 14 42 13
47 -6 37 -24 -13 -34 0 -12 17 16 12 16 13 -2 6 -13 -4 -17 -3 -12 5 3 6 -2
13 -13 17 -20 6 -38 56 -26 75 3 5 1 10 -6 10 -8 0 -7 5 2 17 8 9 9 14 3 10
-7 -4 -14 7 -18 31 -3 20 -9 51 -12 67 -7 35 -11 62 -13 90 -1 22 95 21 -928
16 l-293 -1 -4 -22 c-3 -13 -8 -48 -11 -78 -3 -30 -7 -64 -10 -75 -2 -11 -4
-24 -4 -30 -1 -5 -9 2 -18 15 -71 101 -190 181 -322 215 -73 19 -208 25 -296
13z m1258 -133 c3 -16 10 -52 16 -79 9 -38 9 -52 -1 -64 -11 -13 -11 -14 1 -7
10 5 12 4 7 -3 -4 -7 -2 -12 5 -12 9 0 9 -3 0 -14 -9 -11 -9 -15 1 -19 7 -2 2
-4 -12 -3 l-25 1 -3 119 c-2 117 1 142 11 81z m741 -290 c-4 -8 -10 -12 -15
-9 -11 6 -2 24 11 24 5 0 7 -7 4 -15z m2126 11 c0 -2 -7 -7 -16 -10 -8 -3 -12
-2 -9 4 6 10 25 14 25 6z m46 -18 c4 -6 3 -8 -4 -4 -14 9 -26 -12 -15 -27 14
-18 10 -42 -7 -42 -8 0 -20 -6 -26 -14 -9 -11 -12 -12 -19 -1 -5 9 -4 11 3 6
7 -4 13 -1 14 6 0 7 2 18 2 23 1 6 5 16 10 24 5 8 3 17 -5 23 -11 8 -10 9 3 4
10 -3 20 -1 23 4 8 13 12 12 21 -2z m-79 -23 c0 -8 -4 -12 -9 -9 -4 3 -8 9 -8
15 0 5 4 9 8 9 5 0 9 -7 9 -15z m58 -75 c3 -5 1 -10 -4 -10 -6 0 -11 5 -11 10
0 6 2 10 4 10 3 0 8 -4 11 -10z m-2811 -18 c3 -5 -1 -9 -9 -9 -8 0 -12 4 -9 9
3 4 7 8 9 8 2 0 6 -4 9 -8z m-43 -25 c-6 -8 -7 -18 -3 -22 4 -5 1 -5 -6 -1
-10 6 -10 11 -1 22 6 8 14 14 16 14 3 0 0 -6 -6 -13z m23 -75 c3 -5 -1 -9 -9
-9 -8 0 -12 4 -9 9 3 4 7 8 9 8 2 0 6 -4 9 -8z m2730 -8 c3 -8 2 -12 -4 -9 -6
3 -10 10 -10 16 0 14 7 11 14 -7z m76 -19 c-6 -8 -9 -19 -5 -25 3 -5 -1 -13
-10 -16 -10 -4 -12 -10 -6 -18 7 -8 4 -12 -10 -13 -22 -2 -25 7 -7 25 8 8 8
15 -1 26 -17 20 -9 31 24 34 23 2 25 0 15 -13z m-2780 -9 c-7 -7 -13 -7 -20 0
-6 6 -3 10 10 10 13 0 16 -4 10 -10z m670 -1 c-6 -7 -1 -18 12 -30 20 -16 21
-19 6 -29 -14 -8 -14 -11 -2 -20 11 -9 9 -11 -12 -13 -17 0 -22 2 -14 7 8 5 9
9 1 14 -8 5 -8 13 -1 26 6 11 6 21 1 24 -5 4 -11 0 -14 -6 -2 -7 -4 -2 -3 12
1 17 7 26 18 26 11 0 14 -4 8 -11z m-644 -12 c-3 -20 -22 -28 -31 -14 -4 7 0
8 10 5 9 -4 15 -3 14 2 -2 13 0 24 5 24 2 0 3 -8 2 -17z m2681 -5 c-3 -8 -6
-5 -6 6 -1 11 2 17 5 13 3 -3 4 -12 1 -19z m-2742 2 c3 -6 -1 -7 -9 -4 -18 7
-21 14 -7 14 6 0 13 -4 16 -10z m35 -30 c8 -5 11 -10 5 -10 -5 0 -17 5 -25 10
-8 5 -10 10 -5 10 6 0 17 -5 25 -10z m-18 -25 c0 -5 4 -19 10 -30 9 -19 9 -19
-6 -1 -9 10 -13 23 -9 29 4 6 -2 8 -15 5 -13 -4 -20 -2 -16 3 7 13 35 8 36 -6z
m50 8 c-10 -4 -10 -8 -1 -19 8 -10 8 -14 0 -14 -6 0 -11 6 -11 13 0 8 -4 7
-10 -3 -5 -8 -10 -10 -10 -4 0 13 21 34 35 33 5 0 4 -3 -3 -6z m-1018 -44 c9
7 13 18 9 25 -3 6 0 6 8 -1 15 -15 33 -18 25 -5 -3 5 2 9 10 9 10 0 11 -4 4
-11 -16 -16 -12 -30 5 -16 11 9 18 10 28 1 8 -6 17 -8 20 -4 4 3 7 2 7 -4 0
-6 -7 -14 -16 -17 -8 -3 -12 -2 -9 4 3 6 2 10 -3 10 -5 0 -12 -8 -14 -18 -5
-16 -2 -17 28 -8 18 6 30 15 27 21 -4 5 3 1 15 -9 12 -11 25 -17 28 -14 3 3
-7 15 -21 26 -23 18 -24 21 -6 19 11 0 18 -4 16 -7 -5 -9 22 -29 30 -22 4 4 5
1 3 -7 -2 -7 3 -16 11 -19 8 -3 11 0 7 7 -5 7 -1 9 9 4 13 -5 14 -7 3 -14 -11
-7 -10 -11 2 -19 9 -6 10 -10 3 -10 -6 0 -15 5 -19 11 -4 7 -10 7 -16 1 -6 -6
-17 -8 -26 -5 -10 4 -13 2 -8 -5 9 -15 36 -16 36 -1 0 5 5 7 10 4 8 -5 8 -11
1 -19 -6 -7 -8 -16 -4 -19 3 -4 -2 -7 -13 -8 -11 0 -14 -3 -6 -6 15 -6 44 16
36 28 -3 5 0 9 5 9 15 0 14 -23 -1 -39 -10 -11 -10 -13 0 -7 7 5 12 1 12 -9 0
-12 -5 -15 -17 -11 -17 6 -17 5 -1 -7 15 -12 17 -53 17 -465 l1 -451 -32 -36
c-57 -66 -166 -105 -276 -100 -64 3 -134 24 -126 37 3 4 -2 5 -10 2 -9 -3 -16
-1 -16 5 0 6 -6 11 -14 11 -18 0 -78 68 -71 81 4 5 10 7 14 5 4 -3 8 1 8 9 0
11 -4 12 -13 4 -10 -8 -18 -6 -31 6 -16 17 -16 17 7 11 l25 -7 -25 15 c-14 8
-24 17 -22 20 6 14 1 27 -8 21 -5 -3 -7 0 -4 8 3 8 1 18 -5 21 -5 4 -8 18 -5
32 3 17 1 23 -7 19 -8 -6 -8 -2 0 14 10 18 9 21 -6 22 -17 1 -17 2 0 6 18 5
24 25 6 20 -6 -1 -14 5 -16 13 -3 9 -1 11 4 5 10 -13 33 -17 33 -7 0 5 7 9 15
9 10 0 14 -6 10 -16 -5 -12 -3 -13 6 -4 13 13 2 36 -13 27 -8 -5 -9 -1 -4 11
6 18 6 18 -11 2 -13 -11 -23 -13 -33 -7 -13 9 -13 10 0 11 8 1 18 1 23 0 14
-2 7 19 -12 38 -17 17 -18 20 -4 26 13 4 14 8 5 17 -7 7 -12 17 -12 22 0 6 7
0 16 -13 14 -19 14 -25 3 -32 -8 -5 -11 -9 -6 -10 4 -1 12 -3 17 -4 6 -1 15
-3 21 -4 5 0 7 -5 4 -11 -3 -5 -1 -10 5 -10 6 0 8 -5 4 -12 -4 -7 -3 -8 4 -4
8 5 8 13 0 31 -6 14 -14 23 -16 20 -9 -9 -32 54 -26 70 3 7 11 12 19 9 16 -7
26 19 13 37 -8 11 -9 11 -4 -3 3 -10 1 -20 -4 -23 -6 -4 -10 7 -10 24 0 17 4
31 8 31 5 0 14 12 21 28 10 24 10 25 -3 9 -11 -14 -15 -15 -19 -4 -6 17 38 41
56 31 9 -5 9 -4 1 5 -9 10 -17 10 -32 2 -26 -14 -32 -14 -32 -1 0 6 6 10 14
10 8 0 18 5 22 11 4 7 0 9 -13 5 -14 -4 -20 -2 -20 9 0 9 6 14 12 11 7 -2 11
6 10 25 -1 23 2 29 14 24 14 -4 14 -4 1 7 -18 15 -19 25 -2 56 7 12 18 19 24
16 7 -5 8 -2 3 5 -5 9 -10 10 -18 2 -19 -19 -31 -12 -14 7 10 10 14 22 10 25
-3 4 1 7 11 7 9 0 15 -4 11 -9 -3 -5 -1 -12 4 -15 5 -4 8 1 7 11 -2 9 -9 19
-17 22 -18 8 -24 42 -7 39 7 -2 12 5 12 14 -1 9 5 19 12 22 11 4 13 -1 8 -18
-6 -24 19 -45 31 -25 4 5 1 8 -6 7 -8 -2 -14 8 -14 25 -1 21 3 26 15 22 8 -3
4 4 -10 15 -22 17 -22 20 -6 20 12 0 16 5 12 15 -8 21 26 16 36 -5 6 -11 7
-10 5 5 -2 11 -8 19 -14 18 -16 -4 -12 35 5 42 8 3 12 -1 10 -12 -2 -9 5 -17
15 -19 15 -2 16 0 6 12 -16 20 7 49 27 33 8 -6 11 -16 7 -22 -3 -6 -1 -7 5 -3
9 5 8 12 -1 26 -14 24 -21 25 -41 4 -10 -9 -16 -11 -16 -4 0 7 -6 5 -16 -4
-20 -21 -27 -20 -41 3 -10 15 -9 20 2 25 8 3 17 0 21 -6 4 -7 3 -8 -4 -4 -7 4
-12 3 -12 -2 0 -17 13 -22 27 -11 10 9 10 15 2 25 -8 10 -8 14 0 14 6 0 11 -4
11 -8 0 -4 9 -8 21 -9 16 -2 18 1 9 12 -17 21 -2 39 18 23 13 -11 15 -11 10 2
-3 9 0 24 8 35 8 10 14 14 14 8 0 -7 -5 -15 -11 -18 -6 -5 -4 -12 8 -21 11 -9
13 -13 4 -12 -22 5 -22 -15 0 -42 l21 -25 -16 27 c-20 34 -20 44 -1 28 21 -17
29 -7 16 18 -15 28 -14 35 4 28 8 -3 19 2 24 12 7 11 11 12 11 4 0 -7 5 -10
10 -7 7 4 6 14 -1 28 -7 15 -3 12 14 -8 21 -25 27 -28 41 -16z m-9 12 c-6 -5
-25 10 -25 20 0 5 6 4 14 -3 8 -7 12 -15 11 -17z m3716 15 c5 3 9 0 9 -6 0
-15 -23 -7 -26 8 -1 7 0 8 3 2 2 -5 9 -8 14 -4z m-3860 -13 c13 -16 12 -17 -3
-4 -10 7 -18 15 -18 17 0 8 8 3 21 -13z m273 5 c-3 -4 -9 -8 -15 -8 -5 0 -9 4
-9 8 0 5 7 9 15 9 8 0 12 -4 9 -9z m3541 2 c-3 -5 -12 -10 -18 -10 -7 0 -6 4
3 10 19 12 23 12 15 0z m-2744 -17 c13 -16 12 -17 -3 -4 -17 13 -22 21 -14 21
2 0 10 -8 17 -17z m37 1 c-6 -5 27 -44 37 -44 3 0 5 9 5 19 0 13 6 19 18 18
10 0 19 -7 19 -14 0 -9 -4 -10 -14 -2 -8 7 -13 8 -13 1 0 -15 26 -33 35 -24 5
4 5 1 1 -5 -4 -7 -2 -22 4 -34 8 -14 9 -24 2 -31 -7 -7 -6 -15 3 -24 7 -8 11
-23 8 -35 -4 -13 -2 -20 4 -16 5 3 10 0 10 -8 0 -8 -4 -12 -8 -10 -4 3 -9 -2
-13 -10 -3 -8 -1 -17 4 -20 5 -3 7 -12 3 -20 -3 -8 -1 -15 5 -15 11 0 11 18
-1 38 -5 7 -4 12 2 12 11 0 14 -9 14 -42 0 -10 3 -18 7 -18 4 0 7 -7 7 -15 0
-8 -4 -12 -9 -9 -4 3 -8 0 -8 -6 0 -6 -5 -8 -10 -5 -8 5 -7 11 1 21 7 8 7 14
1 14 -13 0 -22 -24 -13 -38 3 -6 15 -10 26 -9 11 1 20 -2 20 -8 1 -5 5 -28 9
-50 5 -22 10 -47 12 -55 1 -8 6 -26 10 -39 5 -17 4 -22 -4 -17 -6 4 -4 -7 6
-24 16 -30 16 -32 -1 -45 -18 -13 -17 -14 2 -20 12 -3 21 -9 22 -13 0 -4 3
-20 6 -37 3 -16 6 -43 7 -60 0 -16 6 -34 11 -38 6 -6 6 -10 -2 -14 -7 -2 -13
-9 -13 -14 0 -6 4 -8 9 -4 12 7 20 -6 25 -42 3 -15 7 -40 10 -55 4 -16 2 -28
-4 -28 -5 0 -10 -5 -10 -11 0 -5 4 -8 10 -4 14 8 30 -58 16 -67 -8 -6 -8 -8 0
-8 7 0 14 -9 17 -20 3 -13 1 -18 -6 -14 -7 3 -3 -2 7 -10 11 -9 17 -17 13 -17
-4 -1 -12 -2 -19 -3 -6 0 -12 -7 -14 -14 -1 -7 0 -8 3 -2 3 8 9 7 19 -1 17
-14 18 -39 2 -40 -7 0 -4 -4 7 -9 14 -6 15 -9 5 -10 -12 0 -12 -2 2 -10 9 -6
15 -18 13 -28 -2 -9 -4 -20 -4 -24 -1 -4 -11 -4 -23 1 -35 13 -126 24 -197 23
-50 -1 -68 3 -77 16 -11 15 -12 14 -8 -8 2 -14 1 -18 -2 -10 -4 8 -16 21 -27
29 -17 12 -18 15 -3 23 18 10 26 11 25 2 -1 -8 22 -24 34 -24 4 0 7 5 7 11 0
5 -4 7 -10 4 -16 -10 -12 7 7 27 16 18 16 18 0 12 -9 -3 -17 -11 -17 -16 0 -6
-6 -5 -15 2 -8 6 -19 9 -24 6 -6 -4 -15 4 -21 16 -9 19 -9 21 2 8 7 -8 20 -15
28 -15 17 1 60 24 44 25 -5 0 -15 -5 -21 -11 -8 -8 -10 -1 -9 25 3 33 16 65
16 38 0 -7 5 -12 10 -12 6 0 5 8 -2 20 -13 20 -29 27 -27 13 3 -20 -2 -24 -15
-14 -11 9 -18 8 -30 -4 -9 -9 -16 -12 -16 -6 0 12 35 33 43 25 3 -3 8 -1 11 5
4 5 -3 12 -14 16 -21 7 -28 25 -9 25 5 0 8 4 5 9 -8 12 27 9 36 -4 4 -5 4 -13
1 -18 -3 -5 -9 -3 -14 4 -4 7 -11 10 -15 6 -9 -8 -1 -18 18 -21 7 -1 18 -5 25
-9 6 -4 15 -2 19 4 4 7 3 9 -4 5 -6 -3 -13 -2 -17 4 -3 5 2 11 12 11 17 1 17
2 1 6 -10 2 -18 9 -18 15 0 6 8 8 18 6 11 -3 19 0 19 7 0 10 -7 11 -24 4 -20
-7 -23 -6 -21 9 2 9 8 21 13 25 6 5 3 7 -7 3 -10 -3 -18 -1 -18 4 0 6 -5 10
-11 10 -8 0 -9 -4 0 -13 6 -8 7 -18 3 -22 -4 -5 -1 -5 5 -1 9 5 11 2 7 -8 -5
-12 -8 -12 -23 2 -9 9 -13 19 -8 20 4 2 3 10 -3 17 -9 11 -6 13 17 10 16 -2
36 1 44 6 11 7 11 9 -3 9 -10 0 -18 5 -18 10 0 12 6 13 29 1 13 -7 18 -6 18 4
0 8 -4 12 -8 9 -5 -3 -19 2 -32 11 -20 13 -24 13 -24 0 0 -8 3 -12 7 -10 3 2
6 -5 6 -15 0 -14 -5 -16 -22 -10 -12 5 -25 6 -30 2 -11 -10 7 21 24 40 8 10
19 15 25 11 5 -3 7 -1 3 5 -3 6 3 13 14 17 19 6 28 24 13 26 -49 5 -54 9 -55
48 -1 18 -5 34 -11 38 -5 3 -4 9 4 13 10 7 10 12 1 23 -10 12 -10 18 3 30 14
14 13 17 -7 31 -12 9 -17 16 -11 16 7 0 15 -5 18 -10 4 -6 11 -7 17 -4 7 4 4
11 -8 18 -11 6 -20 17 -22 24 -1 8 2 11 8 7 5 -3 10 -1 10 4 0 6 5 11 11 11 5
0 8 -3 6 -7 -3 -5 6 -9 19 -9 13 -1 24 2 24 8 0 5 -4 6 -10 3 -18 -11 -10 14
11 34 l21 19 -20 20 c-14 14 -17 22 -9 25 7 2 4 3 -6 1 -10 -1 -16 3 -14 9 2
7 10 12 18 12 30 0 38 31 10 40 -13 4 -18 12 -15 23 3 9 -1 6 -9 -8 -8 -13
-14 -32 -12 -40 2 -11 -3 -16 -18 -15 -11 1 -22 7 -23 14 -1 6 0 7 2 2 3 -6
12 -7 20 -4 12 4 12 8 -3 19 -10 7 -14 14 -9 14 5 0 2 8 -5 17 -8 9 -9 14 -2
10 6 -4 14 -1 17 5 3 7 3 1 1 -14 -2 -16 1 -28 6 -28 8 0 13 21 10 47 -2 16
32 9 38 -8 2 -7 15 -22 28 -32 24 -20 31 -39 11 -34 -6 1 -13 -11 -14 -28 -2
-20 0 -25 5 -16 5 8 7 20 4 28 -3 8 0 13 7 11 23 -6 21 19 -5 44 -23 24 -24
26 -8 39 15 12 16 12 10 -4 -4 -10 -3 -16 3 -12 11 7 5 64 -9 78 -16 16 -13
31 3 18 11 -9 16 -9 22 0 4 7 3 9 -3 6 -7 -4 -10 5 -8 23 1 17 -2 28 -9 27 -6
-1 -10 4 -8 11 3 17 -2 15 -24 -10 -12 -15 -13 -18 -3 -10 14 11 16 9 15 -10
0 -13 -10 -28 -21 -35 -25 -14 -30 -54 -6 -45 13 5 13 4 1 -9 -13 -14 -16 -13
-36 8 -11 12 -23 20 -26 18 -2 -3 -5 2 -5 10 0 13 3 13 19 -2 10 -9 18 -11 18
-6 0 6 -7 16 -15 23 -9 7 -13 15 -11 18 3 2 1 14 -5 26 -10 20 -10 20 5 2 20
-25 31 -15 16 14 -7 12 -8 20 -2 16 5 -3 13 1 16 10 4 12 2 15 -9 10 -8 -3
-15 -1 -15 4 0 10 22 14 49 10 13 -2 13 0 0 16 -8 11 -9 15 -1 10 6 -4 12 -3
12 3 0 5 -9 13 -20 16 -11 4 -17 11 -14 17 5 7 1 9 -8 5 -11 -4 -15 -1 -13 11
5 23 4 22 12 22 3 0 4 -3 1 -6z m2732 -23 c0 -5 -7 -12 -16 -15 -14 -5 -15 -4
-4 9 14 17 20 19 20 6z m-3890 -5 c0 -2 -8 -10 -17 -17 -16 -13 -17 -12 -4 4
13 16 21 21 21 13z m1135 -16 c3 -5 1 -10 -4 -10 -6 0 -11 5 -11 10 0 6 2 10
4 10 3 0 8 -4 11 -10z m-1211 -18 c3 -5 -1 -9 -9 -9 -8 0 -12 4 -9 9 3 4 7 8
9 8 2 0 6 -4 9 -8z m1246 -2 c0 -5 -4 -10 -10 -10 -5 0 -10 5 -10 10 0 6 5 10
10 10 6 0 10 -4 10 -10z m-37 -22 c-2 -5 -10 -8 -18 -8 -8 0 -16 3 -18 8 -3 4
5 7 18 7 13 0 21 -3 18 -7z m-1160 -52 c7 3 1 -4 -12 -15 -14 -13 -18 -21 -10
-21 9 -1 8 -4 -4 -11 -14 -8 -15 -14 -7 -24 9 -10 7 -16 -9 -24 -13 -8 -18
-17 -14 -28 4 -10 2 -14 -5 -9 -6 3 -13 2 -17 -4 -4 -6 -11 -7 -17 -4 -6 4 -8
1 -6 -7 3 -8 10 -13 15 -12 17 3 8 -49 -10 -62 -16 -12 -16 -13 -1 -19 11 -4
13 -10 7 -19 -6 -6 -9 -26 -7 -44 1 -18 -4 -37 -12 -44 -7 -6 -11 -15 -8 -20
6 -11 -32 -6 -43 5 -5 4 -3 7 2 6 35 -7 39 6 16 50 -8 14 -10 22 -7 18 4 -3
16 1 27 10 17 15 17 18 3 40 -9 14 -11 21 -4 17 9 -5 10 -1 5 14 -4 15 -1 23
10 27 12 5 13 9 4 20 -9 11 -8 18 1 29 7 8 16 13 20 10 15 -9 17 20 4 46 -13
27 -10 39 10 39 6 0 5 -4 -2 -9 -11 -6 -10 -11 3 -25 9 -9 21 -16 28 -16 6 0
2 7 -9 15 -13 10 -15 14 -5 15 8 0 11 3 8 6 -3 4 0 16 8 26 7 11 11 28 8 37
-4 13 -2 13 7 -2 6 -9 17 -15 23 -11z m1142 15 c3 -5 2 -12 -3 -15 -5 -3 -9 1
-9 9 0 17 3 19 12 6z m-1191 -26 c-4 -8 -8 -15 -10 -15 -2 0 -4 7 -4 15 0 8 4
15 10 15 5 0 7 -7 4 -15z m1312 -31 c1 -9 0 -13 -4 -10 -3 4 -7 14 -8 22 -1 9
0 13 4 10 3 -4 7 -14 8 -22z m2609 -4 c-3 -5 -12 -10 -18 -10 -7 0 -6 4 3 10
19 12 23 12 15 0z m-3969 -22 c3 -4 -1 -5 -10 -4 -8 1 -18 5 -22 8 -3 4 1 5
10 4 8 -1 18 -5 22 -8z m1349 -28 c-3 -5 1 -11 7 -13 7 -3 4 -6 -7 -6 -15 -1
-17 -3 -6 -10 9 -6 10 -11 2 -15 -18 -11 -34 4 -21 19 8 10 7 16 -7 24 -15 9
-16 12 -3 20 16 11 44 -5 35 -19z m-1338 -6 c-3 -3 -12 -4 -19 -1 -8 3 -5 6 6
6 11 1 17 -2 13 -5z m1240 -10 c-3 -3 -12 -4 -19 -1 -8 3 -5 6 6 6 11 1 17 -2
13 -5z m-1267 -8 c0 -3 -4 -8 -10 -11 -5 -3 -10 -1 -10 4 0 6 5 11 10 11 6 0
10 -2 10 -4z m1295 -6 c3 -5 1 -10 -4 -10 -6 0 -11 5 -11 10 0 6 2 10 4 10 3
0 8 -4 11 -10z m-30 -18 c-3 -3 -11 0 -18 7 -9 10 -8 11 6 5 10 -3 15 -9 12
-12z m2713 -16 c-7 -8 -15 -12 -17 -11 -5 6 10 25 20 25 5 0 4 -6 -3 -14z
m-1918 -7 c0 -5 6 -7 13 -3 9 6 9 4 -1 -8 -9 -12 -10 -17 -1 -20 7 -2 6 -8 -4
-16 -12 -10 -17 -10 -23 -1 -4 8 -3 9 4 5 13 -8 17 6 5 18 -11 10 -12 36 -2
36 5 0 9 -5 9 -11z m-716 -38 c3 -5 -2 -11 -12 -13 -11 -3 -19 0 -19 8 0 16
23 19 31 5z m2616 5 c0 -3 -4 -8 -10 -11 -5 -3 -10 -1 -10 4 0 6 5 11 10 11 6
0 10 -2 10 -4z m-3985 -47 c-4 -5 0 -9 7 -9 8 0 6 -5 -5 -11 -10 -6 -21 -8
-24 -5 -4 3 -1 6 5 6 6 0 9 9 7 20 -2 12 0 18 6 15 5 -4 7 -11 4 -16z m1285 5
c0 -8 -19 -13 -24 -6 -3 5 1 9 9 9 8 0 15 -2 15 -3z m67 -78 c-18 -20 -25 -22
-45 -13 l-23 11 23 13 c13 7 20 13 16 14 -24 5 -34 3 -43 -6 -5 -6 -9 -8 -8
-6 2 2 -2 10 -7 16 -8 9 -4 12 14 10 14 -2 31 4 38 12 11 14 10 15 -12 8 -23
-7 -24 -6 -6 7 17 13 22 12 46 -14 l28 -29 -21 -23z m2613 56 c0 -5 -7 -9 -15
-9 -8 0 -12 4 -9 9 3 4 9 8 15 8 5 0 9 -4 9 -8z m61 -19 c8 -8 8 -13 0 -17 -6
-4 -11 0 -11 9 0 13 -4 12 -22 -5 -12 -11 -24 -17 -27 -14 -3 3 1 9 8 13 7 5
11 13 8 18 -8 13 31 9 44 -4z m-4048 -38 c-3 -9 -8 -14 -10 -11 -3 3 -2 9 2
15 9 16 15 13 8 -4z m3991 -17 c-5 -8 -2 -9 12 -4 10 4 15 4 12 0 -4 -4 -2
-16 4 -28 10 -19 8 -18 -15 4 -22 21 -27 40 -11 40 3 0 2 -5 -2 -12z m-2674
-3 c0 -7 -30 -13 -34 -7 -3 4 4 9 15 9 10 1 19 0 19 -2z m2625 -4 c3 -5 2 -12
-3 -15 -5 -3 -9 1 -9 9 0 17 3 19 12 6z m-631 -9 c8 -13 -5 -52 -17 -52 -6 0
-7 3 -4 7 4 3 2 12 -4 19 -11 14 -4 34 11 34 5 0 11 -4 14 -8z m-3309 -32 c3
-5 1 -10 -4 -10 -6 0 -11 5 -11 10 0 6 2 10 4 10 3 0 8 -4 11 -10z m41 -20 c0
-9 -8 -17 -18 -17 -10 -1 -18 3 -18 8 0 6 5 7 12 3 7 -5 9 -2 6 8 -4 8 -1 15
6 15 6 0 12 -8 12 -17z m2121 -7 c0 -13 -3 -12 -15 3 -14 18 -14 18 -7 -1 13
-38 13 -64 -2 -58 -10 4 -11 9 -2 19 9 11 9 14 0 14 -7 0 -10 4 -6 9 3 5 0 13
-6 17 -8 5 -8 9 2 14 17 11 36 2 36 -17z m1861 12 c6 -5 -16 -24 -28 -25 -3 0
-10 8 -17 19 -10 16 -8 18 14 15 13 -1 28 -5 31 -9z m-3975 -47 c2 -7 -5 -25
-15 -40 -11 -16 -15 -28 -9 -28 18 0 12 -19 -9 -30 -14 -7 -20 -7 -20 0 0 5 7
10 16 10 8 0 12 5 9 10 -4 6 -12 7 -18 3 -7 -3 -3 4 8 17 18 21 19 23 3 33
-15 10 -15 12 0 24 22 16 29 16 35 1z m-43 -40 c0 -4 -4 -8 -9 -8 -6 0 -12 4
-15 8 -3 5 1 9 9 9 8 0 15 -4 15 -9z m1300 6 c0 -8 -19 -13 -24 -6 -3 5 1 9 9
9 8 0 15 -2 15 -3z m2710 -18 c0 -2 -8 -10 -17 -17 -16 -13 -17 -12 -4 4 13
16 21 21 21 13z m-74 -15 c-4 -5 -2 -11 4 -13 6 -2 1 -9 -11 -16 -17 -11 -20
-11 -13 0 5 7 9 16 10 21 3 15 4 17 10 17 3 0 3 -4 0 -9z m-2640 -17 c-1 -8
-6 -17 -12 -21 -5 -4 -6 -4 -2 1 4 5 3 14 -2 21 -7 8 -5 12 4 12 8 0 13 -6 12
-13z m64 -75 c0 -6 -46 -29 -58 -29 -4 0 0 5 8 10 13 9 13 10 0 10 -13 0 -13
2 -1 9 16 10 51 10 51 0z m1344 3 c3 -5 -1 -9 -9 -9 -8 0 -12 4 -9 9 3 4 7 8
9 8 2 0 6 -4 9 -8z m56 -3 c0 -4 -9 -7 -19 -6 -11 0 -18 4 -16 7 6 9 35 8 35
-1z m1170 -34 c0 -1 -6 -7 -13 -13 -10 -8 -13 -6 -13 7 0 11 6 17 13 14 7 -3
13 -6 13 -8z m-3925 -16 c-4 -5 -12 -9 -18 -8 -9 0 -8 2 1 6 6 2 9 10 6 15 -4
7 -2 8 5 4 6 -4 9 -12 6 -17z m2705 -51 c0 -5 -9 -3 -20 4 -11 7 -20 16 -20
20 0 5 9 3 20 -4 11 -7 20 -16 20 -20z m1174 4 c3 -5 -1 -9 -9 -9 -8 0 -12 4
-9 9 3 4 7 8 9 8 2 0 6 -4 9 -8z m-1194 -23 c0 -5 -5 -9 -11 -9 -5 0 -7 -6 -3
-12 4 -7 3 -10 -1 -5 -15 13 -13 46 2 40 7 -3 13 -9 13 -14z m-1391 -51 c-5
-10 -13 -18 -16 -18 -3 0 -3 3 0 7 4 3 3 11 -3 17 -6 8 -3 12 10 12 15 0 16
-4 9 -18z m1352 -1 c-10 -9 -11 -8 -5 6 3 10 9 15 12 12 3 -3 0 -11 -7 -18z
m-1356 -55 c-3 -3 -11 0 -18 7 -9 10 -8 11 6 5 10 -3 15 -9 12 -12z m2614 -1
c13 -10 17 -18 10 -17 -8 0 -22 8 -31 18 -23 23 -10 23 21 -1z m-1292 -6 c0
-8 -4 -12 -9 -9 -5 3 -6 10 -3 15 9 13 12 11 12 -6z m1258 -5 c-3 -5 -12 -10
-18 -10 -7 0 -6 4 3 10 19 12 23 12 15 0z m-2548 -28 c10 -6 11 -17 4 -51 -1
-2 -8 2 -16 9 -11 9 -12 16 -5 25 8 9 7 15 -2 18 -7 3 -8 6 -3 6 6 0 15 -3 22
-7z m1303 -6 c0 -2 -8 -10 -17 -17 -16 -13 -17 -12 -4 4 13 16 21 21 21 13z
m-30 -46 c0 -5 -5 -10 -11 -10 -5 0 -7 5 -4 10 3 6 8 10 11 10 2 0 4 -4 4 -10z
m1215 1 c3 -5 2 -12 -3 -15 -5 -3 -9 1 -9 9 0 17 3 19 12 6z m-1191 -32 c-4
-8 0 -9 15 -4 11 3 21 2 21 -3 0 -17 -12 -21 -36 -10 -18 8 -21 14 -12 20 18
11 20 10 12 -3z m-1324 -5 c0 -8 -19 -13 -24 -6 -3 5 1 9 9 9 8 0 15 -2 15 -3z
m0 -46 c0 -4 -4 -8 -9 -8 -6 0 -12 4 -15 8 -3 5 1 9 9 9 8 0 15 -4 15 -9z m25
-18 c-3 -5 -11 -10 -16 -10 -6 0 -7 5 -4 10 3 6 11 10 16 10 6 0 7 -4 4 -10z
m1255 -20 c0 -5 -5 -10 -11 -10 -5 0 -7 5 -4 10 3 6 8 10 11 10 2 0 4 -4 4
-10z m-7 -35 c-3 -9 -8 -14 -10 -11 -3 3 -2 9 2 15 9 16 15 13 8 -4z m1290
-129 c4 -10 1 -13 -9 -9 -15 6 -19 23 -5 23 5 0 11 -7 14 -14z m-63 -31 c0 -8
-3 -16 -7 -18 -5 -3 -8 5 -8 18 0 13 3 21 8 18 4 -2 7 -10 7 -18z m-4340 -19
c0 -3 -4 -8 -10 -11 -5 -3 -10 -1 -10 4 0 6 5 11 10 11 6 0 10 -2 10 -4z
m4356 -101 c-3 -20 -16 -31 -16 -13 0 13 8 28 16 28 1 0 1 -7 0 -15z m-26 -5
c0 -5 -2 -10 -4 -10 -3 0 -8 5 -11 10 -3 6 -1 10 4 10 6 0 11 -4 11 -10z
m-4300 -15 c7 -9 8 -15 2 -15 -5 0 -12 7 -16 15 -3 8 -4 15 -2 15 2 0 9 -7 16
-15z m94 -23 c2 -4 -5 -9 -17 -9 -17 -2 -19 0 -7 7 18 12 18 12 24 2z m4153
-11 c0 -11 -5 -18 -9 -15 -4 3 -5 11 -1 19 7 21 12 19 10 -4z m67 -23 c-3 -4
-1 -16 5 -26 11 -20 1 -45 -14 -34 -15 11 -19 46 -4 36 8 -4 10 -3 5 5 -6 9
-11 9 -22 0 -10 -8 -14 -8 -14 0 0 6 5 11 11 11 5 0 8 4 5 8 -2 4 4 8 14 8 10
0 16 -4 14 -8z m-4274 -33 c0 -5 -5 -3 -10 5 -5 8 -10 20 -10 25 0 6 5 3 10
-5 5 -8 10 -19 10 -25z m86 23 c4 -7 4 -10 -1 -6 -4 4 -15 2 -24 -5 -14 -11
-14 -10 -2 6 16 20 18 21 27 5z m4134 -24 c0 -2 -11 -3 -24 -2 -14 1 -23 5
-20 9 4 7 44 0 44 -7z m-1223 -34 c13 0 14 -38 1 -46 -7 -5 -8 -2 -3 7 8 12 6
12 -8 0 -20 -16 -22 -22 -6 -18 6 1 14 -4 16 -11 3 -8 -1 -10 -13 -5 -12 5
-15 3 -9 -6 6 -10 3 -11 -13 -2 -25 13 -38 31 -23 31 6 0 11 -4 11 -10 0 -5 5
-10 12 -10 6 0 8 3 5 7 -4 3 0 18 9 31 15 22 15 24 1 19 -12 -4 -14 -2 -10 10
4 9 2 14 -3 10 -6 -3 -16 4 -23 15 -13 20 -13 20 17 -1 17 -11 34 -21 39 -21z
m1248 21 c-3 -5 -1 -12 5 -16 6 -4 8 -11 4 -16 -3 -5 -10 -7 -15 -4 -5 4 -9 2
-9 -4 0 -5 3 -11 8 -13 4 -1 -3 -13 -15 -24 -17 -18 -23 -19 -27 -7 -3 8 -2
12 2 10 9 -6 33 19 25 27 -3 3 -13 0 -21 -7 -13 -10 -14 -9 -7 3 6 8 10 18 10
22 0 3 4 10 9 15 5 5 6 2 1 -6 -5 -9 -3 -12 6 -9 8 3 13 12 11 22 -2 9 2 16 8
16 6 0 9 -4 5 -9z m-55 -21 c0 -5 -2 -10 -4 -10 -3 0 -8 5 -11 10 -3 6 -1 10
4 10 6 0 11 -4 11 -10z m-1240 -14 c0 -2 -7 -7 -16 -10 -8 -3 -12 -2 -9 4 6
10 25 14 25 6z m-43 -35 c0 -11 -5 -18 -9 -15 -4 3 -5 11 -1 19 7 21 12 19 10
-4z m-2722 -31 c3 -5 1 -10 -4 -10 -6 0 -11 5 -11 10 0 6 2 10 4 10 3 0 8 -4
11 -10z m3999 -2 c-3 -4 -11 -5 -19 -1 -21 7 -19 12 4 10 11 0 18 -5 15 -9z
m-1279 -8 c-3 -5 -1 -10 6 -10 7 0 10 -3 6 -6 -9 -9 -28 6 -22 17 4 5 8 9 11
9 3 0 2 -4 -1 -10z m-2659 -75 c2 -12 -2 -12 -17 -5 -23 13 -25 22 -2 13 12
-5 14 -3 8 8 -5 8 -4 11 0 6 5 -4 10 -14 11 -22z m3365 -18 c-6 -8 -8 -17 -4
-20 3 -4 1 -7 -5 -7 -15 0 -15 13 0 28 16 16 23 15 9 -1z m530 -4 c13 -16 12
-17 -3 -4 -17 13 -22 21 -14 21 2 0 10 -8 17 -17z m75 -42 c-10 -15 -38 -1
-31 17 3 8 0 22 -7 31 -6 9 1 4 16 -10 16 -15 26 -32 22 -38z m-3271 20 c3 -5
2 -12 -3 -15 -5 -3 -9 1 -9 9 0 17 3 19 12 6z m136 -9 c-7 -2 -18 1 -23 6 -8
8 -4 9 13 5 13 -4 18 -8 10 -11z m-751 -13 c0 -5 -4 -9 -8 -9 -5 0 -9 7 -9 15
0 8 4 12 9 9 4 -3 8 -9 8 -15z m715 11 c3 -5 1 -10 -4 -10 -6 0 -11 5 -11 10
0 6 2 10 4 10 3 0 8 -4 11 -10z m1844 -12 c-5 -10 -15 -18 -22 -18 -8 0 -8 3
2 9 7 5 11 13 8 18 -3 5 0 10 8 10 10 0 11 -5 4 -19z m1276 4 c-3 -3 -11 0
-18 7 -9 10 -8 11 6 5 10 -3 15 -9 12 -12z m-3229 -34 c3 -4 -1 -5 -10 -4 -8
1 -18 5 -22 8 -3 4 1 5 10 4 8 -1 18 -5 22 -8z m2687 -3 c-3 -9 -8 -14 -10
-11 -3 3 -2 9 2 15 9 16 15 13 8 -4z m-3216 -10 c0 -8 -4 -12 -9 -9 -5 3 -6
10 -3 15 9 13 12 11 12 -6z m418 -4 c3 -5 2 -12 -3 -15 -5 -3 -9 1 -9 9 0 17
3 19 12 6z m2771 0 c-4 -5 0 -11 6 -14 7 -2 9 -8 5 -13 -9 -10 -28 16 -21 28
3 4 7 8 10 8 3 0 3 -4 0 -9z m59 -1 c3 -6 -1 -7 -9 -4 -18 7 -21 14 -7 14 6 0
13 -4 16 -10z m-3212 -14 c8 5 8 2 0 -7 -22 -23 -14 -33 9 -13 19 16 20 16 9
1 -12 -15 -11 -17 7 -14 12 2 25 6 28 10 4 4 12 7 18 7 7 0 6 -4 -1 -8 -10 -7
-10 -12 0 -27 11 -14 16 -15 22 -5 5 9 4 11 -3 6 -7 -4 -12 -2 -12 4 0 18 22
6 31 -17 7 -20 -3 -24 -31 -13 -3 1 -9 2 -13 1 -5 -1 -5 4 -1 10 5 9 2 10 -9
6 -9 -3 -19 -2 -22 4 -4 5 -11 7 -16 4 -5 -4 -9 -1 -9 4 0 6 -5 10 -12 9 -7
-2 -13 10 -14 27 -1 17 0 24 3 17 3 -6 10 -9 16 -6z m-93 -8 c0 -4 -4 -8 -9
-8 -6 0 -12 4 -15 8 -3 5 1 9 9 9 8 0 15 -4 15 -9z m505 2 c-3 -5 -12 -10 -18
-10 -7 0 -6 4 3 10 19 12 23 12 15 0z m1870 -8 c-3 -3 -11 0 -18 7 -9 10 -8
11 6 5 10 -3 15 -9 12 -12z m102 3 c0 -8 -4 -12 -9 -9 -4 3 -8 9 -8 15 0 5 4
9 8 9 5 0 9 -7 9 -15z m1373 -6 c0 -6 -4 -7 -10 -4 -5 3 -10 11 -10 16 0 6 5
7 10 4 6 -3 10 -11 10 -16z m-457 -4 c-3 -9 -8 -14 -10 -11 -3 3 -2 9 2 15 9
16 15 13 8 -4z m-3173 -5 c0 -5 -4 -10 -10 -10 -5 0 -10 5 -10 10 0 6 5 10 10
10 6 0 10 -4 10 -10z m220 0 c0 -5 -2 -10 -4 -10 -3 0 -8 5 -11 10 -3 6 -1 10
4 10 6 0 11 -4 11 -10z m2837 -5 c-4 -8 -2 -17 3 -20 6 -4 10 2 11 12 0 14 2
14 6 3 10 -32 27 -60 35 -60 5 0 4 9 -2 19 -5 11 -10 23 -10 28 1 4 8 -5 17
-22 14 -26 17 -28 23 -11 6 18 7 18 13 3 3 -9 2 -17 -4 -17 -6 0 -8 -4 -4 -9
10 -18 -40 -2 -53 16 -7 10 -18 17 -23 16 -5 -2 -9 2 -9 9 0 6 -3 8 -7 5 -3
-4 -12 -2 -20 4 -10 9 -10 15 -2 25 15 19 33 18 26 -1z m343 1 c0 -2 -8 -10
-17 -17 -16 -13 -17 -12 -4 4 13 16 21 21 21 13z m-1310 -12 c0 -8 -19 -13
-24 -6 -3 5 1 9 9 9 8 0 15 -2 15 -3z m1045 -4 c3 -5 1 -10 -4 -10 -6 0 -11 5
-11 10 0 6 2 10 4 10 3 0 8 -4 11 -10z m340 1 c3 -5 2 -12 -3 -15 -5 -3 -9 1
-9 9 0 17 3 19 12 6z m22 -13 c-3 -8 -6 -5 -6 6 -1 11 2 17 5 13 3 -3 4 -12 1
-19z m-3363 -1 c-3 -8 -12 -14 -21 -14 -13 0 -13 2 3 14 10 7 19 13 21 13 1 0
0 -6 -3 -13z m3451 4 c3 -5 2 -12 -3 -15 -5 -3 -9 1 -9 9 0 17 3 19 12 6z
m-1605 -11 c0 -5 -5 -10 -11 -10 -5 0 -7 5 -4 10 3 6 8 10 11 10 2 0 4 -4 4
-10z m80 6 c0 -2 -7 -7 -16 -10 -8 -3 -12 -2 -9 4 6 10 25 14 25 6z m1180 -1
c0 -7 -30 -13 -34 -7 -3 4 4 9 15 9 10 1 19 0 19 -2z m80 1 c0 -2 -7 -7 -16
-10 -8 -3 -12 -2 -9 4 6 10 25 14 25 6z m-3240 -26 c0 -5 -2 -10 -4 -10 -3 0
-8 5 -11 10 -3 6 -1 10 4 10 6 0 11 -4 11 -10z m1960 -15 c-9 -11 -9 -15 -1
-15 7 0 9 -5 5 -12 -6 -9 -9 -9 -12 1 -3 8 -8 7 -18 -6 -10 -13 -14 -14 -12
-3 2 8 12 22 23 32 25 21 32 23 15 3z m-165 -15 c-3 -4 0 -10 7 -12 8 -3 7 -6
-3 -10 -11 -4 -15 1 -15 17 0 13 4 21 8 19 5 -3 6 -9 3 -14z m-65 -46 c0 -8
-19 -13 -24 -6 -3 5 1 9 9 9 8 0 15 -2 15 -3z m40 -4 c-8 -5 -19 -10 -25 -10
-5 0 -3 5 5 10 8 5 20 10 25 10 6 0 3 -5 -5 -10z m-53 -35 c0 -8 -4 -12 -9 -9
-5 3 -6 10 -3 15 9 13 12 11 12 -6z m-140 -80 c0 -8 -4 -12 -9 -9 -5 3 -6 10
-3 15 9 13 12 11 12 -6z m48 -5 c3 -5 1 -10 -4 -10 -6 0 -11 5 -11 10 0 6 2
10 4 10 3 0 8 -4 11 -10z m30 -25 c-2 -14 1 -27 6 -31 15 -9 10 -24 -6 -17 -9
3 -13 8 -10 11 3 3 -3 14 -12 25 -10 11 -12 17 -5 13 11 -7 17 5 13 27 -1 5 3
6 7 3 5 -3 8 -17 7 -31z m62 15 c-1 -11 -5 -20 -9 -20 -4 0 -8 9 -8 20 0 11 4
20 9 20 6 0 9 -9 8 -20z m-177 -10 c0 -5 -2 -10 -4 -10 -3 0 -8 5 -11 10 -3 6
-1 10 4 10 6 0 11 -4 11 -10z m34 -15 c-4 -8 -11 -15 -16 -15 -6 0 -5 6 2 15
7 8 14 15 16 15 2 0 1 -7 -2 -15z m-337 -10 c0 -8 -4 -12 -9 -9 -5 3 -6 10 -3
15 9 13 12 11 12 -6z m197 -29 c-3 -8 -13 -17 -22 -21 -13 -5 -13 -2 3 15 21
24 26 25 19 6z m-139 -5 c-9 -8 -36 -10 -30 -2 2 4 11 8 20 8 8 0 13 -3 10 -6z
m199 -6 c-4 -8 -8 -15 -10 -15 -2 0 -4 7 -4 15 0 8 4 15 10 15 5 0 7 -7 4 -15z
m-331 -20 c-3 -9 -8 -14 -10 -11 -3 3 -2 9 2 15 9 16 15 13 8 -4z m99 -12 c11
-26 12 -27 15 -6 2 12 12 24 21 28 14 5 15 4 5 -6 -18 -18 -16 -34 2 -19 9 8
15 8 15 2 0 -10 -29 -24 -41 -19 -3 1 -12 -3 -20 -9 -30 -25 -89 -4 -89 31 1
6 5 2 11 -7 5 -10 15 -18 21 -18 6 0 5 7 -3 17 -12 14 -12 16 1 8 22 -14 50
-13 50 1 0 7 -9 10 -22 8 -21 -4 -22 -4 -3 5 11 5 21 10 23 10 1 1 8 -11 14
-26z m262 11 c3 -9 3 -20 0 -25 -9 -15 -34 10 -27 27 7 19 19 18 27 -2z m-389
-3 c-3 -6 4 -15 15 -21 17 -9 18 -14 9 -32 -7 -12 -14 -16 -18 -10 -4 7 -13 6
-25 -4 -11 -8 -14 -14 -7 -14 7 0 9 -5 5 -12 -6 -9 -9 -9 -12 1 -2 7 -14 -1
-29 -21 -18 -24 -23 -27 -19 -11 4 12 2 24 -4 28 -5 3 -10 11 -10 18 0 6 6 2
14 -9 8 -11 18 -15 23 -10 4 5 2 11 -4 13 -7 3 -13 9 -13 15 0 6 6 6 15 -2 12
-10 16 -10 19 1 17 56 14 54 38 33 l22 -19 -16 26 c-9 15 -14 29 -11 33 10 9
15 7 8 -3z m-31 -13 c-3 -4 -9 -8 -15 -8 -5 0 -9 4 -9 8 0 5 7 9 15 9 8 0 12
-4 9 -9z m353 -13 c0 -17 -13 -20 -21 -6 -4 5 0 12 6 14 7 3 13 6 14 6 0 1 1
-6 1 -14z m-417 -85 c0 -5 -4 -10 -10 -10 -5 0 -10 5 -10 10 0 6 5 10 10 10 6
0 10 -4 10 -10z m-1600 -70 c0 -5 -2 -10 -4 -10 -3 0 -8 5 -11 10 -3 6 -1 10
4 10 6 0 11 -4 11 -10z m1546 -35 c-6 -18 -26 -11 -26 8 0 7 4 6 10 -3 8 -13
10 -12 10 4 0 11 3 17 6 13 4 -3 4 -13 0 -22z m-1491 5 c3 -5 1 -10 -4 -10 -6
0 -11 5 -11 10 0 6 2 10 4 10 3 0 8 -4 11 -10z m1489 -42 c-3 -5 -11 -5 -19 2
-9 8 -15 8 -20 0 -3 -6 -11 -8 -16 -5 -5 4 -9 2 -9 -3 0 -6 -8 -13 -17 -16
-15 -6 -15 -5 1 13 10 11 22 18 27 16 4 -3 10 -1 13 4 3 5 15 7 26 4 11 -3 17
-9 14 -15z m-1493 -11 c-10 -9 -11 -8 -5 6 3 10 9 15 12 12 3 -3 0 -11 -7 -18z
m-31 3 c0 -5 -5 -10 -11 -10 -5 0 -7 5 -4 10 3 6 8 10 11 10 2 0 4 -4 4 -10z
m1421 -103 c-1 -12 -15 -9 -19 4 -3 6 1 10 8 8 6 -3 11 -8 11 -12z m-136 -7
c3 -6 -1 -7 -9 -4 -18 7 -21 14 -7 14 6 0 13 -4 16 -10z m-1210 -10 c3 -6 -1
-7 -9 -4 -18 7 -21 14 -7 14 6 0 13 -4 16 -10z m1240 -10 c-3 -5 -12 -10 -18
-10 -7 0 -6 4 3 10 19 12 23 12 15 0z m22 -10 c-1 -11 -5 -20 -9 -20 -10 0
-10 4 -2 24 8 22 13 20 11 -4z m-27 -32 c0 -4 6 -6 13 -4 6 1 9 1 4 -1 -4 -3
-4 -10 -1 -15 4 -6 2 -8 -3 -5 -6 4 -16 0 -23 -8 -10 -12 -16 -13 -26 -4 -11
9 -14 8 -14 -1 0 -7 -7 -10 -17 -6 -15 5 -15 4 1 -9 11 -8 17 -15 14 -15 -4 0
-13 -3 -21 -6 -10 -4 -15 1 -14 13 1 11 -5 18 -17 18 -15 0 -20 8 -21 27 -1
15 2 25 6 22 4 -2 6 -13 4 -25 -5 -23 23 -23 41 1 10 11 15 12 27 2 11 -10 17
-9 26 1 11 14 6 27 -11 27 -5 0 -6 -5 -2 -12 4 -7 3 -8 -4 -4 -6 4 -9 13 -6
21 5 11 10 12 25 2 10 -6 19 -15 19 -19z m-70 8 c0 -2 -7 -7 -16 -10 -8 -3
-12 -2 -9 4 6 10 25 14 25 6z m-1002 -31 c-3 -3 -9 2 -12 12 -6 14 -5 15 5 6
7 -7 10 -15 7 -18z m-47 -32 c-8 -15 -10 -15 -11 -2 0 17 10 32 18 25 2 -3 -1
-13 -7 -23z m82 8 c-2 -10 3 -25 11 -34 9 -9 15 -22 14 -29 -2 -7 4 -12 12
-10 13 3 13 1 2 -10 -12 -11 -17 -9 -30 10 -16 24 -25 69 -16 84 9 14 12 9 7
-11z m844 -13 c4 -28 -6 -18 -12 12 -2 12 -1 20 2 16 4 -4 8 -16 10 -28z m-60
7 c0 -8 -4 -12 -9 -9 -5 3 -6 10 -3 15 9 13 12 11 12 -6z m102 8 c-3 -20 2
-26 11 -13 8 12 9 10 7 -8 -3 -21 -27 -55 -27 -39 0 4 -9 3 -20 -3 -19 -10
-19 -9 -8 15 7 16 14 21 18 14 5 -7 10 -8 14 -1 3 6 2 13 -4 17 -6 4 -8 11 -5
16 7 11 15 12 14 2z m-842 -18 c4 -4 3 -5 -4 -2 -6 4 -13 2 -15 -5 -3 -8 -6
-6 -10 4 -7 17 15 19 29 3z m673 5 c8 -5 11 -10 5 -10 -5 0 -17 5 -25 10 -8 5
-10 10 -5 10 6 0 17 -5 25 -10z m-213 -33 c0 -8 -6 -14 -14 -14 -9 0 -10 4 -2
14 6 7 12 13 14 13 1 0 2 -6 2 -13z m-183 -5 c3 -5 -1 -9 -9 -9 -8 0 -12 4 -9
9 3 4 7 8 9 8 2 0 6 -4 9 -8z m220 -8 c3 -8 2 -12 -4 -9 -6 3 -10 10 -10 16 0
14 7 11 14 -7z m201 -4 c-3 -5 -12 -10 -18 -10 -7 0 -6 4 3 10 19 12 23 12 15
0z m-444 -18 c-7 -2 -18 1 -23 6 -8 8 -4 9 13 5 13 -4 18 -8 10 -11z m82 -4
c-18 -9 -20 -14 -12 -37 8 -20 8 -23 -2 -14 -6 6 -13 22 -14 35 -2 19 2 23 24
24 25 2 25 1 4 -8z m57 -2 c-7 -7 -13 -7 -20 0 -6 6 -3 10 10 10 13 0 16 -4
10 -10z m50 -21 c0 -2 -6 -5 -13 -8 -8 -3 -14 1 -14 8 0 7 6 11 14 8 7 -3 13
-6 13 -8z m-55 -25 c-3 -5 -12 -10 -18 -10 -7 0 -6 4 3 10 19 12 23 12 15 0z"/>
<path d="M1990 3700 c0 -5 5 -10 10 -10 6 0 10 5 10 10 0 6 -4 10 -10 10 -5 0
-10 -4 -10 -10z"/>
<path d="M4867 3544 c-7 -8 3 -34 13 -34 9 0 8 26 -1 35 -3 3 -8 2 -12 -1z"/>
<path d="M4820 3330 c0 -4 6 -12 13 -18 10 -8 13 -6 13 7 0 10 -6 18 -13 18
-7 0 -13 -4 -13 -7z"/>
<path d="M2746 3273 c-6 -14 -5 -15 5 -6 7 7 10 15 7 18 -3 3 -9 -2 -12 -12z"/>
<path d="M1095 3210 c-17 -18 -20 -19 -28 -5 -7 13 -12 14 -23 4 -8 -6 -14 -8
-14 -4 0 4 -6 2 -13 -4 -8 -6 -18 -7 -23 -3 -4 4 -2 -1 5 -10 7 -10 17 -15 22
-12 5 3 9 -1 9 -8 0 -8 5 -6 11 5 7 12 17 16 30 12 12 -4 19 -2 19 6 0 7 8 5
22 -7 12 -10 18 -13 13 -5 -6 11 -4 13 8 8 11 -4 20 1 27 16 9 18 8 19 -2 6
-11 -15 -13 -15 -28 3 -15 19 -16 19 -35 -2z m29 -11 c-3 -5 -10 -7 -15 -3 -5
3 -7 10 -3 15 3 5 10 7 15 3 5 -3 7 -10 3 -15z m-72 -1 c-14 -14 -44 -20 -36
-7 3 5 9 7 14 4 5 -3 11 -1 15 5 3 5 9 10 13 10 3 0 1 -5 -6 -12z"/>
<path d="M1226 3174 c-8 -21 -8 -24 5 -24 5 0 7 5 3 12 -5 8 -2 9 11 4 15 -5
16 -4 5 9 -15 19 -16 19 -24 -1z"/>
<path d="M920 3171 c0 -5 5 -13 10 -16 6 -3 10 -2 10 4 0 5 -4 13 -10 16 -5 3
-10 2 -10 -4z"/>
<path d="M1178 3164 c-33 -17 -34 -20 -9 -20 11 0 17 5 14 10 -4 5 0 7 9 4 9
-4 15 0 15 8 0 8 -1 14 -1 14 -1 -1 -13 -8 -28 -16z"/>
<path d="M1270 3170 c0 -5 5 -10 11 -10 5 0 7 5 4 10 -3 6 -8 10 -11 10 -2 0
-4 -4 -4 -10z"/>
<path d="M1050 3158 c0 -6 3 -8 7 -5 3 4 13 1 22 -6 14 -11 14 -10 2 6 -15 20
-31 22 -31 5z"/>
<path d="M1056 3127 c3 -10 9 -15 12 -12 3 3 0 11 -7 18 -10 9 -11 8 -5 -6z"/>
<path d="M1230 3099 c0 -5 5 -7 10 -4 6 3 10 8 10 11 0 2 -4 4 -10 4 -5 0 -10
-5 -10 -11z"/>
<path d="M950 3066 c0 -2 7 -7 16 -10 8 -3 12 -2 9 4 -6 10 -25 14 -25 6z"/>
<path d="M915 3040 c3 -5 8 -10 11 -10 2 0 4 5 4 10 0 6 -5 10 -11 10 -5 0 -7
-4 -4 -10z"/>
<path d="M810 2926 c0 -2 7 -7 16 -10 8 -3 12 -2 9 4 -6 10 -25 14 -25 6z"/>
<path d="M850 2900 c0 -5 5 -10 11 -10 5 0 7 5 4 10 -3 6 -8 10 -11 10 -2 0
-4 -4 -4 -10z"/>
<path d="M796 2823 c-4 -9 -2 -21 4 -27 8 -8 9 -6 4 8 -5 13 -4 17 4 12 8 -5
10 -2 6 8 -8 20 -10 20 -18 -1z"/>
<path d="M806 2722 c-3 -5 1 -9 9 -9 8 0 12 4 9 9 -3 4 -7 8 -9 8 -2 0 -6 -4
-9 -8z"/>
<path d="M790 2610 c-8 -5 -12 -12 -9 -15 4 -3 12 1 19 10 14 17 11 19 -10 5z"/>
<path d="M740 2525 c1 -5 8 -19 17 -30 12 -16 14 -16 10 -3 -4 11 0 21 11 27
9 6 12 11 5 11 -6 0 -15 -5 -19 -11 -4 -8 -9 -7 -15 2 -5 8 -9 10 -9 4z"/>
<path d="M815 2509 c-4 -6 -5 -12 -2 -15 2 -3 7 2 10 11 7 17 1 20 -8 4z"/>
<path d="M795 2383 c3 -3 0 -12 -7 -20 -6 -7 -8 -16 -4 -20 3 -3 6 -1 6 6 0 7
4 10 9 7 11 -7 9 21 -2 29 -4 3 -5 2 -2 -2z"/>
<path d="M739 2363 c0 -4 -2 -17 -4 -28 -2 -10 1 -25 7 -32 7 -9 7 -13 0 -13
-6 0 -9 -6 -8 -12 3 -21 16 -38 29 -38 7 0 6 4 -3 10 -8 5 -10 10 -4 10 7 0
14 9 17 20 3 11 1 18 -3 15 -5 -3 -11 -1 -15 5 -3 5 1 10 9 10 8 0 18 4 21 10
4 6 -1 7 -11 3 -12 -4 -15 -3 -10 5 4 7 0 19 -8 28 -9 8 -16 12 -17 7z m14
-38 c-7 -21 -12 -19 -10 4 0 11 5 18 9 15 4 -3 5 -11 1 -19z m-2 -58 c-10 -9
-11 -8 -5 6 3 10 9 15 12 12 3 -3 0 -11 -7 -18z"/>
<path d="M788 2272 c-3 -10 0 -19 6 -19 7 0 12 9 12 19 0 10 -3 18 -7 18 -4 0
-9 -8 -11 -18z"/>
<path d="M772 2233 c-6 -2 -10 -9 -6 -14 8 -14 21 -11 21 6 0 8 -1 15 -1 14
-1 0 -7 -3 -14 -6z"/>
<path d="M780 2196 c0 -2 7 -7 16 -10 8 -3 12 -2 9 4 -6 10 -25 14 -25 6z"/>
<path d="M2095 3158 c3 -36 -5 -50 -21 -37 -10 8 -12 6 -9 -10 2 -12 -1 -21
-6 -21 -6 0 -7 -9 -4 -20 4 -13 1 -22 -10 -26 -12 -5 -13 -10 -4 -20 8 -10 15
-11 30 -1 23 14 34 38 13 30 -7 -3 -14 -1 -14 4 0 12 50 59 58 55 4 -2 8 1 10
7 2 6 -2 11 -9 11 -7 0 -9 3 -6 6 8 8 -10 44 -22 44 -4 0 -7 -10 -6 -22z m31
-40 c4 -7 3 -10 -1 -5 -5 4 -22 -5 -39 -20 -17 -16 -25 -21 -18 -12 6 9 8 20
4 24 -4 5 -1 5 6 1 7 -4 15 -1 18 8 7 19 20 21 30 4z m-65 -91 c-10 -9 -11 -8
-5 6 3 10 9 15 12 12 3 -3 0 -11 -7 -18z"/>
<path d="M2160 2876 c0 -2 7 -9 15 -16 9 -7 15 -8 15 -2 0 5 -7 12 -15 16 -8
3 -15 4 -15 2z"/>
<path d="M2159 2841 c11 -7 11 -9 0 -13 -8 -3 -10 -9 -6 -14 9 -10 28 16 21
28 -3 4 -11 8 -17 8 -8 0 -7 -3 2 -9z"/>
<path d="M2182 2805 c-10 -21 -9 -26 11 -35 19 -10 20 -9 5 2 -12 10 -14 18
-6 32 5 9 8 19 6 22 -3 2 -10 -7 -16 -21z"/>
<path d="M2126 2803 c-4 -9 -2 -21 4 -27 8 -8 9 -6 4 8 -5 13 -4 17 4 12 8 -5
10 -2 6 8 -8 20 -10 20 -18 -1z"/>
<path d="M2100 2760 c-9 -6 -10 -10 -3 -10 6 0 15 5 18 10 8 12 4 12 -15 0z"/>
<path d="M2150 2761 c0 -6 4 -12 8 -15 5 -3 9 1 9 9 0 8 -4 15 -9 15 -4 0 -8
-4 -8 -9z"/>
<path d="M2188 2743 c6 -2 18 -2 25 0 6 3 1 5 -13 5 -14 0 -19 -2 -12 -5z"/>
<path d="M2112 2715 c3 -33 16 -33 14 0 0 14 -4 25 -8 25 -4 0 -7 -11 -6 -25z"/>
<path d="M2030 2710 c0 -4 7 -11 16 -14 13 -5 14 -9 4 -21 -7 -8 -9 -15 -5
-15 5 0 0 -9 -9 -19 -12 -13 -14 -21 -6 -26 6 -4 9 -14 5 -23 -4 -10 3 -23 17
-34 19 -14 21 -19 10 -30 -11 -11 -13 -11 -10 1 2 7 -3 15 -10 17 -7 1 -8 0
-3 -2 6 -3 7 -13 4 -21 -5 -12 -2 -15 9 -11 9 4 21 1 27 -5 22 -22 2 36 -21
61 l-23 25 22 -12 c20 -10 22 -9 16 5 -5 13 -3 15 8 9 11 -7 11 -5 -1 10 -11
14 -12 19 -2 22 6 3 12 9 12 14 0 6 -4 8 -9 5 -5 -3 -15 2 -22 11 -12 15 -12
16 3 10 12 -4 15 -2 11 9 -4 10 0 13 13 8 13 -4 11 0 -6 12 -27 20 -50 27 -50
14z m30 -85 c-8 -10 -8 -14 2 -17 7 -3 8 -7 2 -11 -5 -3 -16 3 -23 15 -7 11
-8 17 -2 13 6 -3 11 1 11 10 0 9 5 13 10 10 8 -5 8 -11 0 -20z"/>
<path d="M2190 2700 c0 -5 5 -10 10 -10 6 0 10 5 10 10 0 6 -4 10 -10 10 -5 0
-10 -4 -10 -10z"/>
<path d="M2216 2673 c-6 -14 -5 -15 5 -6 7 7 10 15 7 18 -3 3 -9 -2 -12 -12z"/>
<path d="M2093 2617 c-3 -6 -1 -7 5 -3 5 3 12 1 14 -6 3 -8 6 -7 10 3 7 17
-19 22 -29 6z"/>
<path d="M2193 2614 c0 -9 4 -11 12 -4 7 5 14 9 16 7 2 -1 3 0 1 2 -7 11 -29
7 -29 -5z"/>
<path d="M2097 2583 c-9 -9 -9 -41 1 -46 4 -3 7 8 7 24 0 16 0 29 -1 29 0 0
-4 -3 -7 -7z"/>
<path d="M2219 2568 c14 -19 32 -15 30 5 0 8 -2 8 -6 -1 -4 -10 -8 -10 -21 0
-15 12 -16 11 -3 -4z"/>
<path d="M2174 2556 c1 -8 5 -18 8 -22 4 -3 5 1 4 10 -1 8 -5 18 -8 22 -4 3
-5 -1 -4 -10z"/>
<path d="M2235 2540 c-16 -7 -17 -9 -3 -9 9 -1 20 4 23 9 7 11 7 11 -20 0z"/>
<path d="M2225 2480 c-3 -6 1 -7 9 -4 18 7 21 14 7 14 -6 0 -13 -4 -16 -10z"/>
<path d="M2075 2451 c-3 -5 -2 -12 3 -15 5 -3 9 1 9 9 0 17 -3 19 -12 6z"/>
<path d="M2255 2430 c-3 -6 1 -7 9 -4 18 7 21 14 7 14 -6 0 -13 -4 -16 -10z"/>
<path d="M2027 2423 c-10 -9 -9 -23 1 -23 5 0 9 7 9 15 0 17 -1 18 -10 8z"/>
<path d="M2266 2404 c-23 -23 -20 -30 4 -9 11 10 20 20 20 22 0 7 -9 2 -24
-13z"/>
<path d="M2115 2370 c-4 -6 -11 -8 -16 -5 -5 4 -9 1 -9 -4 0 -16 16 -13 30 4
7 8 10 15 7 15 -3 0 -9 -5 -12 -10z"/>
<path d="M2280 2366 c0 -8 4 -17 9 -20 5 -4 7 3 4 14 -6 23 -13 26 -13 6z"/>
<path d="M2256 2302 c-3 -5 1 -9 9 -9 8 0 12 4 9 9 -3 4 -7 8 -9 8 -2 0 -6 -4
-9 -8z"/>
<path d="M2270 2277 c0 -2 6 -10 14 -16 11 -9 16 -9 22 1 4 7 4 10 -1 6 -4 -4
-14 -3 -22 3 -7 6 -13 9 -13 6z"/>
<path d="M2096 2242 c-2 -4 -1 -14 4 -22 7 -11 9 -9 7 8 -1 24 -3 26 -11 14z"/>
<path d="M2293 2212 c0 -12 5 -22 9 -22 11 0 10 12 -2 30 -7 12 -9 10 -7 -8z"/>
<path d="M2070 2190 c0 -6 7 -10 15 -10 8 0 15 2 15 4 0 2 -7 6 -15 10 -8 3
-15 1 -15 -4z"/>
<path d="M2280 2160 c-9 -6 -10 -10 -3 -10 6 0 15 5 18 10 8 12 4 12 -15 0z"/>
<path d="M2037 2113 c-10 -9 -9 -23 1 -23 5 0 9 7 9 15 0 17 -1 18 -10 8z"/>
<path d="M2310 2103 c0 -6 8 -17 18 -24 16 -13 16 -13 2 6 -8 11 -16 22 -17
24 -2 2 -3 0 -3 -6z"/>
<path d="M760 2900 c-12 -7 -12 -12 -2 -22 6 -6 12 -10 13 -7 0 2 2 12 4 22 4
20 4 19 -15 7z"/>
<path d="M740 2795 c-9 -11 -10 -18 -1 -28 6 -8 9 -17 6 -20 -3 -4 -2 -4 3 -1
6 5 12 64 6 64 -1 0 -7 -7 -14 -15z"/>
<path d="M2045 2811 c-3 -6 4 -15 15 -21 20 -11 21 -10 10 9 -12 23 -16 25
-25 12z"/>
<path d="M2042 2771 c-11 -7 -11 -9 0 -14 9 -3 15 1 15 9 0 8 -1 14 -1 14 -1
0 -7 -4 -14 -9z"/>
<path d="M726 2631 c-4 -5 -2 -12 3 -15 5 -4 12 -2 15 3 4 5 2 12 -3 15 -5 4
-12 2 -15 -3z"/>
<path d="M2025 2191 c-3 -5 -2 -12 3 -15 5 -3 9 1 9 9 0 17 -3 19 -12 6z"/>
<path d="M4435 1360 c3 -5 8 -10 11 -10 2 0 4 5 4 10 0 6 -5 10 -11 10 -5 0
-7 -4 -4 -10z"/>
<path d="M716 1238 c3 -5 10 -6 15 -3 13 9 11 12 -6 12 -8 0 -12 -4 -9 -9z"/>
<path d="M3845 1251 c-3 -5 -2 -12 3 -15 5 -3 9 1 9 9 0 17 -3 19 -12 6z"/>
<path d="M2106 862 c-3 -5 1 -9 9 -9 8 0 15 4 15 9 0 4 -4 8 -9 8 -6 0 -12 -4
-15 -8z"/>
<path d="M2000 844 c0 -8 5 -12 10 -9 6 4 8 11 5 16 -9 14 -15 11 -15 -7z"/>
<path d="M1639 433 c-13 -16 -12 -17 4 -4 16 13 21 21 13 21 -2 0 -10 -8 -17
-17z"/>
<path d="M1590 429 c0 -5 5 -7 10 -4 6 3 10 8 10 11 0 2 -4 4 -10 4 -5 0 -10
-5 -10 -11z"/>
<path d="M4856 3738 c3 -5 10 -6 15 -3 13 9 11 12 -6 12 -8 0 -12 -4 -9 -9z"/>
<path d="M2682 3718 c-15 -15 -15 -28 0 -28 6 0 8 3 5 7 -4 3 -2 12 4 20 14
16 7 17 -9 1z"/>
<path d="M3730 3721 c0 -6 4 -13 10 -16 6 -3 7 1 4 9 -7 18 -14 21 -14 7z"/>
<path d="M4886 3722 c-3 -5 1 -9 9 -9 8 0 12 4 9 9 -3 4 -7 8 -9 8 -2 0 -6 -4
-9 -8z"/>
<path d="M4947 3719 c7 -7 15 -10 18 -7 3 3 -2 9 -12 12 -14 6 -15 5 -6 -5z"/>
<path d="M2693 3678 c-3 -6 -1 -8 5 -4 5 3 13 0 15 -6 4 -10 6 -10 6 0 1 8 6
10 14 6 6 -4 8 -3 4 1 -12 13 -36 15 -44 3z"/>
<path d="M3747 3656 c-4 -10 -1 -13 9 -9 7 3 14 9 14 14 0 14 -17 10 -23 -5z"/>
<path d="M4916 3651 c-3 -4 1 -17 10 -27 14 -18 15 -18 5 2 -6 12 -7 24 -4 28
3 3 4 6 0 6 -3 0 -8 -4 -11 -9z"/>
<path d="M4947 3639 c7 -7 15 -10 18 -7 3 3 -2 9 -12 12 -14 6 -15 5 -6 -5z"/>
<path d="M3781 3604 c0 -11 3 -14 6 -6 3 7 2 16 -1 19 -3 4 -6 -2 -5 -13z"/>
<path d="M4953 3605 c0 -8 4 -12 9 -9 5 3 6 10 3 15 -9 13 -12 11 -12 -6z"/>
<path d="M4926 3561 c-3 -5 0 -11 7 -14 8 -3 14 1 14 9 0 16 -13 19 -21 5z"/>
<path d="M2750 3550 c-9 -6 -10 -10 -3 -10 6 0 15 5 18 10 8 12 4 12 -15 0z"/>
<path d="M3815 3540 c-3 -5 -1 -10 4 -10 6 0 11 5 11 10 0 6 -2 10 -4 10 -3 0
-8 -4 -11 -10z"/>
<path d="M3790 3525 c0 -8 4 -15 10 -15 5 0 7 7 4 15 -4 8 -8 15 -10 15 -2 0
-4 -7 -4 -15z"/>
<path d="M2746 3505 c-10 -8 -22 -12 -26 -10 -4 2 -7 -2 -7 -10 0 -10 4 -12
12 -5 7 5 15 7 18 3 4 -3 7 -1 7 6 0 7 4 10 8 7 5 -3 9 1 9 9 0 8 -1 15 -1 15
-1 0 -10 -7 -20 -15z"/>
<path d="M2790 3516 c0 -2 8 -10 18 -17 15 -13 16 -12 3 4 -13 16 -21 21 -21
13z"/>
<path d="M3813 3493 c-3 -8 -1 -19 5 -25 8 -8 9 -4 5 12 -4 15 -2 21 5 16 6
-3 13 -3 16 2 3 5 -2 9 -10 9 -9 0 -18 -7 -21 -14z"/>
<path d="M3784 3486 c1 -8 8 -21 15 -30 7 -8 10 -20 6 -25 -3 -7 0 -8 9 -5 21
8 20 17 -4 32 -12 7 -18 17 -15 22 3 5 1 11 -4 14 -5 4 -8 0 -7 -8z"/>
<path d="M4910 3460 c-11 -7 -11 -10 -2 -10 7 0 11 -4 8 -9 -7 -11 20 -8 31 3
4 4 1 6 -7 4 -8 -1 -14 3 -12 10 2 14 1 15 -18 2z"/>
<path d="M4865 3440 c-3 -5 -4 -10 -1 -10 3 0 -3 -9 -14 -20 -24 -24 -26 -37
-5 -37 8 0 12 4 10 7 -3 4 6 8 20 8 14 0 22 -5 18 -11 -3 -6 -1 -7 6 -3 9 6 9
11 0 22 -8 10 -8 14 0 14 8 0 8 6 -1 20 -14 22 -24 25 -33 10z m16 -37 c-9
-16 -10 -15 -9 9 2 16 6 24 11 19 5 -5 5 -17 -2 -28z"/>
<path d="M2760 3436 c0 -2 7 -7 16 -10 8 -3 12 -2 9 4 -6 10 -25 14 -25 6z"/>
<path d="M2739 3408 c-8 -7 -12 -12 -10 -10 3 1 17 -9 31 -23 20 -19 27 -21
27 -10 0 8 -2 13 -5 10 -2 -2 -11 3 -20 11 -13 14 -13 17 -1 25 8 5 9 9 3 9
-5 0 -17 -6 -25 -12z"/>
<path d="M3830 3409 c0 -5 5 -7 10 -4 6 3 10 8 10 11 0 2 -4 4 -10 4 -5 0 -10
-5 -10 -11z"/>
<path d="M3813 3388 c1 -15 6 -23 11 -18 4 4 4 16 -2 26 -9 16 -10 14 -9 -8z"/>
<path d="M3856 3393 c-6 -14 -5 -15 5 -6 7 7 10 15 7 18 -3 3 -9 -2 -12 -12z"/>
<path d="M2780 3325 c0 -8 4 -15 10 -15 5 0 7 7 4 15 -4 8 -8 15 -10 15 -2 0
-4 -7 -4 -15z"/>
<path d="M3828 3307 c7 -8 8 -18 4 -22 -4 -5 -1 -4 7 0 11 6 13 4 8 -8 -4 -10
-2 -14 7 -11 7 3 13 11 13 19 0 8 -4 12 -9 9 -4 -3 -8 -1 -8 4 0 6 -7 13 -16
16 -13 5 -14 4 -6 -7z"/>
<path d="M3895 3301 c-3 -5 -2 -12 3 -15 5 -3 9 1 9 9 0 17 -3 19 -12 6z"/>
<path d="M4870 3281 c0 -6 4 -13 10 -16 6 -3 7 1 4 9 -7 18 -14 21 -14 7z"/>
<path d="M3868 3258 c-9 -5 -6 -7 9 -5 12 2 25 6 28 8 8 9 -23 6 -37 -3z"/>
<path d="M2803 3223 c-15 -5 -17 -23 -4 -23 5 0 11 7 15 15 3 8 4 15 3 14 -1
0 -8 -3 -14 -6z"/>
<path d="M4880 3220 c-12 -7 -10 -9 7 -7 12 0 19 5 17 9 -6 10 -6 10 -24 -2z"/>
<path d="M3896 3207 c3 -10 9 -15 12 -12 3 3 0 11 -7 18 -10 9 -11 8 -5 -6z"/>
<path d="M2840 3100 c-9 -6 -10 -10 -3 -10 6 0 15 5 18 10 8 12 4 12 -15 0z"/>
<path d="M2798 3063 c6 -2 12 -12 12 -21 0 -13 -2 -14 -9 -4 -12 20 -24 -15
-11 -36 8 -14 10 -14 10 -2 0 11 4 10 17 -5 12 -16 14 -16 10 -3 -4 11 0 21
11 27 9 6 12 11 7 11 -6 0 -16 -5 -23 -12 -14 -14 -16 1 -2 22 9 15 -4 30 -25
29 -5 0 -4 -3 3 -6z"/>
<path d="M3896 3053 c10 -7 23 -13 28 -12 6 0 5 3 -2 6 -6 2 -10 8 -8 12 3 4
-4 7 -15 7 -19 0 -19 -1 -3 -13z"/>
<path d="M4810 3061 c0 -7 -6 -11 -13 -8 -9 3 -13 -2 -12 -16 1 -12 -3 -25 -9
-30 -7 -4 -3 -9 11 -13 12 -3 25 -15 29 -26 3 -11 8 -17 11 -15 2 3 0 14 -6
26 -8 14 -8 27 1 46 9 19 9 28 0 37 -9 9 -12 9 -12 -1z m10 -19 c0 -5 -6 -17
-14 -28 -10 -13 -14 -14 -13 -4 4 26 27 54 27 32z"/>
<path d="M3903 3011 c0 -11 5 -18 9 -15 4 3 5 11 1 19 -7 21 -12 19 -10 -4z"/>
<path d="M4836 3022 c-3 -5 1 -9 9 -9 8 0 12 4 9 9 -3 4 -7 8 -9 8 -2 0 -6 -4
-9 -8z"/>
<path d="M2856 2993 c-6 -14 -5 -15 5 -6 7 7 10 15 7 18 -3 3 -9 -2 -12 -12z"/>
<path d="M3930 2998 c0 -4 4 -8 9 -8 6 0 12 4 15 8 3 5 -1 9 -9 9 -8 0 -15 -4
-15 -9z"/>
<path d="M3918 2973 c7 -3 16 -2 19 1 4 3 -2 6 -13 5 -11 0 -14 -3 -6 -6z"/>
<path d="M4781 2958 c9 -16 29 -17 29 -2 0 3 -5 2 -12 -2 -7 -5 -9 -2 -6 8 4
8 0 15 -7 15 -10 0 -11 -5 -4 -19z"/>
<path d="M3950 2959 c0 -5 5 -7 10 -4 6 3 10 8 10 11 0 2 -4 4 -10 4 -5 0 -10
-5 -10 -11z"/>
<path d="M4810 2930 c-9 -6 -10 -10 -3 -10 6 0 15 5 18 10 8 12 4 12 -15 0z"/>
<path d="M3976 2907 c3 -10 9 -15 12 -12 3 3 0 11 -7 18 -10 9 -11 8 -5 -6z"/>
<path d="M2854 2898 c-5 -7 -3 -8 6 -3 9 6 12 4 8 -6 -4 -10 1 -15 13 -15 17
0 17 2 2 18 -19 21 -20 21 -29 6z"/>
<path d="M3953 2850 c1 -11 5 -20 9 -20 11 0 10 28 -1 35 -6 3 -9 -4 -8 -15z"/>
<path d="M3973 2813 c-4 -10 -11 -21 -17 -25 -7 -5 -7 -8 -1 -8 6 0 15 4 20 8
11 8 19 42 10 42 -3 0 -9 -8 -12 -17z"/>
<path d="M2875 2809 c-4 -6 -5 -12 -2 -15 2 -3 7 2 10 11 7 17 1 20 -8 4z"/>
<path d="M4787 2779 c7 -7 15 -10 18 -7 3 3 -2 9 -12 12 -14 6 -15 5 -6 -5z"/>
<path d="M2855 2747 c-12 -9 -14 -16 -7 -21 6 -3 16 3 22 14 13 24 10 25 -15
7z"/>
<path d="M4740 2744 c0 -20 27 -37 36 -23 4 7 3 9 -4 5 -6 -3 -15 2 -21 11 -6
10 -11 13 -11 7z"/>
<path d="M4779 2703 c0 -5 -2 -16 -4 -26 -2 -11 -1 -16 3 -13 8 8 14 46 7 46
-3 0 -5 -3 -6 -7z"/>
<path d="M4773 2629 c-2 -23 3 -25 10 -4 4 8 3 16 -1 19 -4 3 -9 -4 -9 -15z"/>
<path d="M4730 2566 c0 -2 7 -7 16 -10 8 -3 12 -2 9 4 -6 10 -25 14 -25 6z"/>
<path d="M4663 2523 c4 -6 0 -18 -7 -29 -12 -16 -12 -20 6 -32 20 -14 20 -36
0 -38 -25 -3 -27 -5 -13 -13 11 -7 21 -1 37 22 20 29 20 35 8 59 -8 15 -19 30
-25 34 -7 4 -9 3 -6 -3z m31 -65 c-9 -15 -33 12 -27 29 5 14 8 14 19 -2 7 -10
11 -22 8 -27z"/>
<path d="M4715 2480 c3 -5 8 -10 11 -10 2 0 4 5 4 10 0 6 -5 10 -11 10 -5 0
-7 -4 -4 -10z"/>
<path d="M4735 2429 c-4 -6 -5 -12 -2 -15 2 -3 7 2 10 11 7 17 1 20 -8 4z"/>
<path d="M3457 2418 c-9 -7 -15 -22 -13 -33 2 -11 -2 -23 -8 -27 -8 -5 -7 -8
2 -8 7 0 2 -10 -10 -22 -13 -13 -27 -22 -32 -20 -5 2 -4 -3 2 -11 10 -11 9
-17 -2 -26 -8 -7 -12 -19 -9 -27 6 -16 33 -19 33 -3 0 5 -4 8 -9 4 -5 -3 -12
-1 -15 4 -4 6 7 8 24 6 16 -2 30 1 30 6 0 6 -5 7 -10 4 -6 -4 -9 3 -7 15 4 25
24 40 44 33 7 -3 14 2 14 11 1 9 3 21 4 26 1 6 3 13 4 18 1 4 5 0 11 -8 6 -9
5 -19 -2 -28 -8 -8 -8 -16 -2 -20 5 -4 9 -13 8 -19 -1 -7 -2 -18 -3 -24 0 -5
-6 -7 -13 -3 -7 4 -8 3 -4 -5 6 -9 11 -9 22 0 11 9 14 9 14 -1 0 -8 3 -11 6
-8 3 4 1 15 -4 25 -11 21 -5 46 9 37 5 -3 1 9 -10 27 -16 25 -17 35 -8 42 8 6
7 7 -4 4 -16 -5 -52 27 -42 37 11 11 -3 6 -20 -6z m13 -24 c0 5 7 3 15 -4 15
-13 11 -35 -6 -25 -5 4 -9 1 -9 -4 0 -6 6 -11 13 -12 9 0 9 -2 -1 -6 -6 -2 -9
-10 -6 -15 5 -7 2 -8 -5 -4 -13 9 -54 -22 -46 -34 3 -4 -3 -14 -13 -21 -15
-12 -15 -12 -5 1 6 8 11 19 10 23 -1 4 7 18 19 30 14 15 20 32 18 57 -2 24 0
30 6 20 6 -8 10 -11 10 -6z"/>
<path d="M3466 2382 c-3 -5 1 -9 9 -9 8 0 12 4 9 9 -3 4 -7 8 -9 8 -2 0 -6 -4
-9 -8z"/>
<path d="M4735 2360 c3 -5 8 -10 11 -10 2 0 4 5 4 10 0 6 -5 10 -11 10 -5 0
-7 -4 -4 -10z"/>
<path d="M10 2340 c0 -5 5 -10 11 -10 5 0 7 5 4 10 -3 6 -8 10 -11 10 -2 0 -4
-4 -4 -10z"/>
<path d="M4625 2300 c-3 -6 1 -7 9 -4 18 7 21 14 7 14 -6 0 -13 -4 -16 -10z"/>
<path d="M3456 2285 c4 -8 10 -15 15 -15 4 0 6 7 3 15 -4 8 -10 15 -15 15 -4
0 -6 -7 -3 -15z"/>
<path d="M4693 2285 c0 -8 4 -12 9 -9 5 3 6 10 3 15 -9 13 -12 11 -12 -6z"/>
<path d="M41 2244 c0 -11 3 -14 6 -6 3 7 2 16 -1 19 -3 4 -6 -2 -5 -13z"/>
<path d="M3548 2248 c-7 -18 1 -38 15 -38 8 0 8 3 0 11 -6 6 -9 18 -6 25 3 8
3 14 0 14 -3 0 -7 -6 -9 -12z"/>
<path d="M3460 2242 c0 -4 9 -8 19 -8 11 0 17 4 15 8 -3 4 -12 8 -20 8 -8 0
-14 -4 -14 -8z"/>
<path d="M3434 2215 c7 -18 -5 -19 -24 -2 -12 10 -12 9 -1 -5 7 -9 21 -16 31
-15 13 1 16 5 10 13 -6 6 -7 14 -3 17 3 4 1 7 -6 7 -8 0 -11 -7 -7 -15z"/>
<path d="M4604 2201 c1 -9 -5 -15 -14 -13 -10 3 -8 -4 7 -20 16 -16 20 -27 13
-34 -6 -6 -12 -20 -15 -32 -2 -12 -6 -26 -10 -31 -3 -5 0 -13 6 -16 5 -4 8
-13 5 -21 -3 -7 0 -16 6 -20 7 -5 8 -2 3 6 -6 10 -4 12 8 7 23 -9 21 -2 -5 23
-19 17 -19 20 -5 20 10 0 20 7 23 15 4 8 9 13 13 10 4 -2 8 3 8 12 0 13 -4 12
-18 -5 -20 -26 -26 -27 -26 -7 0 8 7 17 14 19 8 3 11 11 7 18 -5 8 -2 9 9 5 9
-3 19 -2 22 4 4 5 3 9 -2 8 -19 -3 -34 2 -28 10 3 5 0 13 -6 17 -8 4 -4 11 11
19 l23 12 -25 5 c-19 3 -25 1 -24 -11z"/>
<path d="M3515 2191 c-3 -5 -2 -12 3 -15 5 -3 9 1 9 9 0 17 -3 19 -12 6z"/>
<path d="M3548 2188 c-7 -17 15 -19 29 -3 4 4 3 5 -4 2 -6 -4 -13 -2 -15 5 -3
8 -6 6 -10 -4z"/>
<path d="M4638 2183 c7 -3 16 -2 19 1 4 3 -2 6 -13 5 -11 0 -14 -3 -6 -6z"/>
<path d="M3415 2160 c-3 -6 1 -7 9 -4 18 7 21 14 7 14 -6 0 -13 -4 -16 -10z"/>
<path d="M3450 2139 c0 -5 5 -7 10 -4 6 3 10 8 10 11 0 2 -4 4 -10 4 -5 0 -10
-5 -10 -11z"/>
<path d="M3555 2140 c-3 -5 -1 -10 4 -10 6 0 11 5 11 10 0 6 -2 10 -4 10 -3 0
-8 -4 -11 -10z"/>
<path d="M4666 2118 c3 -5 10 -6 15 -3 13 9 11 12 -6 12 -8 0 -12 -4 -9 -9z"/>
<path d="M75 2080 c3 -5 8 -10 11 -10 2 0 4 5 4 10 0 6 -5 10 -11 10 -5 0 -7
-4 -4 -10z"/>
<path d="M3410 2079 c0 -5 5 -7 10 -4 6 3 10 8 10 11 0 2 -4 4 -10 4 -5 0 -10
-5 -10 -11z"/>
<path d="M3564 2078 c-4 -7 -4 -10 1 -6 12 11 35 -11 28 -28 -3 -8 -3 -14 0
-14 15 0 13 30 -3 45 -14 13 -20 14 -26 3z"/>
<path d="M3341 2051 c-9 -6 -8 -11 3 -20 8 -7 12 -19 9 -27 -4 -10 -9 -11 -17
-5 -17 14 -45 -4 -29 -20 8 -8 7 -19 -7 -41 -18 -30 -17 -64 1 -52 5 3 9 0 9
-5 0 -6 -4 -11 -10 -11 -5 0 -9 -3 -8 -7 2 -5 -9 -24 -23 -43 -37 -48 -32 -97
6 -72 16 11 42 47 28 38 -7 -4 -13 -2 -13 3 0 6 4 11 8 11 5 0 17 7 28 16 18
15 18 15 -3 5 -30 -15 -38 -14 -23 4 7 8 18 15 26 15 7 0 15 4 18 9 4 5 -3 7
-14 4 -12 -3 -20 0 -20 6 0 7 5 9 11 5 7 -4 6 3 -2 17 -19 34 -19 48 -2 57 8
5 14 13 13 18 -1 5 3 10 9 12 6 2 9 -2 8 -10 -2 -7 -2 -10 0 -5 3 4 8 5 12 3
4 -3 8 1 8 9 0 8 -4 12 -9 9 -14 -9 -9 14 7 30 18 17 19 27 4 24 -6 -2 -14 3
-16 10 -3 8 1 10 11 6 9 -3 16 -4 16 -1 0 10 -27 15 -39 8z m-7 -72 c-3 -5
-10 -7 -15 -3 -5 3 -7 10 -3 15 3 5 10 7 15 3 5 -3 7 -10 3 -15z m-39 -149
c-10 -11 -14 -20 -10 -20 5 0 4 -5 -3 -12 -16 -16 -15 -31 1 -22 8 5 8 2 -2
-9 -7 -9 -19 -17 -25 -17 -6 0 -4 5 4 10 12 8 12 10 1 10 -11 0 -10 5 4 20 10
11 14 20 10 20 -4 0 0 9 10 20 10 11 20 20 23 20 3 0 -3 -9 -13 -20z"/>
<path d="M3422 2044 c10 -10 20 -16 22 -13 3 3 -5 11 -17 18 -21 13 -21 12 -5
-5z"/>
<path d="M4656 2047 c3 -10 9 -15 12 -12 3 3 0 11 -7 18 -10 9 -11 8 -5 -6z"/>
<path d="M46 2038 c3 -5 10 -6 15 -3 13 9 11 12 -6 12 -8 0 -12 -4 -9 -9z"/>
<path d="M75 2030 c-3 -5 -1 -10 4 -10 6 0 11 5 11 10 0 6 -2 10 -4 10 -3 0
-8 -4 -11 -10z"/>
<path d="M90 2000 c0 -5 5 -10 10 -10 6 0 10 5 10 10 0 6 -4 10 -10 10 -5 0
-10 -4 -10 -10z"/>
<path d="M4546 1982 c-3 -6 -1 -14 5 -17 15 -10 25 3 12 16 -7 7 -13 7 -17 1z"/>
<path d="M69 1963 c-13 -16 -12 -17 4 -4 16 13 21 21 13 21 -2 0 -10 -8 -17
-17z"/>
<path d="M3595 1970 c-4 -6 -11 -7 -17 -4 -7 4 -8 2 -4 -5 6 -9 12 -9 24 1 10
7 19 14 21 15 2 2 -1 3 -7 3 -6 0 -14 -5 -17 -10z"/>
<path d="M4600 1965 c-14 -8 -20 -14 -14 -15 5 0 19 7 30 15 24 18 16 19 -16
0z"/>
<path d="M114 1949 c-4 -8 -3 -9 4 -5 7 4 12 2 12 -5 0 -6 -8 -9 -20 -6 -11 3
-18 1 -14 -4 3 -5 11 -9 18 -9 8 0 19 -7 26 -15 15 -18 7 -19 -23 -4 -20 9
-21 9 -4 -4 13 -11 15 -16 5 -20 -7 -2 -1 -4 13 -4 28 -1 33 17 12 38 -6 6 -9
17 -7 24 7 17 -13 29 -22 14z"/>
<path d="M4559 1941 c11 -7 11 -9 0 -13 -8 -3 -10 -9 -5 -14 5 -5 11 -4 13 3
3 8 12 9 29 3 34 -13 30 -4 -8 14 -33 17 -52 21 -29 7z"/>
<path d="M3356 1931 c-3 -5 -14 -8 -24 -6 -9 1 -11 0 -4 -2 6 -3 12 -8 12 -13
0 -5 -8 -7 -17 -3 -10 3 -16 4 -13 2 36 -30 53 -41 43 -28 -10 12 -9 20 3 37
8 12 13 22 10 22 -3 0 -7 -4 -10 -9z"/>
<path d="M3627 1925 c-4 -8 -2 -17 4 -20 5 -4 6 -12 3 -18 -4 -7 -1 -6 7 2 10
10 11 15 2 18 -7 2 -9 11 -6 19 3 8 3 14 0 14 -3 0 -7 -7 -10 -15z"/>
<path d="M79 1853 c-13 -16 -12 -17 4 -4 9 7 17 15 17 17 0 8 -8 3 -21 -13z"/>
<path d="M3375 1860 c3 -5 8 -10 11 -10 2 0 4 5 4 10 0 6 -5 10 -11 10 -5 0
-7 -4 -4 -10z"/>
<path d="M3630 1826 c0 -2 9 -6 20 -9 11 -3 18 -1 14 4 -5 9 -34 13 -34 5z"/>
<path d="M110 1799 c0 -5 5 -7 10 -4 6 3 10 8 10 11 0 2 -4 4 -10 4 -5 0 -10
-5 -10 -11z"/>
<path d="M3641 1794 c0 -11 3 -14 6 -6 3 7 2 16 -1 19 -3 4 -6 -2 -5 -13z"/>
<path d="M3330 1739 c0 -5 5 -7 10 -4 6 3 10 8 10 11 0 2 -4 4 -10 4 -5 0 -10
-5 -10 -11z"/>
<path d="M3632 1726 c-16 -20 -16 -20 2 -6 10 8 25 15 33 16 24 4 27 13 4 11
-12 -1 -30 -10 -39 -21z"/>
<path d="M3660 1699 c-13 -9 -13 -10 1 -6 9 3 23 0 30 -6 11 -10 11 -9 0 6 -7
9 -14 17 -15 17 0 0 -8 -5 -16 -11z"/>
<path d="M3293 1633 c0 -9 4 -10 14 -2 7 6 13 12 13 14 0 1 -6 2 -13 2 -8 0
-14 -6 -14 -14z"/>
<path d="M3223 1625 c0 -8 4 -12 9 -9 5 3 6 10 3 15 -9 13 -12 11 -12 -6z"/>
<path d="M3676 1622 c-3 -5 1 -9 9 -9 8 0 12 4 9 9 -3 4 -7 8 -9 8 -2 0 -6 -4
-9 -8z"/>
<path d="M159 1593 c-13 -16 -12 -17 4 -4 9 7 17 15 17 17 0 8 -8 3 -21 -13z"/>
<path d="M3679 1598 c-5 -18 -6 -38 -1 -34 7 8 12 36 6 36 -2 0 -4 -1 -5 -2z"/>
<path d="M3275 1569 c-4 -6 -5 -12 -2 -15 2 -3 7 2 10 11 7 17 1 20 -8 4z"/>
<path d="M190 1539 c0 -5 5 -7 10 -4 6 3 10 8 10 11 0 2 -4 4 -10 4 -5 0 -10
-5 -10 -11z"/>
<path d="M3690 1541 c0 -6 4 -13 10 -16 6 -3 7 1 4 9 -7 18 -14 21 -14 7z"/>
<path d="M3710 1546 c0 -2 7 -6 15 -10 8 -3 15 -1 15 4 0 6 -7 10 -15 10 -8 0
-15 -2 -15 -4z"/>
<path d="M3267 1519 c7 -7 15 -10 18 -7 3 3 -2 9 -12 12 -14 6 -15 5 -6 -5z"/>
<path d="M4480 1510 c-12 -7 -10 -9 7 -7 12 0 19 5 17 9 -6 10 -6 10 -24 -2z"/>
<path d="M230 1506 c0 -2 7 -7 16 -10 8 -3 12 -2 9 4 -6 10 -25 14 -25 6z"/>
<path d="M286 1485 c-3 -8 -1 -15 4 -15 6 0 10 7 10 15 0 8 -2 15 -4 15 -2 0
-6 -7 -10 -15z"/>
<path d="M3733 1479 c-2 -23 3 -25 10 -4 4 8 3 16 -1 19 -4 3 -9 -4 -9 -15z"/>
<path d="M4515 1490 c-3 -5 -13 -6 -23 -3 -14 5 -15 3 -4 -8 10 -11 15 -10 29
4 10 9 14 17 11 17 -4 0 -9 -4 -13 -10z"/>
<path d="M3224 1465 c-4 -10 -11 -12 -23 -6 -12 7 -20 5 -29 -9 -13 -21 0 -30
29 -23 15 4 46 53 33 53 -2 0 -7 -7 -10 -15z m-14 -19 c0 -2 -7 -7 -16 -10 -8
-3 -12 -2 -9 4 6 10 25 14 25 6z"/>
<path d="M3239 1443 c-8 -21 -6 -30 8 -42 15 -15 16 -15 5 0 -9 12 -10 24 -2
43 5 14 7 26 5 26 -3 0 -10 -12 -16 -27z"/>
<path d="M4513 1445 c0 -8 4 -12 9 -9 5 3 6 10 3 15 -9 13 -12 11 -12 -6z"/>
<path d="M4553 1445 c0 -8 4 -12 9 -9 5 3 6 10 3 15 -9 13 -12 11 -12 -6z"/>
<path d="M4436 1442 c-3 -6 8 -24 24 -42 28 -30 30 -31 26 -9 -2 13 1 31 7 39
9 12 9 13 -3 3 -11 -10 -17 -10 -31 3 -10 9 -19 11 -23 6z m29 -22 c10 -11 16
-20 13 -20 -3 0 -13 9 -23 20 -10 11 -16 20 -13 20 3 0 13 -9 23 -20z"/>
<path d="M3750 1432 c0 -4 6 -14 12 -20 10 -10 10 -15 -2 -22 -8 -5 -10 -10
-4 -10 5 0 15 5 22 12 16 16 16 -4 0 -21 -11 -11 -10 -14 0 -18 6 -3 10 -9 7
-14 -4 -5 1 -6 10 -2 13 5 14 7 3 14 -10 7 -10 9 2 9 12 0 12 2 1 9 -9 6 -10
11 -2 15 6 4 11 12 11 17 0 6 -4 8 -10 4 -5 -3 -18 3 -30 15 -11 11 -20 16
-20 12z"/>
<path d="M3730 1381 c0 -6 4 -13 10 -16 6 -3 7 1 4 9 -7 18 -14 21 -14 7z"/>
<path d="M3216 1342 c-3 -4 4 -9 15 -9 23 -2 25 3 4 10 -8 4 -16 3 -19 -1z"/>
<path d="M3757 1329 c4 -13 8 -18 11 -10 2 7 -1 18 -6 23 -8 8 -9 4 -5 -13z"/>
<path d="M415 1331 c-3 -5 -2 -12 3 -15 5 -3 9 1 9 9 0 17 -3 19 -12 6z"/>
<path d="M1247 1324 c3 -7 9 -14 14 -14 5 0 9 -4 9 -10 0 -5 -3 -9 -7 -9 -20
3 -33 -2 -33 -12 0 -8 6 -7 16 2 15 12 16 11 9 -10 -5 -16 -4 -21 4 -17 6 4
11 12 11 18 0 6 8 17 18 25 9 8 11 12 4 8 -6 -3 -15 0 -18 9 -3 8 -12 17 -19
20 -9 3 -12 0 -8 -10z"/>
<path d="M4470 1331 c0 -5 5 -13 10 -16 6 -3 10 -2 10 4 0 5 -4 13 -10 16 -5
3 -10 2 -10 -4z"/>
<path d="M3775 1304 c-18 -16 -22 -22 -9 -15 18 9 53 42 43 41 -2 -1 -17 -12
-34 -26z"/>
<path d="M4405 1321 c-3 -5 -1 -12 4 -15 5 -3 11 1 15 9 6 16 -9 21 -19 6z"/>
<path d="M1170 1275 c-13 -14 -25 -35 -26 -48 -2 -12 0 -16 2 -9 3 6 9 10 13
8 4 -3 13 -1 21 4 11 7 11 11 1 24 -8 10 -9 16 -3 16 6 0 16 -8 21 -17 10 -18
12 -15 15 24 2 26 -18 26 -44 -2z m37 0 c0 -8 -4 -12 -9 -9 -5 3 -6 10 -3 15
9 13 12 11 12 -6z m-33 -36 c-3 -5 -10 -7 -15 -3 -5 3 -7 10 -3 15 3 5 10 7
15 3 5 -3 7 -10 3 -15z"/>
<path d="M3225 1280 c-10 -11 -16 -22 -14 -24 2 -2 12 7 22 20 22 29 17 32 -8
4z"/>
<path d="M490 1279 c0 -5 5 -7 10 -4 6 3 10 8 10 11 0 2 -4 4 -10 4 -5 0 -10
-5 -10 -11z"/>
<path d="M536 1261 c-3 -5 1 -14 9 -21 10 -9 15 -9 15 -1 0 6 -5 11 -11 11 -5
0 -7 5 -4 10 3 6 4 10 1 10 -3 0 -7 -4 -10 -9z"/>
<path d="M3760 1260 c-9 -6 -10 -10 -3 -10 6 0 15 5 18 10 8 12 4 12 -15 0z"/>
<path d="M1232 1240 c0 -14 2 -19 5 -12 2 6 2 18 0 25 -3 6 -5 1 -5 -13z"/>
<path d="M1050 1242 c0 -5 -15 -16 -32 -26 -18 -9 -25 -15 -16 -12 10 3 19 -2
21 -12 3 -12 5 -11 6 6 0 12 6 22 11 22 6 0 9 -3 9 -7 -5 -29 4 -31 27 -6 23
26 25 26 19 6 -4 -14 -2 -23 5 -23 6 0 8 5 5 10 -9 15 11 12 24 -3 6 -8 7 -18
3 -22 -4 -5 -1 -5 6 -1 14 8 4 27 -28 54 -13 10 -13 11 3 6 9 -3 17 -2 17 4 0
11 -18 11 -37 -1 -6 -4 -14 -3 -18 3 -7 12 -25 13 -25 2z m24 -11 c3 -5 -1
-14 -8 -20 -12 -10 -14 -9 -11 6 2 10 4 19 4 21 2 5 10 2 15 -7z"/>
<path d="M570 1231 c0 -6 4 -13 10 -16 6 -3 7 1 4 9 -7 18 -14 21 -14 7z"/>
<path d="M620 1229 c-12 -9 -12 -10 4 -5 11 4 23 1 28 -6 7 -10 9 -10 6 1 -6
20 -20 23 -38 10z"/>
<path d="M4437 1215 c-8 -8 -18 -11 -22 -7 -5 4 -5 1 -1 -6 6 -11 12 -10 27 4
10 9 19 19 19 21 0 7 -9 2 -23 -12z"/>
<path d="M671 1204 c0 -11 3 -14 6 -6 3 7 2 16 -1 19 -3 4 -6 -2 -5 -13z"/>
<path d="M816 1206 c7 -18 34 -22 34 -4 0 6 -3 8 -7 5 -3 -4 -12 -2 -20 5 -11
8 -12 7 -7 -6z"/>
<path d="M3816 1203 c-6 -14 -5 -15 5 -6 7 7 10 15 7 18 -3 3 -9 -2 -12 -12z"/>
<path d="M3043 1195 c0 -8 4 -15 9 -15 4 0 8 4 8 9 0 6 -4 12 -8 15 -5 3 -9
-1 -9 -9z"/>
<path d="M3140 1199 c0 -5 5 -7 10 -4 6 3 10 8 10 11 0 2 -4 4 -10 4 -5 0 -10
-5 -10 -11z"/>
<path d="M4194 1179 c-17 -19 -17 -20 1 -37 10 -9 15 -11 11 -4 -4 6 -2 12 3
12 6 0 11 5 11 11 0 8 -5 8 -15 -1 -10 -9 -15 -9 -15 -1 0 6 5 12 10 12 6 1
14 2 19 3 18 2 22 14 7 19 -8 3 -22 -3 -32 -14z"/>
<path d="M615 1180 c-3 -5 -1 -10 4 -10 6 0 11 5 11 10 0 6 -2 10 -4 10 -3 0
-8 -4 -11 -10z"/>
<path d="M3110 1180 c0 -5 5 -10 10 -10 6 0 10 5 10 10 0 6 -4 10 -10 10 -5 0
-10 -4 -10 -10z"/>
<path d="M4450 1186 c0 -2 7 -7 16 -10 8 -3 12 -2 9 4 -6 10 -25 14 -25 6z"/>
<path d="M775 1170 c-4 -6 -11 -8 -16 -5 -5 4 -9 1 -9 -4 0 -16 16 -13 30 4 7
8 10 15 7 15 -3 0 -9 -5 -12 -10z"/>
<path d="M951 1171 c-8 -5 -9 -11 -3 -15 5 -3 12 1 16 9 6 17 6 18 -13 6z"/>
<path d="M3995 1170 c-4 -6 -11 -8 -16 -4 -6 3 -5 -3 3 -15 14 -22 28 -28 28
-10 0 5 5 7 11 3 8 -4 8 0 0 15 -13 24 -17 25 -26 11z m15 -10 c0 -5 -5 -10
-11 -10 -5 0 -7 5 -4 10 3 6 8 10 11 10 2 0 4 -4 4 -10z"/>
<path d="M4286 1165 c4 -8 11 -15 16 -15 6 0 5 6 -2 15 -7 8 -14 15 -16 15 -2
0 -1 -7 2 -15z"/>
<path d="M1026 1158 c3 -5 10 -6 15 -3 13 9 11 12 -6 12 -8 0 -12 -4 -9 -9z"/>
<path d="M2727 1138 c-18 -21 -24 -35 -17 -43 5 -7 7 -15 3 -18 -3 -4 -3 -7 1
-7 4 0 15 8 24 17 16 15 16 16 0 11 -9 -4 -18 -4 -21 -1 -8 7 35 53 44 47 5
-3 6 2 3 10 -8 21 -7 21 -37 -16z"/>
<path d="M3050 1166 c0 -2 7 -7 16 -10 8 -3 12 -2 9 4 -6 10 -25 14 -25 6z"/>
<path d="M3830 1159 c0 -5 5 -7 10 -4 6 3 10 8 10 11 0 2 -4 4 -10 4 -5 0 -10
-5 -10 -11z"/>
<path d="M4371 1153 c0 -11 3 -13 6 -5 2 6 10 9 15 6 7 -4 8 -2 4 4 -11 18
-26 14 -25 -5z"/>
<path d="M3856 1143 c-6 -14 -5 -15 5 -6 7 7 10 15 7 18 -3 3 -9 -2 -12 -12z"/>
<path d="M3050 1140 c0 -5 5 -10 11 -10 5 0 7 5 4 10 -3 6 -8 10 -11 10 -2 0
-4 -4 -4 -10z"/>
<path d="M3156 1142 c-3 -5 1 -9 9 -9 8 0 12 4 9 9 -3 4 -7 8 -9 8 -2 0 -6 -4
-9 -8z"/>
<path d="M916 1127 c3 -10 9 -15 12 -12 3 3 0 11 -7 18 -10 9 -11 8 -5 -6z"/>
<path d="M3096 1127 c3 -10 9 -15 12 -12 3 3 0 11 -7 18 -10 9 -11 8 -5 -6z"/>
<path d="M4278 1133 c7 -3 16 -2 19 1 4 3 -2 6 -13 5 -11 0 -14 -3 -6 -6z"/>
<path d="M2977 1115 c-4 -8 -1 -17 6 -21 7 -4 9 -4 5 1 -4 4 -3 14 3 22 7 8 8
13 1 13 -5 0 -12 -7 -15 -15z"/>
<path d="M3935 1120 c3 -5 8 -10 11 -10 2 0 4 5 4 10 0 6 -5 10 -11 10 -5 0
-7 -4 -4 -10z"/>
<path d="M4016 1114 c-5 -14 -4 -15 8 -5 8 7 21 9 27 5 8 -4 9 -3 5 4 -10 17
-33 15 -40 -4z"/>
<path d="M4113 1111 c0 -11 5 -18 9 -15 4 3 5 11 1 19 -7 21 -12 19 -10 -4z"/>
<path d="M4170 1122 c0 -5 7 -9 15 -9 8 0 12 4 9 9 -3 4 -9 8 -15 8 -5 0 -9
-4 -9 -8z"/>
<path d="M2775 1071 c-3 -5 -2 -12 3 -15 5 -3 9 1 9 9 0 17 -3 19 -12 6z"/>
<path d="M2630 980 c0 -5 5 -10 10 -10 6 0 10 5 10 10 0 6 -4 10 -10 10 -5 0
-10 -4 -10 -10z"/>
<path d="M2467 916 c-5 -13 -11 -15 -20 -8 -10 8 -13 3 -12 -22 0 -18 5 -33
11 -33 6 0 9 10 7 21 -4 17 -3 18 6 6 7 -10 11 -11 11 -3 0 7 7 10 18 7 13 -4
14 -3 4 4 -8 5 -13 12 -12 16 4 18 -7 28 -13 12z"/>
<path d="M2175 821 c-6 -11 13 -26 22 -17 4 3 1 6 -6 6 -7 0 -9 5 -6 10 3 6 4
10 1 10 -3 0 -7 -4 -11 -9z"/>
<path d="M2308 823 c6 -2 18 -2 25 0 6 3 1 5 -13 5 -14 0 -19 -2 -12 -5z"/>
<path d="M2216 798 c3 -5 10 -6 15 -3 13 9 11 12 -6 12 -8 0 -12 -4 -9 -9z"/>
<path d="M2295 800 c3 -5 8 -10 11 -10 2 0 4 5 4 10 0 6 -5 10 -11 10 -5 0 -7
-4 -4 -10z"/>
<path d="M2347 799 c7 -7 15 -10 18 -7 3 3 -2 9 -12 12 -14 6 -15 5 -6 -5z"/>
<path d="M276 727 c3 -10 9 -15 12 -12 3 3 0 11 -7 18 -10 9 -11 8 -5 -6z"/>
<path d="M1909 704 c-7 -8 -7 -14 0 -18 5 -4 12 -2 16 4 10 17 25 11 18 -7 -3
-10 -3 -15 1 -12 4 4 8 15 10 26 5 22 -28 27 -45 7z"/>
<path d="M296 686 c3 -9 14 -16 23 -16 14 0 14 -2 1 -10 -8 -5 -10 -10 -4 -10
6 0 17 7 24 15 12 14 7 19 -14 16 -4 -1 -14 4 -22 10 -12 10 -13 9 -8 -5z"/>
<path d="M1956 638 c3 -5 10 -6 15 -3 13 9 11 12 -6 12 -8 0 -12 -4 -9 -9z"/>
<path d="M254 569 c-3 -6 -2 -15 3 -20 5 -5 9 -1 9 11 0 23 -2 24 -12 9z"/>
<path d="M253 515 c0 -8 4 -12 9 -9 5 3 6 10 3 15 -9 13 -12 11 -12 -6z"/>
<path d="M1820 519 c0 -5 5 -7 10 -4 6 3 10 8 10 11 0 2 -4 4 -10 4 -5 0 -10
-5 -10 -11z"/>
<path d="M293 495 c0 -8 4 -12 9 -9 5 3 6 10 3 15 -9 13 -12 11 -12 -6z"/>
<path d="M376 474 c-9 -23 -8 -27 9 -21 8 4 17 2 20 -3 4 -6 1 -10 -4 -10 -6
0 -11 -5 -11 -12 0 -6 9 -3 20 7 22 20 28 8 8 -14 -9 -9 -9 -12 -1 -7 6 3 13
1 16 -6 2 -7 3 -5 2 5 -2 9 1 17 6 17 5 0 9 -5 9 -12 0 -6 3 -8 6 -5 4 4 2 13
-4 20 -7 8 -8 18 -4 22 4 5 2 5 -4 2 -6 -4 -19 2 -29 13 -22 24 -31 25 -39 4z
m35 -11 c12 -16 12 -17 -2 -6 -9 7 -20 9 -24 5 -5 -4 -5 -1 -1 6 9 16 11 15
27 -5z"/>
<path d="M333 435 c0 -8 4 -12 9 -9 5 3 6 10 3 15 -9 13 -12 11 -12 -6z"/>
<path d="M472 405 c1 -14 5 -25 9 -25 4 0 7 11 7 25 0 14 -4 25 -9 25 -5 0 -8
-11 -7 -25z"/>
<path d="M1695 420 c-2 -4 3 -14 13 -21 16 -13 16 -13 2 5 -14 18 -13 19 2 13
10 -3 19 -3 22 1 3 4 -4 8 -14 9 -11 1 -22 -2 -25 -7z"/>
<path d="M380 406 c0 -2 8 -10 18 -17 15 -13 16 -12 3 4 -13 16 -21 21 -21 13z"/>
<path d="M1634 382 c3 -5 0 -13 -6 -15 -9 -4 -10 -6 -1 -6 17 -1 25 16 12 25
-7 4 -9 3 -5 -4z"/>
<path d="M456 358 c3 -5 10 -6 15 -3 13 9 11 12 -6 12 -8 0 -12 -4 -9 -9z"/>
<path d="M510 346 c0 -2 9 -6 20 -9 11 -3 18 -1 14 4 -5 9 -34 13 -34 5z"/>
<path d="M1377 330 c-20 -19 -49 -20 -55 -2 -6 19 -18 14 -18 -7 0 -13 5 -17
16 -13 13 5 13 3 2 -10 -11 -14 -10 -18 9 -28 12 -7 19 -8 15 -2 -3 5 1 13 10
16 8 3 12 10 9 16 -3 5 -3 10 2 11 4 0 16 2 26 4 12 2 17 -1 14 -9 -3 -7 1
-13 9 -13 18 0 18 11 -1 27 -8 7 -12 16 -9 21 9 16 -10 8 -29 -11z m-28 -41
c-22 -14 -33 -10 -19 6 7 8 17 12 22 9 6 -4 5 -10 -3 -15z"/>
<path d="M836 321 c-4 -5 -2 -12 3 -15 5 -4 12 -2 15 3 4 5 2 12 -3 15 -5 4
-12 2 -15 -3z"/>
<path d="M1239 303 c-12 -16 -12 -17 2 -6 9 7 20 9 24 5 5 -4 5 -1 1 6 -9 16
-11 15 -27 -5z"/>
<path d="M1376 283 c-4 -9 -4 -14 0 -10 4 4 14 1 23 -6 14 -11 15 -10 1 8 -8
11 -15 21 -16 23 -1 2 -5 -5 -8 -15z"/>
<path d="M725 280 c3 -5 8 -10 11 -10 2 0 4 5 4 10 0 6 -5 10 -11 10 -5 0 -7
-4 -4 -10z"/>
<path d="M1473 275 c0 -8 4 -12 9 -9 4 3 8 9 8 15 0 5 -4 9 -8 9 -5 0 -9 -7
-9 -15z"/>
<path d="M830 249 c0 -5 5 -7 10 -4 6 3 10 8 10 11 0 2 -4 4 -10 4 -5 0 -10
-5 -10 -11z"/>
<path d="M910 240 c0 -5 5 -10 11 -10 5 0 7 5 4 10 -3 6 -8 10 -11 10 -2 0 -4
-4 -4 -10z"/>
<path d="M999 233 c-12 -16 -12 -17 2 -6 9 7 19 10 22 6 4 -3 7 -1 7 5 0 17
-16 15 -31 -5z"/>
<path d="M1040 246 c0 -2 8 -10 18 -17 15 -13 16 -12 3 4 -13 16 -21 21 -21
13z"/>
<path d="M1119 248 c-5 -18 -6 -38 -1 -34 7 8 12 36 6 36 -2 0 -4 -1 -5 -2z"/>
<path d="M1430 240 c0 -5 5 -10 11 -10 5 0 7 5 4 10 -3 6 -8 10 -11 10 -2 0
-4 -4 -4 -10z"/>
<path d="M1293 215 c0 -8 4 -12 9 -9 5 3 6 10 3 15 -9 13 -12 11 -12 -6z"/>
<path d="M953 205 c0 -8 4 -12 9 -9 5 3 6 10 3 15 -9 13 -12 11 -12 -6z"/>
</g>
</svg>
